<svg xmlns="http://www.w3.org/2000/svg" id="Layer_1" viewBox="0 0 23 20.6">
    <style>
        .st0,.st1{fill:none;stroke:#fff}.st0{stroke-miterlimit:10}.st1{stroke-linecap:round;stroke-linejoin:round}
    </style>
    <g id="Layer_2_1_">
        <g id="Layer_1-2">
            <g id="image_upgrade">
                <path d="M10.4 3.2h6.1M7.8 3.2H5.9M2.7 2.9h.6v.6h-.6zM10.4 10.3h6.1M7.8 10.3H5.9M2.7 9.9h.6v.6h-.6zM10.4 17.4h1M7.8 17.4H5.9M2.7 17h.6v.6h-.6z" class="st0"/>
                <path d="M1.3.5h16.6c.4 0 .8.3.8.8v3.8c0 .4-.3.8-.8.8H1.3c-.4 0-.8-.3-.8-.8V1.3c0-.5.3-.8.8-.8zM12.3 13h-11c-.4 0-.8-.3-.8-.8V8.4c0-.4.3-.8.8-.8h16.6c.4 0 .8.3.8.8v.7M13.8 20.1H1.3c-.4 0-.8-.3-.8-.8v-3.8c0-.4.3-.8.8-.8H12" class="st0"/>
                <path d="M15.4 15.3l3.6-3.5 3.5 3.5M19 19.9v-8.1" class="st1"/>
            </g>
        </g>
    </g>
</svg>
