<svg xmlns="http://www.w3.org/2000/svg" viewBox="0 0 32 32">
    <defs>
        <style>
            .cls-1{fill:#0052b4}.cls-2{fill:#f0f0f0}.cls-3{fill:#6da544}.cls-4{fill:#d80027}.cls-5{fill:#496e2d}.cls-6{fill:#ffda44}.cls-7{fill:#338af3}.cls-8{fill:#f3f3f3}
        </style>
    </defs>
    <g id="Layer_2" data-name="Layer 2">
        <g id="ky">
            <path d="M32 16a16 16 0 0 1-32 0L16 0a16 16 0 0 1 16 16z" class="cls-1"/>
            <path d="M16 16zM16 8.35V0A16 16 0 0 0 0 16h8.35v-4.7l4.7 4.7H16v-2.95l-4.7-4.7z" class="cls-2"/>
            <circle cx="22.96" cy="9.04" r="2.78" class="cls-3"/>
            <path d="M8.09 2.09a16 16 0 0 0-6 6V16h4.17V6.26H16V2.09z" class="cls-4"/>
            <path d="M16 14l-5.68-5.65h-2L16 16zM18.09 8.35h9.74v4.17h-9.74z" class="cls-4"/>
            <path d="M18.09 16z" class="cls-5"/>
            <path d="M18.09 18.78v2.79h1.46a4.87 4.87 0 0 0 6.81 0h1.47v-2.79z" class="cls-6"/>
            <path d="M18.09 11.83V16c0 3.73 4.87 4.87 4.87 4.87s4.87-1.14 4.87-4.87v-4.17z" class="cls-7"/>
            <path d="M23 14.06c-1.22 0-1.22 1.11-2.44 1.11s-1.22-1.11-2.43-1.11V16c1.21 0 1.21 1.12 2.43 1.12S21.74 16 23 16s1.21 1.12 2.43 1.12S26.61 16 27.83 16v-1.94c-1.22 0-1.22 1.11-2.44 1.11s-1.22-1.11-2.39-1.11zM23 10.16c-1.22 0-1.22 1.11-2.44 1.11s-1.22-1.11-2.43-1.11v1.94c1.21 0 1.21 1.12 2.43 1.12S21.74 12.1 23 12.1s1.21 1.12 2.43 1.12 1.22-1.12 2.44-1.12v-1.94c-1.22 0-1.22 1.11-2.44 1.11s-1.26-1.11-2.43-1.11z" class="cls-8"/>
        </g>
    </g>
</svg>
