<svg xmlns="http://www.w3.org/2000/svg" viewBox="0 0 23 17.35">
    <defs>
        <style>
            .cls-1,.cls-2{fill:none;stroke:#383838;stroke-linecap:round}.cls-1{stroke-miterlimit:10}.cls-2{stroke-linejoin:round}
        </style>
    </defs>
    <g id="Layer_2" data-name="Layer 2">
        <g id="Layer_1-2" data-name="Layer 1">
            <g id="deploy_all" data-name="deploy all">
                <path d="M15.54 10.25v6.6h2.39a4.61 4.61 0 0 0 1.41-9 3.18 3.18 0 0 0 .33-1.41 3.13 3.13 0 0 0-3.14-3.13 3.09 3.09 0 0 0-1.59.44 6.08 6.08 0 0 0-11.5 2.83v.22A5.3 5.3 0 0 0 5.8 16.85h.83" class="cls-1"/>
                <path d="M13.3 12.19l2.24-2.24 2.23 2.24" class="cls-2"/>
                <path d="M9.54 10.25l-.04 6.6" class="cls-1"/>
                <path d="M7.3 12.19l2.24-2.24 2.23 2.24" class="cls-2"/>
            </g>
        </g>
    </g>
</svg>
