<svg xmlns="http://www.w3.org/2000/svg" viewBox="0 0 32 32">
    <defs>
        <style>
            .cls-1{fill:#f0f0f0}.cls-2{fill:#d80027}.cls-3{fill:#6da544}
        </style>
    </defs>
    <g id="Layer_2" data-name="Layer 2">
        <g id="sy">
            <path d="M32 16A16 16 0 1 1 16 0a16 16 0 0 1 16 16z" class="cls-1"/>
            <path d="M16 0A16 16 0 0 0 1 10.43h30A16 16 0 0 0 16 0z" class="cls-2"/>
            <path d="M16 32a16 16 0 0 0 15-10.43H1A16 16 0 0 0 16 32z"/>
            <path d="M9.56 12.17l.86 2.66h2.8L11 16.47l.86 2.66-2.3-1.64-2.26 1.64.86-2.66-2.26-1.64h2.8zM22.44 12.17l.86 2.66h2.8l-2.26 1.64.86 2.66-2.26-1.64-2.26 1.64.82-2.66-2.26-1.64h2.8z" class="cls-3"/>
        </g>
    </g>
</svg>
