<svg xmlns="http://www.w3.org/2000/svg" viewBox="0 0 22.41 22.41">
    <defs>
        <style>
            .cls-1{fill:none;stroke:#383838;stroke-miterlimit:10}
        </style>
    </defs>
    <g id="Layer_2" data-name="Layer 2">
        <g id="Layer_1-2" data-name="Layer 1">
            <g id="Create_Ticket" data-name="Create Ticket">
                <path d="M19.31 6.21l-.23.23a1.65 1.65 0 0 1-1.39.56 2.2 2.2 0 0 1-2.27-2.27A1.64 1.64 0 0 1 16 3.34l.23-.23L13.8.71.71 13.8l2.4 2.4.23-.2a1.64 1.64 0 0 1 1.39-.55A2.2 2.2 0 0 1 7 17.69a1.65 1.65 0 0 1-.56 1.39l-.23.23 2.41 2.4L21.71 8.62zm-2.6 6.48l-1.06-1.06m-4.86-4.86L9.72 5.7M11.44 7.42l1.29 1.29M13.7 9.68L15 11" class="cls-1"/>
            </g>
        </g>
    </g>
</svg>
