<svg xmlns="http://www.w3.org/2000/svg" id="Layer_1" viewBox="0 0 18.1 22">
    <style>
        .st0{fill:none;stroke:#fff;stroke-miterlimit:10}
    </style>
    <g id="Layer_2_1_">
        <g id="Action_icons">
            <g id="profile">
                <path d="M8.3.5C6.2.5 4.4 2.3 4.4 4.4c.1 1.3.3 2.7.5 4 .5 1.9 2.3 3 4.2 2.5 1.2-.3 2.2-1.3 2.5-2.5.3-1.3.4-2.7.5-4 0-2.1-1.7-3.9-3.8-3.9zM13.6 12.5c-.7-.5-1.6-.8-2.4-.9-1.4 1.7-3.8 1.9-5.5.5-.2-.2-.4-.3-.5-.5-2.7.1-4.7 2.3-4.8 5v3.9c0 .5.4.9.9.9H11M13.6 18.7c-.6 0-1.1-.5-1.1-1.1s.5-1.1 1.1-1.1c.6 0 1.1.5 1.1 1.1 0 .6-.4 1.1-1.1 1.1z" class="st0"/>
                <path d="M14.1 21.5h-.9c-.1 0-.1-.1-.1-.1v-.9c-.4-.1-.7-.2-1-.4l-.6.6c-.1.1-.1.1-.2 0l-.8-.7c-.1-.1-.1-.1 0-.2l.6-.6c-.2-.3-.3-.6-.4-1h-.8c-.1 0-.1-.1-.1-.1v-1c-.1-.1 0-.1.1-.1h.9c.1-.4.2-.7.4-1l-.6-.6c-.1-.1-.1-.1 0-.2l.7-.7c0-.1.1-.1.2 0l.6.6c.3-.2.6-.3 1-.4v-.9c0-.1.1-.1.1-.1h.9c.1 0 .1.1.1.1v.9c.4.1.7.2 1 .4l.6-.6c0-.1.1-.1.2 0l.7.7c.1 0 .1.1 0 .2l-.6.6c.2.3.3.6.4 1h.9c.1 0 .1.1.1.1v1c0 .1-.1.1-.1.1h-.9c-.1.4-.2.7-.4 1l.6.6c.1 0 .1.1 0 .2l-.7.7c-.1.1-.1.1-.2 0l-.6-.6c-.3.2-.6.3-1 .4v.9c0 .1 0 .1-.1.1z" class="st0"/>
            </g>
        </g>
    </g>
</svg>
