<svg xmlns="http://www.w3.org/2000/svg" viewBox="0 0 32 32">
    <defs>
        <style>
            .cls-1{fill:#f0f0f0}.cls-2{fill:#0052b4}.cls-3{fill:#d80027}
        </style>
    </defs>
    <g id="Layer_2" data-name="Layer 2">
        <g id="pa">
            <path d="M32 16A16 16 0 1 1 16 0a16 16 0 0 1 16 16z" class="cls-1"/>
            <path d="M0 16a16 16 0 0 0 16 16V16z" class="cls-2"/>
            <path d="M16 0a16 16 0 0 1 16 16H16z" class="cls-3"/>
            <path d="M9.52 5.57l1 3.18h3.35l-2.71 2 1 3.19-2.72-2-2.71 2 1-3.19-2.71-2h3.47z" class="cls-2"/>
            <path d="M22.48 18.09l1 3.19h3.35l-2.71 2 1 3.18-2.71-2-2.72 2 1-3.18-2.71-2h3.35z" class="cls-3"/>
        </g>
    </g>
</svg>
