<svg xmlns="http://www.w3.org/2000/svg" id="Layer_1" viewBox="0 0 23 23">
    <style>
        .st0{fill:none;stroke:#fff;stroke-miterlimit:10}
    </style>
    <g id="Layer_2_1_">
        <g id="Thunder_ADC">
            <g id="Row_1">
                <g id="Settings_2">
                    <path d="M11.5 14.6c-1.7 0-3.1-1.4-3.1-3.1 0-1.7 1.4-3.1 3.1-3.1 1.7 0 3.1 1.4 3.1 3.1 0 1.7-1.4 3.1-3.1 3.1z" class="st0"/>
                    <path d="M12.8 22.5h-2.7c-.2 0-.4-.2-.4-.4v-2.4c-1-.2-2-.6-2.8-1.2l-1.7 1.7c-.1.2-.4.2-.6 0l-1.9-1.9c-.2-.2-.2-.4 0-.6L4.4 16c-.6-.9-1-1.8-1.2-2.9H.9c-.2 0-.4-.2-.4-.4V10c0-.2.2-.4.4-.4h2.4c.2-1 .6-2 1.2-2.9L2.8 5.2c-.2-.1-.2-.4 0-.6l1.9-1.9c.2-.2.4-.2.6 0L7 4.4c.9-.6 1.8-1 2.9-1.2V.9c0-.2.2-.4.4-.4H13c.2 0 .4.2.4.4v2.4c1 .2 2 .6 2.8 1.2l1.7-1.7c.2-.2.4-.2.6 0l1.9 1.9c.2.1.2.4 0 .6L18.7 7c.6.9 1 1.8 1.2 2.9h2.4c.2 0 .4.2.4.4V13c0 .2-.2.4-.4.4h-2.4c-.2 1-.6 2-1.2 2.8l1.7 1.7c.2.2.2.4 0 .6l-1.9 1.9c-.2.2-.4.2-.6 0l-1.7-1.7c-.9.6-1.8 1-2.9 1.2v2.4c-.1 0-.2.2-.5.2z" class="st0"/>
                </g>
            </g>
        </g>
    </g>
</svg>
