<svg xmlns="http://www.w3.org/2000/svg" id="Layer_1" viewBox="0 0 23 18.4">
    <style>
        .st0,.st1{stroke-miterlimit:10}.st0{fill:none;stroke:#fff;stroke-width:.92}.st1{stroke-linecap:round}.st1,.st2,.st3{fill:none;stroke:#fff}.st2{stroke-linecap:round;stroke-linejoin:round}.st3{stroke-miterlimit:10}
    </style>
    <g id="Layer_2_1_">
        <g id="Layer_1-2">
            <g id="deploy_2">
                <path d="M5.9 13.1h11.9c.3 0 .5.2.5.5v3.7c0 .3-.2.5-.5.5H5.9c-.3 0-.5-.2-.5-.5v-3.7c0-.3.2-.5.5-.5z" class="st0"/>
                <path d="M20.5 16.1c2.1-1.4 2.7-4.3 1.3-6.4-.6-.9-1.4-1.5-2.4-1.8.2-.4.3-.9.3-1.4 0-1.7-1.4-3.1-3.1-3.1-.6 0-1.1.2-1.6.4-1.6-3-5.2-4.1-8.2-2.5-2 1.1-3.2 3.1-3.2 5.4v.2C.8 8.1-.3 11.3 1 13.9c.5.9 1.2 1.7 2.1 2.3M11.5 5.3v4.6" class="st1"/>
                <path d="M9.3 7.2l2.2-2.3 2.3 2.3" class="st2"/>
                <path d="M14.3 15.6h2.5M11.7 15.6h-1.2M7.4 15.4h.4v.4h-.4z" class="st3"/>
            </g>
        </g>
    </g>
</svg>
