<svg xmlns="http://www.w3.org/2000/svg" id="Layer_1" viewBox="0 0 22 19.7">
    <style>
        .st0{stroke-linecap:round}.st0,.st1{fill:none;stroke:#fff;stroke-miterlimit:10}
    </style>
    <g id="Layer_2_1_">
        <g id="Row_1">
            <g id="Cookie_Security">
                <path d="M12.2 17.8c-.9.3-1.9.5-2.8.5-4.9 0-8.9-4-8.9-8.9S4.5.5 9.4.5h.3c-.2.4-.3.8-.3 1.3 0 .9.5 1.8 1.3 2.3v.3c0 2.1 1.7 3.8 3.8 3.8h.3" class="st0"/>
                <circle cx="6.8" cy="4.3" r="1" class="st1"/>
                <circle cx="4.3" cy="9.4" r="1.5" class="st1"/>
                <circle cx="7.8" cy="14.6" r="1.5" class="st1"/>
                <circle cx="10" cy="10" r="1" class="st1"/>
                <path d="M17.2 15l-1.3-1.3M17.2 15l2.6-2.6" class="st0"/>
                <path d="M21.3 9.5c-3.1 0-3.6-1.2-3.6-1.2 0-.1-.1-.1-.1-.1-.1 0-.1 0-.1.1 0 0-.5 1.2-3.6 1.2-.1 0-.2.1-.1.2v5.5c0 2.2 3.7 3.9 3.9 4h.1c.2-.1 3.9-1.8 3.9-4V9.7c-.2-.1-.3-.2-.4-.2z" class="st1"/>
            </g>
        </g>
    </g>
</svg>
