<svg xmlns="http://www.w3.org/2000/svg" viewBox="0 0 32 32">
    <defs>
        <style>
            .cls-1{fill:#f0f0f0}.cls-2{fill:#496e2d}.cls-3{fill:#ffda44}.cls-4{fill:#d80027}
        </style>
    </defs>
    <g id="Layer_2" data-name="Layer 2">
        <g id="dm">
            <path d="M32 16A16 16 0 1 1 16 0a16 16 0 0 1 16 16z" class="cls-1"/>
            <path d="M19.13 31.69a16 16 0 0 0 12.56-12.56H19.13zM.31 19.13a16 16 0 0 0 12.56 12.56V19.13zM31.69 12.87A16 16 0 0 0 19.13.31v12.56zM12.87.31A16 16 0 0 0 .31 12.87h12.56z" class="cls-2"/>
            <path d="M15 19.13h-2.13v12.56A15.92 15.92 0 0 0 15 32zM15 12.87V0a15.92 15.92 0 0 0-2.09.28v12.59z" class="cls-3"/>
            <path d="M17 0h-2v12.87h2zM15 32h2V19.13h-2V32z"/>
            <path d="M12.87 15v-2.13H.31A15.92 15.92 0 0 0 0 15zM19.13 15H32a15.92 15.92 0 0 0-.28-2.09H19.13z" class="cls-3"/>
            <path d="M19.13 17H32v-1-1H19.13zM0 15v2h12.87v-2z"/>
            <path d="M23.65 16A7.65 7.65 0 1 1 16 8.35 7.64 7.64 0 0 1 23.65 16z" class="cls-4"/>
            <path d="M17.74 16.85c-.57-1.13-1.31-2.29-1.31-2.29v-.84a.85.85 0 0 0-1.7-.07.67.67 0 0 0-.63.67.68.68 0 0 0 .36.6 1 1 0 0 1 .58-.54.51.51 0 0 0 .13.09l.11.06a7.44 7.44 0 0 0-.4 1.75A2.38 2.38 0 0 0 16 18.54l-.57.57h1.14V18l.56.57a1.37 1.37 0 0 0 .57-1.71zM16 9.74l.26.8h.84l-.68.49.26.8-.68-.5-.68.5.26-.8-.68-.49h.84zM12.32 10.93l.68.5.68-.5-.26.8.68.49h-.84L13 13l-.26-.8h-.84l.68-.49zM10.05 14.07h.83l.26-.8.26.8h.84l-.68.49.26.8-.68-.5-.68.49.26-.79zM10.05 17.93l.67-.49-.26-.8.68.5.68-.5-.26.8.68.49h-.84l-.26.8-.26-.8zM12.32 21.06l.26-.79-.68-.49h.84L13 19l.26.8h.84l-.68.49.26.79-.68-.51zM16 22.26l-.26-.8h-.84l.68-.49-.26-.8.68.5.68-.5-.26.8.68.49h-.84zM19.68 21.06l-.68-.49-.68.5.26-.8-.68-.49h.84L19 19l.26.8h.84l-.68.49zM22 17.93h-.83l-.26.8-.26-.8h-.84l.68-.49-.26-.8.68.5.68-.5-.26.8zM22 14.07l-.67.49.26.79-.68-.49-.68.5.26-.8-.68-.49h.84l.26-.8.26.8zM19.68 10.93l-.26.8.68.49h-.84L19 13l-.26-.8h-.84l.68-.49-.26-.79.68.49z" class="cls-2"/>
        </g>
    </g>
</svg>
