<svg xmlns="http://www.w3.org/2000/svg" viewBox="0 0 32 32">
    <defs>
        <style>
            .cls-1{fill:#f0f0f0}.cls-2{fill:#acabb1}.cls-3{fill:#ffda44}.cls-4{fill:#0052b4}.cls-5{fill:#d80027}
        </style>
    </defs>
    <g id="Layer_2" data-name="Layer 2">
        <g id="bl">
            <path d="M32 16A16 16 0 1 1 16 0a16 16 0 0 1 16 16z" class="cls-1"/>
            <path d="M28.57 12.87H23.3a1.73 1.73 0 0 0-1.73-1.74l-1.4 2.78s1.49 4.18 1.44 4.18h1.74a1.74 1.74 0 0 0 1.74-1.74 1.74 1.74 0 0 0 1.74-1.74h-.06a1.79 1.79 0 0 0 1.8-1.74zM3.43 12.87H8.7a1.73 1.73 0 0 1 1.73-1.74l1.4 2.78s-1.49 4.18-1.44 4.18H8.65a1.74 1.74 0 0 1-1.74-1.74 1.74 1.74 0 0 1-1.74-1.74h.06a1.79 1.79 0 0 1-1.8-1.74z" class="cls-2"/>
            <path d="M21.57 22.26V23H10.43v-.7H7.65V25h2.78v.7h11.14V25h2.78v-2.74z" class="cls-3"/>
            <path d="M10.43 11.13v7c0 4.26 5.57 5.56 5.57 5.56s5.57-1.3 5.57-5.56v-7l-5.57-.7z" class="cls-4"/>
            <path d="M10.43 13.91h11.13v4.17H10.43z" class="cls-5"/>
            <path d="M18.78 7.65v1l-.69.35-.7-.69V6.26h-2.78v2.09l-.7.69-.69-.34v-1h-2.79v3.48h11.14V7.65z" class="cls-3"/>
        </g>
    </g>
</svg>
