<svg xmlns="http://www.w3.org/2000/svg" id="Layer_1" viewBox="0 0 19.9 23">
    <style>
        .st0{fill:none;stroke:#fff;stroke-miterlimit:10}
    </style>
    <g id="Layer_2_1_">
        <g id="Layer_1-2">
            <g id="technical-artical">
                <g id="White_Paper">
                    <path d="M16 19.4h2.8c.3 0 .6-.3.6-.6V5.3L14.6.5h-10c-.3 0-.6.3-.6.6v2.5m15.1 1.5h-3.6c-.3 0-.6-.3-.6-.6V.9" class="st0"/>
                    <path d="M16 21.9V8.4l-4.8-4.8h-10c-.3 0-.6.3-.6.6v17.6c0 .3.3.6.6.6h14.2c.3.1.6-.2.6-.5zm-.4-13.7H12c-.3 0-.6-.3-.6-.6V4" class="st0"/>
                </g>
                <g id="technical-artical-2">
                    <g id="technical-artical-3">
                        <path d="M12.9 12.9l-.3-1.2-1.1 1.1c-.2.2-.4.2-.6 0l-.8-.8c-.2-.2-.2-.4 0-.6l1.1-1.1-1.2-.2-1.6 1.6.2.9-.1.1-5.2 5.2c-.5.5-.5 1.3 0 1.7s1.3.5 1.7 0l5.2-5.2.1-.1.9.2 1.7-1.6z" class="st0"/>
                        <path d="M6.9 13.6L5.3 12l-.3-.8-1.8-1-.3.3 1 1.8.8.3 1.6 1.6M10.1 15.5l2.1 2.1c.5.5.5 1.4 0 1.9s-1.4.5-1.9 0l-2.1-2.1" class="st0"/>
                    </g>
                </g>
            </g>
        </g>
    </g>
</svg>
