<svg xmlns="http://www.w3.org/2000/svg" id="Layer_1" viewBox="0 0 17.8 23">
    <style>
        .st0,.st1{fill:none;stroke:#fff}.st0{stroke-miterlimit:10}.st1{stroke-linecap:round;stroke-linejoin:round}
    </style>
    <g id="Layer_2_1_">
        <g id="Row_1">
            <g id="Logs">
                <path d="M6.9 2.6H1c-.3 0-.5.2-.5.4v19c0 .3.2.5.4.5h15.8c.3 0 .5-.2.5-.5V3c0-.3-.2-.5-.5-.5h-5.9M8.3 8.5h6.1" class="st0"/>
                <path d="M12.7 4.8h.9c.1-.2-.2-.4-.4-.4-.2-.1-.5-.1-.7-.2-.7-.1-1.3-.5-1.6-1.1-.1-.2-.1-.4-.1-.6-.1-.4-.1-.5-.5-.6-.3 0-.5-.3-.6-.5-.2-.2-.2-.4-.3-.5-.1-.3-.3-.4-.5-.4s-.4.1-.5.4l-.2.4c-.1.3-.3.5-.6.6-.4 0-.5.1-.6.5 0 .2 0 .4-.1.6-.3.6-.9 1-1.6 1.1-.3.1-.5.1-.8.2-.2.1-.4.2-.3.5h8.5z" class="st0"/>
                <path d="M4.8 9.6L4.2 9M4.8 9.6l1.4-1.3" class="st1"/>
                <path d="M8.3 13h4.6" class="st0"/>
                <path d="M4.8 14.3l-.6-.7M4.8 14.3l1.4-1.4" class="st1"/>
                <path d="M8.3 17.4h4.6" class="st0"/>
                <path d="M4.8 18.6l-.6-.7M4.8 18.6l1.4-1.3" class="st1"/>
            </g>
        </g>
    </g>
</svg>
