<svg xmlns="http://www.w3.org/2000/svg" viewBox="0 0 32 32">
    <defs>
        <style>
            .cls-1{fill:#f0f0f0}.cls-2{fill:#d80027}
        </style>
    </defs>
    <g id="Layer_2" data-name="Layer 2">
        <g id="ge">
            <path d="M32 16A16 16 0 1 1 16 0a16 16 0 0 1 16 16z" class="cls-1"/>
            <path d="M31.86 13.91H18.09V.14a15.67 15.67 0 0 0-4.18 0v13.77H.14a15.67 15.67 0 0 0 0 4.18h13.77v13.77a15.67 15.67 0 0 0 4.18 0V18.09h13.77a15.67 15.67 0 0 0 0-4.18z" class="cls-2"/>
            <path d="M9.74 7.65V5.57H7.65v2.08H5.57v2.09h2.08v2.09h2.09V9.74h2.09V7.65zM24.35 7.65V5.57h-2.09v2.08h-2.09v2.09h2.09v2.09h2.09V9.74h2.08V7.65zM9.74 22.26v-2.09H7.65v2.09H5.57v2.09h2.08v2.08h2.09v-2.08h2.09v-2.09zM24.35 22.26v-2.09h-2.09v2.09h-2.09v2.09h2.09v2.08h2.09v-2.08h2.08v-2.09z" class="cls-2"/>
        </g>
    </g>
</svg>
