<svg xmlns="http://www.w3.org/2000/svg" viewBox="0 0 32 32">
    <defs>
        <style>
            .cls-1{fill:#f0f0f0}.cls-2{fill:#d80027}.cls-3{fill:#6da544}.cls-4{fill:#338af3}
        </style>
    </defs>
    <g id="Layer_2" data-name="Layer 2">
        <g id="uz">
            <path d="M.76 11.13a16 16 0 0 0 0 9.74l15.24.7 15.24-.7a16 16 0 0 0 0-9.74L16 10.43z" class="cls-1"/>
            <path d="M31.24 11.13L16 10.43l-15.24.7c-.15.46-.27.92-.38 1.39h31.24a16.8 16.8 0 0 0-.38-1.39zM.38 19.48c.11.47.23.93.38 1.39l15.24.7 15.24-.7c.15-.46.27-.92.38-1.39z" class="cls-2"/>
            <path d="M16 32a16 16 0 0 0 15.24-11.13H.76A16 16 0 0 0 16 32z" class="cls-3"/>
            <path d="M16 0A16 16 0 0 0 .76 11.13h30.48A16 16 0 0 0 16 0z" class="cls-4"/>
            <path d="M7.31 6.61a3.13 3.13 0 0 1 2.46-3.06 2.93 2.93 0 0 0-.67-.07 3.13 3.13 0 0 0 0 6.26 3.62 3.62 0 0 0 .67-.07 3.13 3.13 0 0 1-2.46-3.06zM11.62 8l.21.65h.69l-.52.44.22.65-.56-.4-.55.4.21-.65-.56-.41h.69zM13.81 8l.21.65h.69l-.56.41.22.65-.56-.4-.55.4.21-.65-.56-.41h.69zM16 8l.21.65h.69l-.56.41.21.65-.55-.37-.56.4.22-.65-.56-.41h.69zM18.19 8l.21.65h.69l-.56.41.21.65-.55-.4-.56.4.21-.65-.55-.41H18zM20.38 8l.21.65h.68l-.55.41.21.65-.55-.4-.56.4.18-.62-.55-.41h.68zM13.81 5.76l.21.65h.69l-.56.4.22.65-.56-.4-.55.4.21-.65-.56-.4h.69zM16 5.76l.21.65h.69l-.56.4.21.65-.55-.4-.56.4.22-.65-.56-.4h.69zM18.19 5.76l.21.65h.69l-.56.4.21.65-.55-.4-.56.4.21-.65-.55-.4H18zM20.38 5.76l.21.65h.68l-.55.4.21.65-.55-.4-.56.4.18-.65-.55-.4h.68zM16 3.48l.21.65h.69l-.56.4.21.66-.55-.41-.56.41.22-.66-.56-.4h.69zM18.19 3.48l.21.65h.69l-.56.4.21.66-.55-.41-.56.41.21-.66-.55-.4H18zM20.38 3.48l.21.65h.68l-.55.4.21.66-.55-.41-.56.41.18-.66-.55-.4h.68z" class="cls-1"/>
        </g>
    </g>
</svg>
