<svg xmlns="http://www.w3.org/2000/svg" id="Layer_1" viewBox="0 0 23 20.7">
    <style>
        .st0,.st1{fill:none;stroke:#fff;stroke-miterlimit:10}.st1{fill:#383838}
    </style>
    <g id="Layer_2_1_">
        <g id="Action_icons">
            <g id="Config_Backup">
                <path d="M1.3.5H18c.4 0 .8.3.8.8v3.8c0 .4-.3.8-.8.8H1.3c-.4 0-.8-.3-.8-.8V1.3c0-.5.3-.8.8-.8zM12.3 13h-11c-.4 0-.8-.3-.8-.8V8.4c0-.4.3-.8.8-.8H18c.4 0 .8.3.8.7V9M13.8 20.2H1.3c-.4 0-.8-.3-.8-.8v-3.8c0-.4.3-.8.8-.8H12M15.3 12.4c1.7-1.6 4.4-1.6 6 .1 1.6 1.7 1.6 4.4-.1 6-1.7 1.6-4.4 1.6-6-.1-.5-.5-.8-1.1-1-1.8" class="st0"/>
                <path d="M17.9 13v-.5l-2.4-.2.3-2.4-.5-.1-.4 3z" class="st1"/>
                <path d="M18 13.3v1.9c0 .1 0 .1.1.1l2.2 2.2M10.5 3.3h5.9M7.9 3.3H6M2.8 3h.6v.6h-.6zM10.5 10.3h5.9M7.9 10.3H6M2.8 10h.6v.6h-.6zM10.5 17.3h.9M7.9 17.3H6M2.8 17h.6v.6h-.6z" class="st0"/>
            </g>
        </g>
    </g>
</svg>
