<svg xmlns="http://www.w3.org/2000/svg" id="Layer_1" viewBox="0 0 23 21.9">
    <style>
        .st0,.st1,.st2,.st3,.st4,.st5{fill:none;stroke:#fff;stroke-linejoin:round}.st1,.st2,.st3,.st4,.st5{stroke-linecap:round}.st2,.st3,.st4,.st5{stroke-dasharray:2.33,2.33}.st3,.st4,.st5{stroke-dasharray:2.68,2.68}.st4,.st5{stroke-dasharray:2.27,2.27}.st5{stroke-dasharray:2.65,2.65}
    </style>
    <g id="Layer_2_1_">
        <g id="Hermony_controler">
            <g id="Row_5">
                <g id="Infrastructure_2">
                    <path d="M5.7 4.9H.8c-.2 0-.3-.1-.3-.3V.8C.5.6.6.5.8.5h4.8c.3 0 .4.1.4.3v3.7c0 .3-.1.4-.3.4zM14.5 13.7h-6c-.2 0-.4-.2-.4-.4V8.6c0-.2.2-.4.4-.4h6.1c.2 0 .4.2.4.4v4.7c-.1.2-.2.4-.5.4zM22.2 4.9h-4.8c-.2 0-.3-.1-.3-.3V.8c0-.2.1-.3.3-.3h4.8c.2 0 .3.1.3.3v3.7c0 .3-.1.4-.3.4zM5.7 21.4H.8c-.2 0-.3-.1-.3-.3v-3.7c0-.2.1-.3.3-.3h4.8c.3-.1.4 0 .4.2V21c0 .3-.1.4-.3.4zM22.2 21.4h-4.8c-.2 0-.3-.1-.3-.3v-3.7c0-.2.1-.3.3-.3h4.8c.2 0 .3.1.3.3v3.7c0 .2-.1.3-.3.3z" class="st0"/>
                    <path d="M16.4 19.4h-1.5" class="st1"/>
                    <path d="M12.6 19.4H9.1" class="st2"/>
                    <path d="M7.9 19.4H6.4M19.8 5.5V7" class="st1"/>
                    <path d="M19.8 9.7v4" class="st3"/>
                    <path d="M19.8 15v1.5M6.6 2.9h1.5" class="st1"/>
                    <path d="M10.3 2.9h3.4" class="st4"/>
                    <path d="M14.9 2.9h1.5M3.3 16.4v-1.5" class="st1"/>
                    <path d="M3.3 12.3v-4" class="st5"/>
                    <path d="M3.3 7V5.5M11.8 8.1V6.6M11.8 5.4V3.9M11.8 14.2v1.5M11.8 17.5V19M7.7 10.8h-.8M4.3 10.8h-.8M15.2 10.8h1.5M18.5 10.8H20" class="st1"/>
                </g>
            </g>
        </g>
    </g>
</svg>
