<svg xmlns="http://www.w3.org/2000/svg" id="Layer_1" viewBox="0 0 19.1 23">
    <style>
        .st0{fill:none;stroke:#fff;stroke-miterlimit:10}
    </style>
    <g id="Layer_2_1_">
        <g id="Thunder_ADC">
            <g id="Row_3">
                <g id="aFlex">
                    <path d="M.5 1.2v15.7l5.6 5.6h11.7c.4 0 .7-.3.7-.7V1.2c0-.4-.3-.7-.7-.7H1.2C.8.5.5.8.5 1.2zm.4 16h4.2c.4 0 .7.3.7.7v4.2M3.3 5h11.8M3.3 8.1h11.8M3.3 11.3h11.8" class="st0"/>
                    <path d="M9.2 16.6l-1.5-1.2 1.5-1.2M13.2 16.6l1.4-1.2-1.4-1.2M10.6 17.4l1.2-4" class="st0"/>
                </g>
            </g>
        </g>
    </g>
</svg>
