<svg xmlns="http://www.w3.org/2000/svg" id="Layer_1" viewBox="0 0 23 22.7">
    <style>
        .st0{fill:none;stroke:#fff;stroke-miterlimit:10}
    </style>
    <g id="Layer_2_1_">
        <g id="Layer_1-2">
            <g id="Technical_Articles">
                <path d="M18.3 12.5V2.3c0-1.6-.2-1.8-.5-1.8H1.2C.8.5.5.8.5 1.2v15.5L6 22.2h10.8M.9 17h4.3c.3 0 .5.2.5.5v4.3M3.3 4.9H15M3.3 8H15M3.3 11.1H15" class="st0"/>
                <path d="M17.6 18.7c-.8 0-1.3-.6-1.3-1.4 0-.8.6-1.3 1.4-1.3.7 0 1.3.6 1.3 1.4 0 .7-.6 1.3-1.4 1.3z" class="st0"/>
                <path d="M18.2 22.2H17c-.1 0-.2-.1-.2-.2v-1c-.4-.1-.9-.3-1.3-.5l-.8.7c-.1.1-.2.1-.3 0l-.8-.8c-.1-.1-.1-.2 0-.3l.8-.8c-.2-.4-.4-.8-.5-1.3h-1.1c-.1 0-.2-.1-.2-.2v-1.2c0-.1.1-.2.2-.2H14c.1-.5.3-.9.5-1.3l-.8-.8c-.1-.1-.1-.2 0-.3l.8-.8c.1-.1.2-.1.3 0l.7.8c.4-.2.8-.4 1.3-.5v-1.1c0-.1.1-.2.2-.2h1.2c.1 0 .2.1.2.2v1.1c.5.1.9.3 1.3.5l.8-.8c.1-.1.2-.1.3 0l.8.8c.1.1.1.2 0 .3l-.8.8c.2.4.4.8.5 1.3h1.1c.1 0 .2.1.2.2v1.2c0 .1-.1.2-.2.2h-1.1c-.1.4-.3.9-.5 1.3l.8.8c.1.1.1.2 0 .3l-.8.8c-.1.1-.2.1-.2 0l-.8-.8c-.4.3-.8.4-1.3.5V22c-.1.2-.2.2-.3.2z" class="st0"/>
            </g>
        </g>
    </g>
</svg>
