<svg xmlns="http://www.w3.org/2000/svg" viewBox="0 0 32 32">
    <defs>
        <style>
            .cls-1{fill:#d80027}.cls-2{fill:#ffda44}
        </style>
    </defs>
    <g id="Layer_2" data-name="Layer 2">
        <g id="ma">
            <path d="M32 16A16 16 0 1 1 16 0a16 16 0 0 1 16 16z" class="cls-1"/>
            <path d="M25.46 13.13h-7.23L16 6.26l-2.23 6.87H6.54l5.85 4.25-2.23 6.87L16 20l5.84 4.25-2.23-6.87zM14 16.84l.76-2.32h2.44l.8 2.32-2 1.44-2-1.44zm2.75-3.71h-1.52l.77-2.37zM19.16 16l-.48-1.47h2.49zm-5.84-1.47L12.84 16l-2-1.47zm-.52 6.07l.77-2.36 1.25.9zm4.38-1.46l1.25-.9.77 2.36z" class="cls-2"/>
        </g>
    </g>
</svg>
