<svg xmlns="http://www.w3.org/2000/svg" id="Layer_1" viewBox="0 0 22.7 22.6">
    <style>
        .st0{fill:none;stroke:#fff;stroke-linecap:round;stroke-linejoin:round}.st1{fill:#fff}
    </style>
    <g id="Layer_2_1_">
        <g id="Thunder_ADC">
            <g id="Row_4">
                <g id="Recycle">
                    <path d="M10.4 18.5H2.5c-.5 0-.8-.4-.8-.8 0-.1 0-.3.1-.4l3.4-5.6" class="st0"/>
                    <path d="M7 16.6l-1 .2L5 12 .3 13.3l-.3-.9 5.8-1.6z" class="st1"/>
                    <path d="M19.1 11.4l3 5.8c.3.6-.1 1.3-1.4 1.3H14" class="st0"/>
                    <path d="M17.3 14.4l.7.7-3.6 3.4 3.6 3.4-.7.7-4.4-4.1z" class="st1"/>
                    <path d="M6.6 8.6L11.2.9c.2-.4.7-.5 1.1-.3l.3.3 4.8 7.5" class="st0"/>
                    <path d="M12.2 7.8l.2-.9 4.8 1.2.9-4.8 1 .2L18 9.4z" class="st1"/>
                </g>
            </g>
        </g>
    </g>
</svg>
