<svg xmlns="http://www.w3.org/2000/svg" viewBox="0 0 23 23">
    <defs>
        <style>
            .cls-1{fill:none;stroke:#383838;stroke-miterlimit:10}
        </style>
    </defs>
    <g id="Layer_2" data-name="Layer 2">
        <g id="Action_icons" data-name="Action icons">
            <path d="M10.31 22.5a9.81 9.81 0 0 1 0-19.62.29.29 0 0 1 .3.3v9.21h9.21a.29.29 0 0 1 .3.3 9.82 9.82 0 0 1-9.81 9.81z" class="cls-1"/>
            <path d="M22.2 10.61h-9.51a.29.29 0 0 1-.3-.3V.8a.29.29 0 0 1 .3-.3 9.82 9.82 0 0 1 9.81 9.81.29.29 0 0 1-.3.3z" class="cls-1"/>
        </g>
    </g>
</svg>
