<svg xmlns="http://www.w3.org/2000/svg" viewBox="0 0 32 32">
    <defs>
        <style>
            .cls-1{fill:#f0f0f0}.cls-2{fill:#0052b4}.cls-3{fill:#d80027}
        </style>
    </defs>
    <g id="Layer_2" data-name="Layer 2">
        <g id="cu">
            <circle cx="16" cy="16" r="16" class="cls-1"/>
            <path d="M16 0A16 16 0 0 0 3.2 6.4h25.6A16 16 0 0 0 16 0zM16 32a16 16 0 0 0 12.8-6.4H3.2A16 16 0 0 0 16 32zM0 16a16 16 0 0 0 .32 3.2h31.36a16.16 16.16 0 0 0 0-6.4H.32A16 16 0 0 0 0 16z" class="cls-2"/>
            <path d="M4.69 4.69a16 16 0 0 0 0 22.62L16 16z" class="cls-3"/>
            <path d="M6.48 11.83l1.03 3.19h3.35l-2.71 1.96 1.04 3.19-2.71-1.97-2.72 1.97 1.04-3.19-2.71-1.96h3.35l1.04-3.19z" class="cls-1"/>
        </g>
    </g>
</svg>
