<svg xmlns="http://www.w3.org/2000/svg" viewBox="0 0 32 32">
    <defs>
        <style>
            .cls-1{fill:#0052b4}.cls-2{fill:#a2001d}.cls-3{fill:#f0f0f0}.cls-4{fill:#6da544}.cls-5{fill:#ffda44}
        </style>
    </defs>
    <g id="Layer_2" data-name="Layer 2">
        <g id="bz">
            <path d="M32 16a16 16 0 0 0-7-13.22l-9-.69-9 .69a16 16 0 0 0 0 26.44l9 .69 9-.69A16 16 0 0 0 32 16z" class="cls-1"/>
            <path d="M25 2.78a16 16 0 0 0-18 0zM7 29.22a16 16 0 0 0 18 0z" class="cls-2"/>
            <circle cx="16" cy="16" r="7.65" class="cls-3"/>
            <circle cx="16" cy="16" r="6.26" class="cls-4"/>
            <circle cx="16" cy="16" r="4.17" class="cls-3"/>
            <path d="M16 14.96L13.74 16v1.74L16 19.13l2.26-1.39V16L16 14.96z" class="cls-1"/>
            <path d="M13.74 13.91h4.52V16h-4.52z" class="cls-5"/>
        </g>
    </g>
</svg>
