<svg xmlns="http://www.w3.org/2000/svg" id="Layer_1" viewBox="0 0 18.5 23">
    <style>
        .st0{fill:none;stroke:#fff;stroke-miterlimit:10}
    </style>
    <g id="Layer_2_1_">
        <g id="Thunder_ADC">
            <g id="Row_1">
                <g id="Alert">
                    <path d="M17.6 19.2H.9c-.2 0-.3-.1-.4-.2-.1-.1-.1-.3 0-.4L2.1 16c.7-1.2 1.1-2.5 1.1-3.8V10c0-3.4 2.7-6.1 6.1-6.1s6.1 2.7 6.1 6.1v2.2c0 1.4.4 2.7 1.1 3.8l1.5 2.5c.1.1.1.3 0 .4-.1.2-.2.3-.4.3z" class="st0"/>
                    <path d="M7.5 4V2.3c0-1 .8-1.8 1.8-1.8s1.7.8 1.7 1.8V4M11.2 19.2c.6 1 .2 2.4-.8 3-1 .6-2.4.2-3-.8-.2-.3-.3-.7-.3-1.1 0-.4.1-.8.3-1.1" class="st0"/>
                </g>
            </g>
        </g>
    </g>
</svg>
