<svg xmlns="http://www.w3.org/2000/svg" id="Layer_1" viewBox="0 0 23 22.2">
    <style>
        .st0{fill:none;stroke:#fff;stroke-linecap:round;stroke-miterlimit:10}.st1{fill:#fff}.st2{fill:none;stroke:#fff;stroke-miterlimit:10}
    </style>
    <g id="Layer_2_1_">
        <g id="Layer_1-2">
            <g id="L4_DoS">
                <path d="M11.6 4.5l2.7-2.8" class="st0"/>
                <path d="M14.7 4.8h-.6l.1-3-3 .2v-.6l3.6-.2z" class="st1"/>
                <path d="M11.6 4.5L7.5.5M17 14.1l1 3.7" class="st0"/>
                <path d="M15.1 16.5l.3-.5 2.5 1.6 1.4-2.6.5.3-1.7 3.2z" class="st1"/>
                <path d="M17 14.1l5.5-1.5M16.8 7.9l3.7 1" class="st0"/>
                <path d="M18 10.8l-.3-.5 2.6-1.4-1.5-2.5.5-.3 1.9 3z" class="st1"/>
                <path d="M16.8 7.9l1.5-5.5M6.2 8.1l-.3-3.9" class="st0"/>
                <path d="M8.5 6l-.4.4-2.2-1.9-1.8 2.3-.5-.4 2.2-2.8z" class="st1"/>
                <path d="M6.2 8.1l-5.7.5M5.7 14.2l-3.5-1.8" class="st0"/>
                <path d="M5.1 11.1l.1.6-2.8.8 1 2.8-.6.2-1.2-3.4z" class="st1"/>
                <path d="M5.7 14.2l-2.6 5.1M11.2 17.6l-2.8 2.8" class="st0"/>
                <path d="M8.1 17.2l.6.1-.1 2.9 3-.1v.6l-3.6.1z" class="st1"/>
                <path d="M11.2 17.6l4 4.1" class="st0"/>
                <circle cx="11.4" cy="11" r="3.6" class="st2"/>
            </g>
        </g>
    </g>
</svg>
