<svg xmlns="http://www.w3.org/2000/svg" id="Layer_1" viewBox="0 0 23 17.4">
    <style>
        .st0,.st1{fill:none;stroke:#fff;stroke-linecap:round}.st0{stroke-miterlimit:10}.st1{stroke-linejoin:round}
    </style>
    <g id="Layer_2_1_">
        <g id="Layer_1-2">
            <g id="deploy">
                <path d="M11.5 10.3v6.6h6.4c2.5 0 4.6-2.1 4.6-4.6 0-2-1.3-3.8-3.2-4.4.2-.4.3-.9.3-1.4 0-1.7-1.4-3.1-3.1-3.1-.6 0-1.1.2-1.6.4-1.5-3-5.2-4.2-8.2-2.7-2.1 1-3.4 3.2-3.3 5.5v.2C.8 8.1-.3 11.3 1 13.9c.9 1.8 2.7 3 4.8 2.9h.8" class="st0"/>
                <path d="M9.3 12.2l2.2-2.3 2.3 2.3" class="st1"/>
            </g>
        </g>
    </g>
</svg>
