<svg xmlns="http://www.w3.org/2000/svg" id="Layer_1" viewBox="0 0 19.9 23">
    <style>
        .st0,.st1{fill:none;stroke:#fff}.st0{stroke-miterlimit:10}.st1{stroke-linecap:round;stroke-linejoin:round}
    </style>
    <g id="Layer_2_1_">
        <g id="Layer_1-2">
            <g id="deploy_all_3">
                <g id="White_Paper">
                    <path d="M16 19.4h2.8c.3 0 .6-.3.6-.6V5.3L14.6.5h-10c-.3 0-.6.3-.6.6v2.5m15.1 1.5h-3.6c-.3 0-.6-.3-.6-.6V.9" class="st0"/>
                    <path d="M16 21.9V8.4l-4.8-4.8h-10c-.3 0-.6.3-.6.6v17.6c0 .3.3.6.6.6h14.2c.3.1.6-.2.6-.5zm-.4-13.7H12c-.3 0-.6-.3-.6-.6V4" class="st0"/>
                </g>
                <path d="M5 19.6h7M5.2 12.3l3.5-3.5 3.5 3.5M8.7 16.8v-8" class="st1"/>
            </g>
        </g>
    </g>
</svg>
