<svg xmlns="http://www.w3.org/2000/svg" viewBox="0 0 18.52 23">
    <defs>
        <style>
            .cls-1{fill:none;stroke:#383838;stroke-miterlimit:10}
        </style>
    </defs>
    <g id="Layer_2" data-name="Layer 2">
        <g id="Thunder_ADC" data-name="Thunder ADC">
            <g id="Row_1" data-name="Row 1">
                <g id="Alert">
                    <path d="M17.58 19.22H.94A.42.42 0 0 1 .56 19a.43.43 0 0 1 0-.44l1.51-2.51a7.49 7.49 0 0 0 1.06-3.83V10a6.13 6.13 0 0 1 12.26 0v2.2a7.4 7.4 0 0 0 1.07 3.83L18 18.56a.46.46 0 0 1 0 .44.44.44 0 0 1-.42.22z" class="cls-1"/>
                    <path d="M7.51 4V2.25a1.75 1.75 0 0 1 3.5 0V4M11.16 19.21a2.19 2.19 0 1 1-4.09 1.1 2.12 2.12 0 0 1 .3-1.1" class="cls-1"/>
                </g>
            </g>
        </g>
    </g>
</svg>
