<svg xmlns="http://www.w3.org/2000/svg" viewBox="0 0 21.66 23.11">
    <defs>
        <style>
            .cls-1,.cls-3{fill:none;stroke:#383838;stroke-miterlimit:10}.cls-1{stroke-linecap:round}.cls-2{font-size:10.33px;fill:#333;font-family:MyriadPro-Regular,Myriad Pro}
        </style>
    </defs>
    <g id="Layer_2" data-name="Layer 2">
        <g id="Row_2" data-name="Row 2">
            <g id="Brute-Force">
                <path d="M15.29 19.15H1.83A1.34 1.34 0 0 1 .5 17.81v-5.08a1.34 1.34 0 0 1 1.33-1.33h18a1.34 1.34 0 0 1 1.33 1.33v1.2" class="cls-1"/>
                <text class="cls-2" transform="translate(1.44 20.52)">
                    *
                </text>
                <text class="cls-2" transform="translate(6.18 20.52)">
                    *
                </text>
                <text class="cls-2" transform="translate(10.92 20.52)">
                    *
                </text>
                <rect width="5.17" height="4.17" x="16" y="14.92" class="cls-3" rx=".57" ry=".57"/>
                <path d="M19.92 15v-.51a1.32 1.32 0 0 0-1.32-1.32 1.32 1.32 0 0 0-1.32 1.32V15M19.2 18v-.87a.62.62 0 0 0 .24-.49.62.62 0 1 0-1.24 0 .63.63 0 0 0 .23.48V18zM3.4 4.61l1.14.07.8-.74.05-1.15-1.53-1.68-.27 1.71-1.73.11L3.4 4.61zM4.67 6.13l2 2.15a1.06 1.06 0 0 0 1.49.07l.64-.59a1.05 1.05 0 0 0 .06-1.48l-2-2.15a1.06 1.06 0 0 0-1.49-.07l-.64.59a1.05 1.05 0 0 0-.06 1.48zM10.91 4.61l1.15.07.8-.74.05-1.15-1.54-1.68-.26 1.71-1.73.11 1.53 1.68zM12.18 6.13l2 2.15a1 1 0 0 0 1.48.07l.64-.59a1 1 0 0 0 .07-1.48l-2-2.15a1 1 0 0 0-1.48-.07l-.64.59a1 1 0 0 0-.07 1.48z" class="cls-3"/>
            </g>
        </g>
    </g>
</svg>
