<svg xmlns="http://www.w3.org/2000/svg" viewBox="0 0 31.9 31.9">
    <defs>
        <style>
            .cls-1{fill:none}.cls-2{fill:#f0f0f0}.cls-3{clip-path:url(#clip-path)}.cls-4{fill:#d80027}
        </style>
        <clipPath id="clip-path" transform="translate(0 -.02)">
            <path d="M0 0h31.93v32H0z" class="cls-1"/>
        </clipPath>
    </defs>
    <g id="Layer_2" data-name="Layer 2">
        <g id="tt">
            <path d="M8.64 1.8a16 16 0 0 0-6.87 6.86L12 19.9l11.26 10.25a16 16 0 0 0 6.87-6.86L19.87 12.05z" class="cls-2" transform="translate(0 -.02)"/>
            <g class="cls-3">
                <path d="M27.23 27.25A16.29 16.29 0 0 0 29 25.12L6.8 2.9a16.38 16.38 0 0 0-3.92 3.93L25.1 29.05a16.38 16.38 0 0 0 2.13-1.8z" transform="translate(0 -.02)"/>
                <path d="M4.67 27.25a15.94 15.94 0 0 0 18.59 2.9L1.77 8.66a16 16 0 0 0 2.9 18.59zM27.23 4.7A15.94 15.94 0 0 0 8.64 1.8l21.49 21.49a16 16 0 0 0-2.9-18.59z" class="cls-4" transform="translate(0 -.02)"/>
            </g>
        </g>
    </g>
</svg>
