<svg xmlns="http://www.w3.org/2000/svg" id="Layer_1" viewBox="0 0 22.5 18.7">
    <style>
        .st0{fill:none;stroke:#fff;stroke-linecap:round;stroke-linejoin:round}
    </style>
    <g id="Layer_2_1_">
        <g id="Hermony_controler">
            <g id="Row_7">
                <g id="Apps_Catalog">
                    <path d="M9.3 5.7V9c0 .2-.2.3-.3.3H5.8M4.1 9.3H.9C.7 9.3.5 9.2.5 9V.9C.5.7.7.5.9.5H9c.2 0 .4.2.4.4v3" class="st0"/>
                    <path d="M9.3 3.9c.2-.2.6-.4.9-.4.7 0 1.3.6 1.3 1.3S10.9 6 10.2 6c-.3 0-.6-.1-.9-.3M4.1 9.3c-.5-.5-.5-1.3 0-1.7s1.3-.5 1.8 0 .5 1.3 0 1.8M5.8 9.4H9c.2 0 .4.2.4.4V13M9.3 14.6v3.2c0 .2-.2.4-.3.4H.9c-.2 0-.4-.2-.4-.4V9.7c0-.2.2-.4.4-.4h3" class="st0"/>
                    <path d="M9.3 14.6c-.5.5-1.3.5-1.8 0s-.5-1.3 0-1.8 1.3-.5 1.8 0M13.5 4.1H22M13.5 14.1H22" class="st0"/>
                </g>
            </g>
        </g>
    </g>
</svg>
