<svg xmlns="http://www.w3.org/2000/svg" viewBox="0 0 32 32">
    <defs>
        <style>
            .cls-1{fill:#f0f0f0}.cls-2{fill:#d80027}.cls-3{fill:#0052b4}
        </style>
    </defs>
    <g id="Layer_2" data-name="Layer 2">
        <g id="no">
            <path d="M32 16A16 16 0 1 1 16 0a16 16 0 0 1 16 16z" class="cls-1"/>
            <path d="M.55 20.17a16 16 0 0 0 5.71 8.52v-8.52zM14.61 31.94c.46 0 .92.06 1.39.06a16 16 0 0 0 15.45-11.83H14.61zM31.45 11.83A16 16 0 0 0 16 0c-.47 0-.93 0-1.39.06v11.77zM6.26 3.31a16 16 0 0 0-5.71 8.52h5.71z" class="cls-2"/>
            <path d="M31.86 13.91H12.52V.38A15.74 15.74 0 0 0 8.35 2v12H.14a15.67 15.67 0 0 0 0 4.18h8.21v12a15.74 15.74 0 0 0 4.17 1.57V18.09h19.34a15.67 15.67 0 0 0 0-4.18z" class="cls-3"/>
        </g>
    </g>
</svg>
