<svg xmlns="http://www.w3.org/2000/svg" viewBox="0 0 31.9 31.9">
    <defs>
        <style>
            .cls-1{fill:none}.cls-2{fill:#f0f0f0}.cls-3{fill:#6da544}.cls-4{fill:#ffda44}.cls-5{clip-path:url(#clip-path)}.cls-6{fill:#d80027}
        </style>
        <clipPath id="clip-path" transform="translate(0 -.02)">
            <path d="M0 0h31.93v32H0z" class="cls-1"/>
        </clipPath>
    </defs>
    <g id="Layer_2" data-name="Layer 2">
        <g id="gy">
            <path d="M31.9 16A16 16 0 1 1 16 0a16 16 0 0 1 16 16z" class="cls-2" transform="translate(0 -.02)"/>
            <path d="M16 0a15.94 15.94 0 0 0-7.82 2v27.91A16 16 0 1 0 16 0z" class="cls-3" transform="translate(0 -.02)"/>
            <path d="M8.23 2a16 16 0 0 0-2.8 2l.27-.22L17.91 16 5.7 28.19 5.43 28a16 16 0 0 0 2.8 2L31.9 16z" class="cls-2" transform="translate(0 -.02)"/>
            <path d="M6.88 2.85c-.48.34-1 .7-1.4 1.09L16 16 5.48 28c.45.39.92.75 1.4 1.09L29.17 16z" class="cls-4" transform="translate(0 -.02)"/>
            <g class="cls-5">
                <path d="M5.7 3.76c-.36.3-.7.61-1 .94L14.56 16 4.67 27.25c.33.33.67.64 1 .94L17.91 16z" transform="translate(0 -.02)"/>
                <path d="M4.67 4.7a15.94 15.94 0 0 0 0 22.55L16 16z" class="cls-6" transform="translate(0 -.02)"/>
            </g>
        </g>
    </g>
</svg>
