<svg xmlns="http://www.w3.org/2000/svg" viewBox="0 0 32 32">
    <defs>
        <style>
            .cls-1{fill:#f0f0f0}.cls-2{fill:#338af3}.cls-3{fill:#ffda44}
        </style>
    </defs>
    <g id="Layer_2" data-name="Layer 2">
        <g id="uy">
            <path d="M32 16A16 16 0 1 1 16 0a16 16 0 0 1 16 16z" class="cls-1"/>
            <path d="M16 11.83h15.45a15.87 15.87 0 0 0-1.8-4.18H16zM6 28.52h20a16 16 0 0 0 3.69-4.17H2.35A16 16 0 0 0 6 28.52zM16 0v3.48h10A15.9 15.9 0 0 0 16 0z" class="cls-2"/>
            <path d="M16 11.83h15.45a15.87 15.87 0 0 0-1.8-4.18H16zM0 16a16 16 0 0 0 .55 4.17h30.9A16 16 0 0 0 32 16z" class="cls-2"/>
            <path d="M13.91 9.36l-1.91.92 1 1.9-2.12-.41-.27 2.14-1.48-1.57-1.48 1.57-.27-2.14-2.12.41 1-1.9-1.91-.92 2-.92-1-1.89L7.38 7l.27-2.15 1.48 1.54 1.48-1.58.27 2.19L13 6.55l-1 1.89z" class="cls-3"/>
        </g>
    </g>
</svg>
