<svg xmlns="http://www.w3.org/2000/svg" id="Layer_1" viewBox="0 0 23 22">
    <style>
        .st0{fill:none;stroke:#fff;stroke-miterlimit:10}.st1{fill:#fff}
    </style>
    <g id="Layer_2_1_">
        <g id="Thunder_ADC">
            <g id="Row_1">
                <g id="Support">
                    <path d="M1.4.5h20.2c.5 0 .9.4.9.9v14.2c0 .5-.4.9-.9.9h-3.9v4.4l-4.8-4.4H1.4c-.5 0-.9-.4-.9-.9V1.4c0-.5.4-.9.9-.9z" class="st0"/>
                    <path d="M11 10.2c0-.3 0-.6.1-.9.1-.3.3-.5.6-.7.3-.3.6-.6.8-1 .2-.3.3-.6.3-1s-.1-.7-.4-1c-.3-.3-.6-.4-1-.4s-.7.1-1 .4c-.2.2-.4.5-.4.9h-.5c0-.5.2-1 .5-1.3.4-.3.9-.5 1.4-.5.5 0 1 .2 1.4.5.4.4.5.9.5 1.4 0 .4-.1.9-.4 1.2-.3.4-.6.8-1 1.1-.2.1-.3.3-.4.5-.1.2-.1.5-.1.7l-.4.1zm.7 2.1H11v-.8h.7v.8z" class="st1"/>
                </g>
            </g>
        </g>
    </g>
</svg>
