<svg xmlns="http://www.w3.org/2000/svg" viewBox="0 0 32 32">
    <defs>
        <style>
            .cls-1{fill:#f0f0f0}.cls-2{fill:#ffda44}.cls-3{fill:#d80027}
        </style>
    </defs>
    <g id="Layer_2" data-name="Layer 2">
        <g id="bn">
            <circle cx="16" cy="16" r="16" class="cls-1"/>
            <path d="M2.14 8a15.89 15.89 0 0 0-1.6 3.89l26.75 15.45A16 16 0 0 0 29.85 24z"/>
            <path d="M24 2.15A16 16 0 0 0 4.71 4.66l26.75 15.45A16 16 0 0 0 24 2.15zM8 29.85a16 16 0 0 0 19.29-2.51L.54 11.89A16 16 0 0 0 8 29.85z" class="cls-2"/>
            <path d="M20.52 14.26a4.52 4.52 0 0 1-9 0 4.45 4.45 0 0 1 .48-2.15 5.56 5.56 0 1 0 8 0 4.57 4.57 0 0 1 .52 2.15z" class="cls-3"/>
            <path d="M14.96 9.04h2.09v10.43h-2.09z" class="cls-3"/>
            <path d="M19.48 11.13h-7a.9.9 0 0 0 .9.87.87.87 0 0 0 .87.87.87.87 0 0 0 .87.87h1.74a.87.87 0 0 0 .87-.87.87.87 0 0 0 .87-.87.9.9 0 0 0 .88-.87zM11.13 20.17h9.74v2.09h-9.74z" class="cls-3"/>
            <path d="M18.09 20.87h4.17v2.09h-4.17zM9.74 20.87h4.17v2.09H9.74z" class="cls-3"/>
        </g>
    </g>
</svg>
