<svg xmlns="http://www.w3.org/2000/svg" viewBox="0 0 32 32">
    <defs>
        <style>
            .cls-1{fill:#338af3}.cls-2{fill:#0052b4}.cls-3{fill:#f0f0f0}.cls-4{fill:#d80027}.cls-5{fill:#ffda44}
        </style>
    </defs>
    <g id="Layer_2" data-name="Layer 2">
        <g id="tv">
            <path d="M32 16a16 16 0 0 1-32 0L16 0a16 16 0 0 1 16 16z" class="cls-1"/>
            <path d="M7.65 16h5.4l-4.7-5.57-.7 2.09zM16 13.05l-5.57-5.4H16z" class="cls-2"/>
            <path d="M16 16zM16 8.35V0A16 16 0 0 0 0 16h8.35v-4.7l4.7 4.7H16v-2.95l-4.7-4.7z" class="cls-3"/>
            <path d="M8.09 2.09a16 16 0 0 0-6 6V16h4.17V6.26H16V2.09z" class="cls-4"/>
            <path d="M16 14l-5.68-5.65h-2L16 16z" class="cls-4"/>
            <path d="M17.46 26.43l.35 1.07h1.12l-.91.65.35 1.07-.91-.66-.9.66.34-1.07-.9-.65h1.12zM26.36 19.48l.35 1.06h1.12l-.91.66.35 1.06-.91-.66-.9.66.34-1.06-.9-.66H26zM28.59 9l.35 1.07h1.12l-.91.65.35 1.07-.91-.66-.9.66.31-1.03-.9-.65h1.12zM29.15 16.7l.34 1.06h1.12l-.91.66.35 1.06-.9-.66-.91.66.35-1.06-.91-.66h1.12zM19.07 23.93l1 .51.79-.79-.17 1.11 1 .5-1.1.18-.18 1.1-.5-1-1.11.17.79-.79zM19.07 19.76l1 .51.79-.79-.17 1.1 1 .51-1.1.17-.18 1.11-.5-1-1.11.18.79-.79zM22.54 22.44l1 .5.79-.79-.18 1.11 1 .5-1.1.18-.18 1.06-.51-1-1.1.17.79-.79zM22.54 13.5l1 .51.79-.79-.18 1.1 1 .51-1.1.17-.18 1.11-.51-1-1.1.18.79-.79zM25.91 13.39l1 .51.79-.79-.17 1.1 1 .51-1.1.18-.19 1.1-.5-1-1.11.18.79-.79z" class="cls-5"/>
        </g>
    </g>
</svg>
