<svg xmlns="http://www.w3.org/2000/svg" viewBox="0 0 32 32">
    <defs>
        <style>
            .cls-1{fill:#f0f0f0}.cls-2{fill:#338af3}
        </style>
    </defs>
    <g id="Layer_2" data-name="Layer 2">
        <g id="hn">
            <path d="M32 16A16 16 0 1 1 16 0a16 16 0 0 1 16 16z" class="cls-1"/>
            <path d="M16 32a16 16 0 0 0 14.41-9H1.59A16 16 0 0 0 16 32zM16 0A16 16 0 0 0 1.59 9h28.82A16 16 0 0 0 16 0zM9.85 10.43l.51 1.6H12l-1.36 1 .52 1.6-1.35-1-1.36 1L9 13l-1.35-1h1.68zM9.85 17.39l.51 1.6H12l-1.36 1 .52 1.6-1.35-1-1.36 1L9 20l-1.35-1h1.68zM22.15 10.43l.52 1.6h1.68L23 13l.52 1.6-1.36-1-1.35 1 .52-1.6L20 12h1.68zM22.15 17.39l.52 1.6h1.68L23 20l.52 1.6-1.36-1-1.35 1 .52-1.6L20 19h1.68zM16 13.91l.52 1.6h1.67l-1.35 1 .52 1.6L16 17.1l-1.36 1 .52-1.6-1.35-1h1.67z" class="cls-2"/>
        </g>
    </g>
</svg>
