<svg xmlns="http://www.w3.org/2000/svg" viewBox="0 0 32 32">
    <defs>
        <style>
            .cls-1{fill:#d80027}.cls-2{fill:#ffda44}
        </style>
    </defs>
    <g id="Layer_2" data-name="Layer 2">
        <g id="AO">
            <path d="M0 16a16 16 0 0 1 32 0c-.7 0-16 2.09-16 2.09z" class="cls-1"/>
            <path d="M32 16a16 16 0 0 1-32 0"/>
            <path d="M13.81 12.73l1.35.98-.51 1.59 1.35-.98 1.36.98-.52-1.59 1.35-.99h-1.67L16 11.13l-.52 1.59-1.67.01z" class="cls-2"/>
            <path d="M20 9.07A8 8 0 0 0 16 8v2.09a5.91 5.91 0 1 1-4.93 9.17l-1.75 1.15A8.11 8.11 0 0 0 12 22.93a8 8 0 0 0 8-13.86z" class="cls-2"/>
            <path d="M11.39 14.61a2.08 2.08 0 0 0 .83 2.83l6.78 3.7a1.69 1.69 0 0 0 .63 2.33l1.83 1a1.74 1.74 0 0 0 2.36-.7l1-1.83z" class="cls-2"/>
        </g>
    </g>
</svg>
