<svg xmlns="http://www.w3.org/2000/svg" viewBox="0 0 32 32">
    <defs>
        <style>
            .cls-1{fill:#f0f0f0}.cls-2{fill:#0052b4}.cls-3{fill:#d80027}
        </style>
    </defs>
    <g id="Layer_2" data-name="Layer 2">
        <g id="np">
            <path d="M32 16A16 16 0 1 1 16 0a16 16 0 0 1 16 16z" class="cls-1"/>
            <path d="M31.91 17.74L14.36.08A16.07 16.07 0 0 0 12 .49C5.12 2.26 0 16 0 16s22.4 15 25 13.26a16.11 16.11 0 0 0 1.46-1.12L16 17.74z" class="cls-2"/>
            <path d="M27.83 16L12.27.44A16 16 0 1 0 25 29.21L11.83 16z" class="cls-3"/>
            <path d="M15.22 23.62l-2-.91 1-1.9-2.12.41-.27-2.14-1.48 1.57L9 19.08l-.27 2.14-2.12-.41 1 1.9-2 .91 2 .92-1 1.9L8.69 26 9 28.17l1.47-1.57 1.48 1.57.23-2.17 2.12.41-1-1.9zM13.91 8.87l-1.42-.66.76-1.38-1.54.29-.2-1.55-1.08 1.14-1.07-1.14-.2 1.55-1.54-.29.76 1.38L7 8.87l3.47.7zM14.61 8.87a4.18 4.18 0 1 1-8.35 0" class="cls-1"/>
        </g>
    </g>
</svg>
