<svg xmlns="http://www.w3.org/2000/svg" viewBox="0 0 32 32">
    <defs>
        <style>
            .cls-1{fill:#0052b4}.cls-2{fill:#ffda44}.cls-3{fill:#f0f0f0}
        </style>
    </defs>
    <g id="Layer_2" data-name="Layer 2">
        <g id="nr">
            <path d="M32 16A16 16 0 1 1 16 0a16 16 0 0 1 16 16z" class="cls-1"/>
            <path d="M32 16A16 16 0 1 1 16 0a16 16 0 0 1 16 16z" class="cls-2"/>
            <path d="M16 0A16 16 0 0 0 .06 14.61h31.88A16 16 0 0 0 16 0zM16 32a16 16 0 0 0 15.94-14.61H.06A16 16 0 0 0 16 32z" class="cls-1"/>
            <path d="M13.22 21.57l-1.8.84 1 1.73-2-.37-.24 2-1.35-1.48-1.36 1.45-.24-2-1.95.37 1-1.73-1.79-.84 1.8-.85L5.28 19l2 .37.24-2 1.36 1.45 1.36-1.45.24 2 2-.37-1 1.73z" class="cls-3"/>
        </g>
    </g>
</svg>
