<svg xmlns="http://www.w3.org/2000/svg" id="Layer_1" viewBox="0 0 22 22">
    <style>
        .st0{display:none;fill:none;stroke:#383838;stroke-linecap:round;stroke-linejoin:round}.st1{fill:#383838}
    </style>
    <g id="Layer_2_1_">
        <g id="Action_icons">
            <g id="dot_chart">
                <path d="M21.5 21.5H1.4c-.5 0-.9-.4-.9-.9V.5" class="st0"/>
                <path d="M3.6 8.4c.9 0 1.5-.7 1.5-1.5s-.6-1.5-1.5-1.5-1.5.6-1.5 1.5c0 .8.7 1.5 1.5 1.5zm5.1 4.3c.8 0 1.5-.7 1.5-1.5s-.7-1.5-1.5-1.5-1.5.7-1.5 1.5.7 1.5 1.5 1.5zm7.9.4c.8 0 1.5-.7 1.5-1.6 0-.8-.7-1.5-1.6-1.5-.8 0-1.5.7-1.5 1.5 0 .9.7 1.6 1.6 1.6-.1 0-.1 0 0 0zm1.5 3.6c0 .9.7 1.5 1.5 1.5.9 0 1.5-.7 1.5-1.5s-.7-1.5-1.5-1.5-1.5.7-1.5 1.5zm0-11.1c.9 0 1.5-.7 1.5-1.5s-.6-1.5-1.5-1.5-1.5.7-1.5 1.5.6 1.5 1.5 1.5zM3.6 16.7c.9 0 1.5-.7 1.5-1.5s-.7-1.5-1.5-1.5c-.9 0-1.5.7-1.5 1.5s.7 1.5 1.5 1.5zm5.1.8c0 .8.7 1.5 1.5 1.6.8 0 1.5-.7 1.6-1.5 0-.8-.7-1.5-1.5-1.6-.9 0-1.6.7-1.6 1.5zm3.1-9.1c.9 0 1.5-.7 1.5-1.5s-.7-1.5-1.5-1.5c-.9 0-1.5.7-1.5 1.5s.6 1.5 1.5 1.5z" class="st1"/>
            </g>
        </g>
    </g>
</svg>
