<svg xmlns="http://www.w3.org/2000/svg" id="Layer_1" viewBox="0 0 23 13">
    <style>
        .st0{fill:none;stroke:#fff;stroke-linecap:round;stroke-miterlimit:10}.st1{fill:#fff}.st2{font-family:&apos;MyriadPro-Regular&apos;}.st3{font-size:11px}.st4{fill:none;stroke:#fff;stroke-miterlimit:10}
    </style>
    <g id="Layer_2_1_">
        <g id="Hermony_controler">
            <g id="Row_5">
                <g id="Credential">
                    <path d="M16.3 8.8H1.9C1.1 8.8.5 8.2.5 7.4V1.9c0-.8.6-1.4 1.4-1.4h19.2c.8 0 1.4.6 1.4 1.4v1.3" class="st0"/>
                    <text class="st1 st2 st3" transform="translate(1.51 10.22)">
                        *
                    </text>
                    <text class="st1 st2 st3" transform="translate(6.55 10.22)">
                        *
                    </text>
                    <text class="st1 st2 st3" transform="translate(11.59 10.22)">
                        *
                    </text>
                    <path d="M17.6 4.3h4.3c.3 0 .6.3.6.6v3.2c0 .3-.3.6-.6.6h-4.3c-.3 0-.6-.3-.6-.6V4.8c0-.3.3-.5.6-.5zM21.2 4.3v-.5c0-.8-.6-1.4-1.4-1.4-.8 0-1.4.6-1.4 1.4v.5" class="st4"/>
                    <path d="M20.4 7.5v-.9c.2-.1.3-.3.3-.5 0-.4-.3-.7-.7-.7s-.7.3-.7.6c0 .2.1.4.3.5v.9l.8.1z" class="st4"/>
                </g>
            </g>
        </g>
    </g>
</svg>
