<svg xmlns="http://www.w3.org/2000/svg" id="Layer_1" viewBox="0 0 22.2 21.7">
    <style>
        .st0{fill:none;stroke:#fff;stroke-miterlimit:10}
    </style>
    <g id="Layer_2_1_">
        <g id="Thunder_ADC">
            <g id="Row_1">
                <g id="Settings_1">
                    <path d="M21.6 6.5L21 4.1l-2.4 2.3c-.4.4-.9.4-1.3 0l-1.6-1.6c-.4-.4-.4-.9 0-1.3l2.4-2.3-2.4-.7L12.2 4l.5 1.8-.1.2L1.8 16.8c-1 1-1 2.6.1 3.6 1 1 2.6 1 3.6 0L16.2 9.6l.1-.1 1.9.5 3.4-3.5z" class="st0"/>
                    <circle cx="3.6" cy="18.6" r="1.3" class="st0"/>
                    <path d="M9.1 7.9L5.8 4.6 5.2 3 1.4.8l-.8.7 2.3 3.9 1.6.6 3.3 3.3M15.9 12l4.3 4.3c1.1 1.1 1.1 2.9 0 4s-2.9 1.1-4 0L11.8 16M14.5 13.3l4.5 4.5M13.2 14.7l4.5 4.5" class="st0"/>
                </g>
            </g>
        </g>
    </g>
</svg>
