<svg xmlns="http://www.w3.org/2000/svg" viewBox="0 0 32 32">
    <defs>
        <style>
            .cls-1{fill:#f0f0f0}.cls-2{fill:#d80027}.cls-3{fill:#0052b4}
        </style>
    </defs>
    <g id="Layer_2" data-name="Layer 2">
        <g id="lr">
            <path d="M32 16A16 16 0 1 1 16 0a16 16 0 0 1 16 16z" class="cls-1"/>
            <path d="M3.66 5.82h24.68a16.06 16.06 0 0 0-3.14-2.91H6.8a16.06 16.06 0 0 0-3.14 2.91zM0 16a13.81 13.81 0 0 0 .07 1.45h31.86a15.05 15.05 0 0 0 0-2.9H.07A13.81 13.81 0 0 0 0 16zM1.74 23.27h28.52a16 16 0 0 0 1.14-2.91H.6a16 16 0 0 0 1.14 2.91zM6.8 29.09h18.4a16.06 16.06 0 0 0 3.14-2.91H3.66a16.06 16.06 0 0 0 3.14 2.91zM.6 11.64h30.8a16 16 0 0 0-1.14-2.91H1.74A16 16 0 0 0 .6 11.64z" class="cls-1"/>
            <path d="M7.65 2.91H25.2A16 16 0 0 0 16 0a16.86 16.86 0 0 0-8.35 2.91zM15.3 8.73h15a16.28 16.28 0 0 0-1.92-2.91h-13zM15.3 14.55h16.63a16.25 16.25 0 0 0-.53-2.91H15.3zM.6 20.36h30.8a16.25 16.25 0 0 0 .53-2.91H.07a16.25 16.25 0 0 0 .53 2.91zM3.66 26.18h24.68a16.28 16.28 0 0 0 1.92-2.91H1.74a16.28 16.28 0 0 0 1.92 2.91zM16 32a16 16 0 0 0 9.2-2.91H6.8A16 16 0 0 0 16 32z" class="cls-2"/>
            <path d="M.6 11.64a16.25 16.25 0 0 0-.53 2.91H16V0A16 16 0 0 0 .6 11.64z" class="cls-3"/>
            <path d="M9.52 4.17l1 3.19h3.35l-2.71 2 1 3.19-2.72-2-2.71 2 1-3.19-2.71-2h3.47z" class="cls-1"/>
        </g>
    </g>
</svg>
