<svg xmlns="http://www.w3.org/2000/svg" id="Layer_1" viewBox="0 0 23 20.5">
    <style>
        .st0,.st1{fill:none;stroke:#fff;stroke-miterlimit:10}.st1{stroke-dasharray:2.07,2.07}.st2{fill:#fff}.st3{fill:none;stroke:#fff;stroke-miterlimit:10;stroke-dasharray:2.12,3.19}
    </style>
    <g id="Layer_2_1_">
        <g id="Thunder_ADC">
            <g id="Row_3">
                <g id="Change_working_version">
                    <circle cx="2.5" cy="14.1" r="2" class="st0"/>
                    <path d="M22.5 6.5c0 1.1-.9 2-2 2s-2-.9-2-2 .9-2 2-2 2 .9 2 2z" class="st1"/>
                    <path d="M1.3 9.4l7.4-7.1s4.9-4.3 9.8.3" class="st0"/>
                    <path d="M6.6 10.1v-1l-5 .1.3-5h-1l-.3 6z" class="st2"/>
                    <path d="M21.4 11.1l-.7.7" class="st0"/>
                    <path d="M18.4 14L14 18.2s-3.6 3.1-7.7 1.1" class="st3"/>
                    <path d="M4.9 18.5c-.3-.2-.5-.4-.8-.6" class="st0"/>
                    <path d="M16.2 10.4v1h4.9l-.2 4.9h1l.3-6z" class="st2"/>
                </g>
            </g>
        </g>
    </g>
</svg>
