<svg xmlns="http://www.w3.org/2000/svg" viewBox="0 0 32 32">
    <defs>
        <style>
            .cls-1{fill:#f0f0f0}.cls-2{fill:#d80027}.cls-3{fill:#ff9811}
        </style>
    </defs>
    <g id="Layer_2" data-name="Layer 2">
        <g id="eg">
            <path d="M32 16A16 16 0 1 1 16 0a16 16 0 0 1 16 16z" class="cls-1"/>
            <path d="M16 0A16 16 0 0 0 1 10.43h30A16 16 0 0 0 16 0z" class="cls-2"/>
            <path d="M16 32a16 16 0 0 0 15-10.43H1A16 16 0 0 0 16 32z"/>
            <path d="M21.57 14.26h-4.18a1.39 1.39 0 1 0-2.78 0h-4.18a1.43 1.43 0 0 0 1.44 1.39A1.39 1.39 0 0 0 13.22 17a1.39 1.39 0 0 0 1.39 1.39h2.78A1.39 1.39 0 0 0 18.78 17a1.39 1.39 0 0 0 1.39-1.39 1.43 1.43 0 0 0 1.44-1.39z" class="cls-3"/>
        </g>
    </g>
</svg>
