<svg xmlns="http://www.w3.org/2000/svg" viewBox="0 0 32 32">
    <defs>
        <style>
            .cls-1{fill:#0052b4}.cls-2{fill:#d80027}.cls-3{fill:#f0f0f0}.cls-4{fill:#ffda44}
        </style>
    </defs>
    <g id="Layer_2" data-name="Layer 2">
        <g id="ve">
            <path d="M30.41 23a16 16 0 0 0 0-14L16 7.65 1.59 9a16 16 0 0 0 0 14L16 24.35z" class="cls-1"/>
            <path d="M16 32a16 16 0 0 0 14.41-9H1.59A16 16 0 0 0 16 32z" class="cls-2"/>
            <path d="M27.71 19.14l-.84.66.36 1-.89-.6-.84.66.29-1-.89-.6h1.08l.29-1 .37 1zM25.55 15.39l-.55.91.69.82-1-.26-.57.91L24 16.7l-1-.26 1-.4-.14-1.04.69.82zM22.23 12.61L22 13.66l.93.54-1.07.11-.22 1-.44-1-1.07.11.8-.72-.44-1 .93.54zM18.16 11.13l.15 1.06 1.06.19-1 .47.14 1.06-.74-.77-1 .47.5-.95-.75-.77 1.06.19zM13.84 11.13l.5.95 1.06-.19-.75.77.5.95-1-.47-.74.77.14-1.06-1-.47 1.06-.19zM9.77 12.61l.8.72.92-.54-.43 1 .8.72-1.07-.11-.44 1-.22-1-1.07-.2.93-.54zM6.45 15.39l1 .4.69-.79-.08 1 1 .4-1.06.3-.08 1.07-.57-.91-1 .26.65-.82zM4.29 19.14h1.07l.37-1 .29 1H7.1l-.89.6.29 1-.84-.66-.89.6.36-1z" class="cls-3"/>
            <path d="M30.41 9A16 16 0 0 0 1.59 9z" class="cls-4"/>
        </g>
    </g>
</svg>
