<svg xmlns="http://www.w3.org/2000/svg" viewBox="0 0 32 32">
    <defs>
        <style>
            .cls-1{fill:#6da544}.cls-2{fill:#d80027}.cls-3{fill:#ffda44}.cls-4{fill:#f0f0f0}
        </style>
    </defs>
    <g id="Layer_2" data-name="Layer 2">
        <g id="pt">
            <path d="M0 16a16 16 0 0 0 10.43 15l1.4-15-1.4-15A16 16 0 0 0 0 16z" class="cls-1"/>
            <path d="M32 16A16 16 0 0 0 10.43 1v30A16 16 0 0 0 32 16z" class="cls-2"/>
            <path d="M16 16a5.57 5.57 0 1 1-5.57-5.57A5.57 5.57 0 0 1 16 16z" class="cls-3"/>
            <path d="M7.3 13.22v3.48a3.14 3.14 0 0 0 6.27 0v-3.48z" class="cls-2"/>
            <path d="M10.43 17.74a1 1 0 0 1-1-1V15.3h2.09v1.4a1 1 0 0 1-1.05 1z" class="cls-4"/>
        </g>
    </g>
</svg>
