<svg xmlns="http://www.w3.org/2000/svg" id="Layer_1" viewBox="0 0 23 23">
    <style>
        .st0{fill:none;stroke:#fff;stroke-miterlimit:10}
    </style>
    <g id="Layer_2_1_">
        <g id="Action_icons">
            <path d="M10.3 22.5c-5.4 0-9.8-4.4-9.8-9.8s4.4-9.8 9.8-9.8c.2 0 .3.1.3.3v9.2h9.2c.2 0 .3.1.3.3 0 5.4-4.4 9.8-9.8 9.8z" class="st0"/>
            <path d="M22.2 10.6h-9.5c-.2 0-.3-.1-.3-.3V.8c0-.2.1-.3.3-.3 5.4 0 9.8 4.4 9.8 9.8 0 .2-.1.3-.3.3z" class="st0"/>
        </g>
    </g>
</svg>
