<svg xmlns="http://www.w3.org/2000/svg" viewBox="0 0 31.9 31.9">
    <defs>
        <style>
            .cls-1{fill:none}.cls-2{fill:#f0f0f0}.cls-3{clip-path:url(#clip-path)}.cls-4{fill:#6da544}.cls-5{fill:#d80027}
        </style>
        <clipPath id="clip-path" transform="translate(0 -.02)">
            <path d="M0 0h31.93v32H0z" class="cls-1"/>
        </clipPath>
    </defs>
    <g id="Layer_2" data-name="Layer 2">
        <g id="jo">
            <path d="M31.9 16A16 16 0 1 1 16 0a16 16 0 0 1 16 16z" class="cls-2" transform="translate(0 -.02)"/>
            <path d="M9.71 10.43h21.2A15.95 15.95 0 0 0 4.67 4.7z" transform="translate(0 -.02)"/>
            <g class="cls-3">
                <path d="M9.71 21.52h21.2a15.95 15.95 0 0 1-26.24 5.73z" class="cls-4" transform="translate(0 -.02)"/>
                <path d="M4.67 4.7a15.94 15.94 0 0 0 0 22.55L16 16z" class="cls-5" transform="translate(0 -.02)"/>
            </g>
            <path d="M6.33 12.51l.88 1.83 2-.46-.91 1.83L9.89 17l-2 .44v2l-1.56-1.27-1.58 1.27v-2l-2-.44 1.59-1.26-.88-1.83 2 .46z" class="cls-2" transform="translate(0 -.02)"/>
        </g>
    </g>
</svg>
