<svg xmlns="http://www.w3.org/2000/svg" viewBox="0 0 32 32">
    <defs>
        <style>
            .cls-1{fill:#f0f0f0}.cls-2{fill:#d80027}
        </style>
    </defs>
    <g id="Layer_2" data-name="Layer 2">
        <g id="sg">
            <path d="M32 16A16 16 0 1 1 16 0a16 16 0 0 1 16 16z" class="cls-1"/>
            <path d="M0 16a16 16 0 0 1 32 0" class="cls-2"/>
            <path d="M9.74 8.35a4.88 4.88 0 0 1 3.83-4.76 5.19 5.19 0 0 0-1.05-.11 4.87 4.87 0 0 0 0 9.74 4.57 4.57 0 0 0 1.05-.12 4.86 4.86 0 0 1-3.83-4.75zM16 3.83l.35 1.06h1.11l-.9.66.34 1.06L16 6l-.9.66.34-1.06-.9-.66h1.11z" class="cls-1"/>
            <path d="M13.29 5.91L13.63 7h1.12l-.9.65.34 1.07-.9-.72-.91.66.35-1.07-.9-.59h1.11zM18.71 5.91L19.06 7h1.11l-.9.65.35 1.07-.91-.72-.9.66.34-1.07-.9-.59h1.12zM17.67 9l.33 1.11h1.12l-.9.65.34 1.07-.9-.66-.91.66.35-1.07-.91-.65h1.12zM14.33 9l.35 1.07h1.12l-.91.65.35 1.07-.91-.66-.9.66.34-1.07-.9-.65H14z" class="cls-1"/>
        </g>
    </g>
</svg>
