<svg xmlns="http://www.w3.org/2000/svg" viewBox="0 0 31.9 31.9">
    <defs>
        <style>
            .cls-1{fill:none}.cls-2{fill:#ffda44}.cls-3{clip-path:url(#clip-path)}.cls-4{fill:#d80027}.cls-5{fill:#f0f0f0}
        </style>
        <clipPath id="clip-path" transform="translate(0 -.02)">
            <path d="M0 0h31.93v32H0z" class="cls-1"/>
        </clipPath>
    </defs>
    <g id="Layer_2" data-name="Layer 2">
        <g id="tl">
            <path d="M31.9 16A16 16 0 1 1 16 0a16 16 0 0 1 16 16z" class="cls-2" transform="translate(0 -.02)"/>
            <g class="cls-3">
                <path d="M16 0A15.88 15.88 0 0 0 5.7 3.76L22.89 16 5.7 28.19A15.95 15.95 0 1 0 16 0z" class="cls-4" transform="translate(0 -.02)"/>
                <path d="M4.67 4.7a15.94 15.94 0 0 0 0 22.55L16 16z" transform="translate(0 -.02)"/>
            </g>
            <path d="M4.42 12.32l2.43 2.3L9.78 13l-1.43 3 2.43 2.3-3.32-.4L6 20.92l-.61-3.28-3.29-.43 2.9-1.6z" class="cls-5" transform="translate(0 -.02)"/>
        </g>
    </g>
</svg>
