<svg xmlns="http://www.w3.org/2000/svg" viewBox="0 0 32 32">
    <defs>
        <style>
            .cls-1{fill:#f0f0f0}.cls-2{fill:#d80027}.cls-3{fill:#ffda44}
        </style>
    </defs>
    <g id="Layer_2" data-name="Layer 2">
        <g id="je">
            <path d="M32 16A16 16 0 1 1 16 0a16 16 0 0 1 16 16z" class="cls-1"/>
            <path d="M28.69 25.74L19 16l9.74-9.74a16.26 16.26 0 0 0-3-2.95L16 13.05 6.26 3.31a16.26 16.26 0 0 0-2.95 2.95L13.05 16l-9.74 9.74a16.26 16.26 0 0 0 2.95 3L16 19l9.74 9.74a16.26 16.26 0 0 0 3-3z" class="cls-2"/>
            <path d="M13.22 4.87l2.78.7 2.78-.7V2.5l-1.11.56L16 1.39l-1.67 1.67-1.11-.56z" class="cls-3"/>
            <path d="M13.22 4.87v1.74c0 2.13 2.78 2.78 2.78 2.78s2.78-.65 2.78-2.78V4.87z" class="cls-2"/>
        </g>
    </g>
</svg>
