<?xml version="1.0" encoding="utf-8"?>
<!-- Generator: Adobe Illustrator 22.1.0, SVG Export Plug-In . SVG Version: 6.00 Build 0)  -->
<svg version="1.1" id="Layer_1"
  xmlns="http://www.w3.org/2000/svg"
  xmlns:xlink="http://www.w3.org/1999/xlink" x="0px" y="0px" viewBox="0 0 22 22" style="enable-background:new 0 0 22 22;" xml:space="preserve">
  <style type="text/css">
	.st0{fill:none;stroke:#383838;stroke-miterlimit:10;}
  </style>
  <title>World map</title>
  <g id="Layer_2_1_">
    <g id="Action_icons">
      <path id="World_map" class="st0" d="M11,0.5C6.8,0.5,3,3,1.4,6.9l0,0L1.3,7.1c-2.2,5.4,0.4,11.5,5.8,13.7s11.5-0.4,13.7-5.8
			S20.3,3.4,14.9,1.3C13.7,0.8,12.4,0.5,11,0.5z M19.2,16.3l-0.5-0.5v-1.3c0-0.1,0-0.1,0-0.2l-1.4-2.7v-1.3c0-0.1-0.1-0.2-0.2-0.3
			l-1-0.7c-0.1-0.1-0.2-0.1-0.3-0.1l-1.3,0.3l-2.2-0.9l-0.3-2.1l0.8-0.8h1.8l0.6,0.9c0.1,0.1,0.1,0.1,0.2,0.2l2.1,0.3
			c0.1,0,0.1,0,0.2,0l1.9-0.6C21.3,9.6,21.1,13.3,19.2,16.3z M17.8,4l-0.6,0.4L15.6,4l-1-0.3c-0.1,0-0.1,0-0.2,0L13.1,4l-0.6-0.2
			L13,3h1.2c0.1,0,0.1,0,0.2,0l1.2-0.6C16.4,2.8,17.1,3.4,17.8,4z M7.2,2L8,2.5c0,0,0.1,0,0.1,0.1l1.7,0.3L9.7,3.4L8.8,3.7
			c-0.1,0-0.1,0.1-0.2,0.2l-1,1.7L6,6.5L3.6,6.8C3.4,6.8,3.3,7,3.3,7.2v1c0,0.1,0,0.2,0.1,0.3L4,9v0.6l-1.5-1L2,7.1
			C3,4.8,4.9,3,7.2,2z M6.2,13.5l-1.6-0.3L4,12v-0.8l1.3-1.3l0.5,1C5.8,11,6,11.1,6.1,11.1h2.3l1,1.6c0.1,0.1,0.2,0.2,0.3,0.2h1
			L10.3,14L9,15.3c-0.1,0.1-0.1,0.2-0.1,0.3v0.9l-1.3,1c-0.1,0.1-0.1,0.2-0.1,0.3v1.3l-0.4-0.1l-0.6-1.5v-3.4
			C6.4,13.6,6.3,13.5,6.2,13.5L6.2,13.5z"/>
    </g>
  </g>
</svg>
