<svg xmlns="http://www.w3.org/2000/svg" viewBox="0 0 32 32">
    <defs>
        <style>
            .cls-1{fill:#f0f0f0}.cls-2{fill:#0052b4}.cls-3{fill:#d80027}.cls-4{fill:#ffda44}
        </style>
    </defs>
    <g id="Layer_2" data-name="Layer 2">
        <g id="rs">
            <path d="M32 16A16 16 0 1 1 16 0a16 16 0 0 1 16 16z" class="cls-1"/>
            <path d="M16 0A16 16 0 0 0 1 21.57h30A16 16 0 0 0 16 0z" class="cls-2"/>
            <path d="M16 0A16 16 0 0 0 1 10.43h30A16 16 0 0 0 16 0z" class="cls-3"/>
            <path d="M4.14 9v8c0 4.54 5.93 5.93 5.93 5.93S16 21.57 16 17V9z" class="cls-3"/>
            <path d="M6.59 10.43h7V7.65l-1.39.7-2.13-2.09L8 8.35l-1.39-.7zM14.61 18.14l-4.52-4.53-4.52 4.53L7 19.61l3.05-3 3 3z" class="cls-4"/>
            <path d="M14.61 13.91H12.5a1.35 1.35 0 0 0 .19-.69 1.39 1.39 0 0 0-1.39-1.39 1.37 1.37 0 0 0-1.23.73 1.39 1.39 0 0 0-2.62.66 1.35 1.35 0 0 0 .19.69H5.57A1.42 1.42 0 0 0 7 15.3a1.4 1.4 0 0 0 1.39 1.4 1.39 1.39 0 0 0 1.13 1.36l-1.13 2.48a4.52 4.52 0 0 0 1.7.33 4.59 4.59 0 0 0 1.7-.33l-1.1-2.48a1.38 1.38 0 0 0 1.14-1.36 1.4 1.4 0 0 0 1.39-1.4h-.05a1.43 1.43 0 0 0 1.44-1.39z" class="cls-1"/>
        </g>
    </g>
</svg>
