<svg xmlns="http://www.w3.org/2000/svg" viewBox="0 0 32 32">
    <defs>
        <style>
            .cls-1{fill:#f0f0f0}.cls-2{fill:#496e2d}.cls-3{fill:#a2001d}
        </style>
    </defs>
    <g id="Layer_2" data-name="Layer 2">
        <g id="ke">
            <path d="M32 16A16 16 0 1 1 16 0a16 16 0 0 1 16 16z" class="cls-1"/>
            <path d="M16 0A16 16 0 0 0 1.59 9h28.82A16 16 0 0 0 16 0z"/>
            <path d="M16 32a16 16 0 0 1-14.41-9h28.82A16 16 0 0 1 16 32z" class="cls-2"/>
            <path d="M31.24 11.13H.76a16 16 0 0 0 0 9.74h30.48a16 16 0 0 0 0-9.74z" class="cls-3"/>
            <path d="M21 7.39l-1.89-.87-3.09 7-3.09-7-1.93.87L14.85 16 11 24.61l1.89.87 3.09-7 3.09 7 1.93-.87L17.15 16z" class="cls-1"/>
            <path d="M17.29 8.22A15.62 15.62 0 0 0 16 7a15.62 15.62 0 0 0-1.29 1.26v15.52A15.62 15.62 0 0 0 16 25a15.62 15.62 0 0 0 1.29-1.26z" class="cls-1"/>
            <path d="M12.52 11.2v9.6A16.86 16.86 0 0 0 15 24V8a16.86 16.86 0 0 0-2.44 3.24zM19.48 11.2A16.86 16.86 0 0 0 17 8v16a16.86 16.86 0 0 0 2.44-3.24z" class="cls-3"/>
            <path d="M19.48 11.2v9.6a9.92 9.92 0 0 0 1.39-4.8 9.92 9.92 0 0 0-1.39-4.8zM12.52 11.2v9.6a9.92 9.92 0 0 1-1.39-4.8 9.92 9.92 0 0 1 1.39-4.8z"/>
        </g>
    </g>
</svg>
