<svg xmlns="http://www.w3.org/2000/svg" id="Layer_1" viewBox="0 0 19.1 23">
    <style>
        .st0{fill:none;stroke:#fff;stroke-miterlimit:10}.st1{fill:#fff}.st2{font-family:&apos;MyriadPro-Regular&apos;}.st3{font-size:4.58px}.st4{letter-spacing:1}
    </style>
    <g id="Layer_2_1_">
        <g id="Hermony_controler">
            <g id="Row_6">
                <g id="SSL_Certificate">
                    <path d="M.5 1.2v15.7l5.6 5.6h11.7c.4 0 .7-.3.7-.7V1.2c0-.4-.3-.7-.7-.7H1.2C.8.5.5.8.5 1.2zm.4 16h4.4c.3 0 .5.2.5.5v4.4M3.3 8.6h6.1M3.3 11.8h6M3.3 14.9h6" class="st0"/>
                    <path d="M11.6 14.7v6.6l2.2-3 2.1 3v-6.6zM13.8 8.3c-1.3 0-2.3 1-2.3 2.3s1 2.3 2.3 2.3 2.3-1 2.3-2.3c0-1.3-1-2.3-2.3-2.3" class="st0"/>
                    <text class="st1 st2 st3 st4" transform="translate(3.59 5.68)">
                        SSL
                    </text>
                </g>
            </g>
        </g>
    </g>
</svg>
