<svg xmlns="http://www.w3.org/2000/svg" viewBox="0 0 22.69 22.59">
    <defs>
        <style>
            .cls-1{fill:none;stroke:#383838;stroke-linecap:round;stroke-linejoin:round}.cls-2{fill:#383838}
        </style>
    </defs>
    <g id="Layer_2" data-name="Layer 2">
        <g id="Thunder_ADC" data-name="Thunder ADC">
            <g id="Row_4" data-name="Row 4">
                <g id="Recycle">
                    <path d="M10.36 18.5H2.5a.83.83 0 0 1-.72-1.25l3.44-5.57" class="cls-1"/>
                    <path d="M6.96 16.64l-.98.2L5.02 12 .27 13.32 0 12.35l5.79-1.6 1.17 5.89z" class="cls-2"/>
                    <path d="M19.11 11.44l3 5.81c.32.56-.08 1.25-1.41 1.25H14" class="cls-1"/>
                    <path d="M17.33 14.41l.68.73-3.61 3.36 3.61 3.36-.68.73-4.4-4.09 4.4-4.09z" class="cls-2"/>
                    <path d="M6.58 8.64L11.22.92a.83.83 0 0 1 1.44 0l4.77 7.53" class="cls-1"/>
                    <path d="M12.2 7.84l.25-.97 4.77 1.26.9-4.85.99.18L18 9.37l-5.8-1.53z" class="cls-2"/>
                </g>
            </g>
        </g>
    </g>
</svg>
