<svg xmlns="http://www.w3.org/2000/svg" viewBox="0 0 18.08 22">
    <defs>
        <style>
            .cls-1{fill:none;stroke:#383838;stroke-miterlimit:10}
        </style>
    </defs>
    <g id="Layer_2" data-name="Layer 2">
        <g id="Action_icons" data-name="Action icons">
            <g id="profile">
                <path d="M8.25.5a3.93 3.93 0 0 0-3.89 3.9 33.93 33.93 0 0 0 .54 4 3.46 3.46 0 0 0 6.71 0 33.93 33.93 0 0 0 .54-4A3.93 3.93 0 0 0 8.25.5zM13.65 12.54a5.07 5.07 0 0 0-2.42-.86 3.9 3.9 0 0 1-6 0 5.05 5.05 0 0 0-4.77 5v3.92a.87.87 0 0 0 .88.88h9.71M13.65 18.67a1.1 1.1 0 1 1 1.09-1.1 1.1 1.1 0 0 1-1.09 1.1z" class="cls-1"/>
                <path d="M14.12 21.5h-.95a.14.14 0 0 1-.14-.14v-.86a2.84 2.84 0 0 1-1-.41l-.6.6a.15.15 0 0 1-.2 0l-.7-.69a.15.15 0 0 1 0-.2l.61-.6a2.69 2.69 0 0 1-.42-1h-.86a.14.14 0 0 1-.14-.14v-.96a.15.15 0 0 1 .14-.1h.86a2.87 2.87 0 0 1 .41-1l-.6-.61a.15.15 0 0 1 0-.2l.68-.67a.13.13 0 0 1 .2 0l.6.6a3.06 3.06 0 0 1 1-.42v-.85a.14.14 0 0 1 .14-.14h.95a.15.15 0 0 1 .15.14v.85a3.09 3.09 0 0 1 1 .42l.61-.6a.13.13 0 0 1 .2 0l.67.67a.13.13 0 0 1 0 .2l-.6.61a3.09 3.09 0 0 1 .42 1h.85a.15.15 0 0 1 .15.15v.95a.15.15 0 0 1-.15.14h-.85a3.06 3.06 0 0 1-.42 1l.6.6a.13.13 0 0 1 0 .2l-.67.68a.15.15 0 0 1-.2 0l-.61-.61a2.71 2.71 0 0 1-1 .42v.86a.15.15 0 0 1-.13.11z" class="cls-1"/>
            </g>
        </g>
    </g>
</svg>
