<svg xmlns="http://www.w3.org/2000/svg" viewBox="0 0 31.9 31.9">
    <defs>
        <style>
            .cls-1{fill:none}.cls-2{fill:#ffda44}.cls-3{clip-path:url(#clip-path)}.cls-4{fill:#6da544}.cls-5{fill:#338af3}
        </style>
        <clipPath id="clip-path" transform="translate(0 -.02)">
            <path d="M0 0h31.93v32H0z" class="cls-1"/>
        </clipPath>
    </defs>
    <g id="Layer_2" data-name="Layer 2">
        <g id="tz">
            <path d="M31.9 16A16 16 0 1 1 16 0a16 16 0 0 1 16 16z" class="cls-2" transform="translate(0 -.02)"/>
            <g class="cls-3">
                <path d="M4.67 27.25A15.55 15.55 0 0 0 6.8 29L29 6.83a16.29 16.29 0 0 0-1.77-2.13 15.55 15.55 0 0 0-2.13-1.79L2.88 25.12a16.29 16.29 0 0 0 1.79 2.13z" transform="translate(0 -.02)"/>
                <path d="M4.67 4.7a16 16 0 0 0-2.9 18.59L23.26 1.8A15.94 15.94 0 0 0 4.67 4.7z" class="cls-4" transform="translate(0 -.02)"/>
                <path d="M27.23 27.25a16 16 0 0 0 2.9-18.59L8.64 30.15a15.94 15.94 0 0 0 18.59-2.9z" class="cls-5" transform="translate(0 -.02)"/>
            </g>
        </g>
    </g>
</svg>
