<svg xmlns="http://www.w3.org/2000/svg" viewBox="0 0 32 32">
    <defs>
        <style>
            .cls-1{fill:#fcfcfc}.cls-2{fill:#a2001d}.cls-3{fill:#6da544}
        </style>
    </defs>
    <g id="Layer_2" data-name="Layer 2">
        <g id="by">
            <circle cx="16" cy="16" r="16" class="cls-1"/>
            <path d="M6.61 14.84l-1.74-3.15 1.74-3.11 1.74 3.11-1.74 3.15zM3.13 14.84l-1.74-3.15 1.74-3.11 1.74 3.11-1.74 3.15zM6.61 23.42l-1.74-3.15 1.74-3.11 1.74 3.11-1.74 3.15zM3.13 23.42l-1.74-3.15 1.74-3.11 1.74 3.11-1.74 3.15zM8.35 3.11l-.49-.88A15.87 15.87 0 0 0 5.38 4l1.23 2.26zM6.61 25.74L5.37 28a16.26 16.26 0 0 0 2.47 1.8l.51-.92z" class="cls-2"/>
            <path d="M9.74 20.17v10.56A16 16 0 0 0 31 21.57z" class="cls-3"/>
            <path d="M31 21.57A16 16 0 0 0 16 0a15.91 15.91 0 0 0-6.26 1.27v20.3z" class="cls-2"/>
        </g>
    </g>
</svg>
