<svg xmlns="http://www.w3.org/2000/svg" viewBox="0 0 19.06 23">
    <defs>
        <style>
            .cls-1{fill:none;stroke:#383838;stroke-miterlimit:10}.cls-2{font-size:4.58px;fill:#383838;font-family:MyriadPro-Regular,Myriad Pro;letter-spacing:.32em}
        </style>
    </defs>
    <g id="Layer_2" data-name="Layer 2">
        <g id="Hermony_controler" data-name="Hermony controler">
            <g id="Row_6" data-name="Row 6">
                <g id="SSL_Certificate" data-name="SSL Certificate">
                    <path d="M.5 1.23V16.9l5.6 5.6h11.72a.74.74 0 0 0 .74-.73V1.23a.74.74 0 0 0-.74-.73H1.23a.73.73 0 0 0-.73.73zm.4 16h4.38a.51.51 0 0 1 .51.52v4.37M3.35 8.63h6.1M3.35 11.78h5.97M3.35 14.92h5.97" class="cls-1"/>
                    <path d="M11.65 14.68v6.62l2.15-2.97 2.15 2.97v-6.59l-4.3-.03zM13.8 8.27a2.28 2.28 0 1 0 2.27 2.27 2.28 2.28 0 0 0-2.27-2.27" class="cls-1"/>
                    <text class="cls-2" transform="translate(3.59 5.68)">
                        SSL
                    </text>
                </g>
            </g>
        </g>
    </g>
</svg>
