<svg xmlns="http://www.w3.org/2000/svg" viewBox="0 0 32 32">
    <defs>
        <style>
            .cls-1{fill:#f0f0f0}.cls-2{fill:#0052b4}.cls-3{fill:#d80027}.cls-4{fill:#338af3}
        </style>
    </defs>
    <g id="Layer_2" data-name="Layer 2">
        <g id="hr">
            <path d="M32 16a15.85 15.85 0 0 0-1-5.57l-15-.69-15 .69a16 16 0 0 0 0 11.14l15 .69 15-.69A15.85 15.85 0 0 0 32 16z" class="cls-1"/>
            <path d="M16 32a16 16 0 0 0 15-10.43H1A16 16 0 0 0 16 32z" class="cls-2"/>
            <path d="M1 10.43h30a16 16 0 0 0-30 0z" class="cls-3"/>
            <path d="M20.17 11.13h-2.78l.47-3.48 1.85-1.39 1.86 1.39v2.79l-1.4.69zM11.83 11.13h2.78l-.47-3.48-1.85-1.39-1.85 1.39v2.79l1.39.69z" class="cls-4"/>
            <path d="M17.86 11.13h-3.72V7.65L16 6.26l1.86 1.39v3.48z" class="cls-2"/>
            <path d="M10.43 10.43v7.66a5.57 5.57 0 0 0 2.24 4.46l1-.25 1.23 1.24a5.83 5.83 0 0 0 1.12.11 5.91 5.91 0 0 0 1.12-.11l1.4-1.17.81.17a5.56 5.56 0 0 0 2.24-4.45v-7.66z" class="cls-1"/>
            <path d="M10.43 10.43h2.23v2.23h-2.23zM14.89 10.43h2.23v2.23h-2.23zM19.34 10.43h2.23v2.23h-2.23zM12.66 12.66h2.23v2.23h-2.23zM17.11 12.66h2.23v2.23h-2.23zM10.43 14.89h2.23v2.23h-2.23zM12.66 17.11h2.23v2.23h-2.23zM14.89 14.89h2.23v2.23h-2.23zM19.34 14.89h2.23v2.23h-2.23z" class="cls-3"/>
            <path d="M17.11 17.11h2.23v2.23h-2.23zM14.89 19.34h2.23v2.23h-2.23zM12.66 19.34h-2.08a5.42 5.42 0 0 0 1.08 2.22h1zM19.34 21.56h1a5.42 5.42 0 0 0 1.08-2.22h-2.08zM12.66 21.56v1a5.65 5.65 0 0 0 2.23 1v-2z" class="cls-3"/>
            <path d="M17.11 21.56v2a5.65 5.65 0 0 0 2.23-1v-1z" class="cls-3"/>
        </g>
    </g>
</svg>
