<svg xmlns="http://www.w3.org/2000/svg" viewBox="0 0 32 32">
    <defs>
        <style>
            .cls-1{fill:#d80027}.cls-2{fill:#f0f0f0}
        </style>
    </defs>
    <g id="Layer_2" data-name="Layer 2">
        <g id="hk">
            <path d="M32 16A16 16 0 1 1 16 0a16 16 0 0 1 16 16z" class="cls-1"/>
            <path d="M17.65 12.1c-.36 1.52-1 1.23-1.33 2.55A3.48 3.48 0 0 1 18 7.88c-.63 2.64 0 2.87-.3 4.22zM12.81 13.23c1.32.81.85 1.33 2 2a3.48 3.48 0 1 1-5.93-3.63c2.32 1.41 2.74.86 3.93 1.59zM12.37 18.18c1.19-1 1.54-.4 2.57-1.28a3.48 3.48 0 1 1-5.29 4.52c2.06-1.76 1.67-2.34 2.72-3.24zM17 20.12c-.59-1.43.1-1.58-.42-2.83a3.47 3.47 0 1 1 2.66 6.42c-1-2.5-1.7-2.3-2.24-3.59zM20.22 16.37c-1.56.12-1.48-.58-2.83-.48a3.48 3.48 0 1 1 6.93-.54c-2.7.21-2.72.91-4.1 1z" class="cls-2"/>
        </g>
    </g>
</svg>
