<svg xmlns="http://www.w3.org/2000/svg" viewBox="0 0 22.91 23">
    <defs>
        <style>
            .cls-1,.cls-2{fill:none;stroke:#383838}.cls-1{stroke-miterlimit:10}.cls-2{stroke-linecap:round;stroke-linejoin:round}
        </style>
    </defs>
    <g id="Layer_2" data-name="Layer 2">
        <g id="Layer_1-2" data-name="Layer 1">
            <g id="Task_manager" data-name="Task manager">
                <path d="M14.42 22.27h-13a.91.91 0 0 1-.91-.91V1.41a.91.91 0 0 1 .9-.91h19.92a1 1 0 0 1 .94.67v13" class="cls-1"/>
                <path d="M18.32 19.55a1.14 1.14 0 1 1 1.14-1.14 1.14 1.14 0 0 1-1.14 1.14z" class="cls-1"/>
                <path d="M18.82 22.5h-1a.15.15 0 0 1-.14-.15v-.89a3 3 0 0 1-1.06-.46l-.63.62a.15.15 0 0 1-.21 0l-.7-.7a.15.15 0 0 1 0-.21l.63-.62a3.18 3.18 0 0 1-.44-1.06h-.89a.15.15 0 0 1-.15-.15v-1a.15.15 0 0 1 .15-.15h.89a3.08 3.08 0 0 1 .43-1.06l-.62-.63a.15.15 0 0 1 0-.21l.7-.7a.15.15 0 0 1 .21 0l.62.63a3.15 3.15 0 0 1 1.07-.44v-.89a.15.15 0 0 1 .14-.15h1a.15.15 0 0 1 .14.15v.89a3 3 0 0 1 1.04.48l.63-.63a.15.15 0 0 1 .21 0l.7.7a.15.15 0 0 1 0 .21l-.62.63a3.29 3.29 0 0 1 .43 1.06h.89a.15.15 0 0 1 .15.15v1a.15.15 0 0 1-.15.15h-.89a3 3 0 0 1-.44 1.05l.63.63a.15.15 0 0 1 0 .21l-.7.7a.14.14 0 0 1-.21 0L20 21a3 3 0 0 1-1.06.43v.89a.15.15 0 0 1-.12.18zM8.72 4.36h9.51" class="cls-1"/>
                <path d="M4.22 5.19l-.84-.83M4.22 5.19l1.66-1.67" class="cls-2"/>
                <path d="M8.72 10.95h9.51" class="cls-1"/>
                <path d="M4.22 11.88l-.84-.83M4.22 11.88l1.66-1.67" class="cls-2"/>
                <path d="M8.72 17.22h3.51" class="cls-1"/>
                <path d="M4.22 18.21l-.84-.83M4.22 18.21l1.66-1.66" class="cls-2"/>
            </g>
        </g>
    </g>
</svg>
