<svg xmlns="http://www.w3.org/2000/svg" id="Layer_1" viewBox="0 0 22.9 23">
    <style>
        .st0,.st1{fill:none;stroke:#fff}.st0{stroke-miterlimit:10}.st1{stroke-linecap:round;stroke-linejoin:round}
    </style>
    <g id="Layer_2_1_">
        <g id="Layer_1-2">
            <g id="Task_manager">
                <path d="M14.4 22.3h-13c-.5 0-.9-.4-.9-.9v-20c0-.5.4-.9.9-.9h19.9c.4 0 .8.3.9.7v13" class="st0"/>
                <path d="M18.3 19.5c-.6 0-1.1-.5-1.1-1.1 0-.6.5-1.1 1.1-1.1.6 0 1.1.5 1.1 1.1.1.6-.5 1.1-1.1 1.1z" class="st0"/>
                <path d="M18.8 22.5h-1c-.1 0-.1-.1-.1-.1v-.9c-.4-.1-.7-.2-1.1-.5l-.6.6c-.1.1-.2.1-.2 0l-.7-.7c-.1-.1-.1-.2 0-.2l.6-.6c-.2-.3-.4-.7-.4-1.1h-.9c-.1 0-.1-.1-.1-.1v-1c0-.1.1-.1.1-.1h.9c.1-.4.2-.7.4-1.1l-.6-.7c-.1-.1-.1-.2 0-.2l.7-.7c.1-.1.2-.1.2 0l.6.6c.3-.2.7-.4 1.1-.4v-.9c0-.1.1-.1.1-.1h1c.1 0 .1.1.1.1v.9c.4.1.7.3 1 .5l.6-.6c.1-.1.2-.1.2 0l.7.7c.1.1.1.2 0 .2l-.6.6c.2.3.3.7.4 1.1h.9c.1 0 .1.1.1.1v1c0 .1-.1.1-.1.1h-.9c-.1.4-.2.7-.4 1l.6.6c.1.1.1.2 0 .2l-.7.7c-.1.1-.1.1-.2 0L20 21c-.3.2-.7.4-1.1.4v.9c.1.1 0 .2-.1.2zM8.7 4.4h9.5" class="st0"/>
                <path d="M4.2 5.2l-.8-.8M4.2 5.2l1.7-1.7" class="st1"/>
                <path d="M8.7 10.9h9.5" class="st0"/>
                <path d="M4.2 11.9l-.8-.8M4.2 11.9l1.7-1.7" class="st1"/>
                <path d="M8.7 17.2h3.5" class="st0"/>
                <path d="M4.2 18.2l-.8-.8M4.2 18.2l1.7-1.7" class="st1"/>
            </g>
        </g>
    </g>
</svg>
