<svg xmlns="http://www.w3.org/2000/svg" id="Layer_1" viewBox="0 0 23 23">
    <style>
        .st0,.st1{fill:none;stroke:#fff;stroke-miterlimit:10}.st1{stroke-linecap:round}
    </style>
    <g id="Layer_2_1_">
        <g id="Thunder_ADC">
            <g id="Row_4">
                <g id="Edit_2">
                    <path d="M19.3.5c.3 0 .5 0 .6.1 1.1.4 2 1.3 2.4 2.4.1.1.1.3.1.5v.2c0 .1 0 .1-.1.2l-12.1 12c0 .1-.1.1-.2.1l-3.4.7-.6.1.1-.5.8-3.5s0-.1.1-.1l2.1-2.1L13.7 6 19.2.5h.1z" class="st0"/>
                    <path d="M9.7 2.4H1.3c-.5 0-.8.4-.8.8v18.5c0 .5.4.8.8.8h18.3c.5 0 .8-.4.8-.8v-9.3" class="st1"/>
                </g>
            </g>
        </g>
    </g>
</svg>
