<svg xmlns="http://www.w3.org/2000/svg" id="Layer_1" viewBox="0 0 23 11.3">
    <style>
        .st0{fill:none;stroke:#fff;stroke-miterlimit:10}
    </style>
    <g id="Layer_2_1_">
        <g id="firewall">
            <g id="thunder">
                <path d="M2.6 9.6H1.1c-.3 0-.6-.2-.6-.5V2.4c0-.3.3-.5.6-.5h1.4M20.2 1.9h1.7c.3 0 .6.2.6.5v6.7c0 .3-.3.5-.6.5h-1.7" class="st0"/>
                <path d="M3.3.5h16.3c.3 0 .6.3.6.6v9.1c0 .3-.3.6-.6.6H3.3c-.3 0-.6-.3-.6-.6V1.1c-.1-.3.2-.6.6-.6zM8.1 8.4h3.4M14.4 8.4h3.4" class="st0"/>
                <circle cx="5.4" cy="3" r=".2" class="st0"/>
                <circle cx="5.4" cy="5.6" r=".2" class="st0"/>
                <circle cx="5.4" cy="8.4" r=".2" class="st0"/>
                <path d="M8.1 2.9h3.4v1.7H8.1zM14.4 2.9h3.4v1.7h-3.4z" class="st0"/>
            </g>
        </g>
    </g>
</svg>
