<svg xmlns="http://www.w3.org/2000/svg" viewBox="0 0 22 21.75">
  <defs>
    <style>.cls-1,.cls-2{fill:none;stroke:#fff;stroke-miterlimit:10;}.cls-1{stroke-linecap:round;}</style>
  </defs>
  <title>Policies</title>
  <g id="Layer_2" data-name="Layer 2">
    <g id="Row_1" data-name="Row 1">
      <g id="Policies">
        <path class="cls-1" d="M17.52,10.16V2.26C17.52.72,17.3.5,17,.5H1.2a.7.7,0,0,0-.7.7V16l5.28,5.28h5.88m-10.78-5H5a.49.49,0,0,1,.49.48v4.13"/>
        <line class="cls-2" x1="3.18" y1="4.71" x2="14.3" y2="4.71"/>
        <line class="cls-2" x1="3.18" y1="7.67" x2="14.3" y2="7.67"/>
        <line class="cls-2" x1="3.18" y1="10.64" x2="14.3" y2="10.64"/>
        <path class="cls-2" d="M16.83,17.88a1.3,1.3,0,1,1,1.3-1.3A1.3,1.3,0,0,1,16.83,17.88Z"/>
        <path class="cls-2" d="M17.4,21.25H16.27a.17.17,0,0,1-.17-.17v-1a3.47,3.47,0,0,1-1.21-.49l-.71.71a.16.16,0,0,1-.24,0l-.8-.8a.16.16,0,0,1,0-.24l.71-.71a3.57,3.57,0,0,1-.5-1.21h-1a.17.17,0,0,1-.17-.17V16a.16.16,0,0,1,.17-.17h1a3.49,3.49,0,0,1,.5-1.21l-.72-.72a.17.17,0,0,1,0-.23l.81-.81a.17.17,0,0,1,.23,0l.72.72a3.49,3.49,0,0,1,1.21-.5v-1a.16.16,0,0,1,.17-.17H17.4a.17.17,0,0,1,.17.17v1a3.49,3.49,0,0,1,1.21.5l.71-.72a.18.18,0,0,1,.24,0l.8.81a.15.15,0,0,1,0,.23l-.71.72a3.49,3.49,0,0,1,.5,1.21h1a.17.17,0,0,1,.17.17v1.13a.18.18,0,0,1-.17.17h-1a3.78,3.78,0,0,1-.5,1.21l.71.71a.16.16,0,0,1,0,.24l-.8.8a.16.16,0,0,1-.24,0l-.71-.71a3.47,3.47,0,0,1-1.21.49v1A.18.18,0,0,1,17.4,21.25Z"/>
      </g>
    </g>
  </g>
</svg>