<svg xmlns="http://www.w3.org/2000/svg" viewBox="0 0 32 32">
    <defs>
        <style>
            .cls-1{fill:#0052b4}.cls-2{fill:#f0f0f0}.cls-3{fill:#d80027}
        </style>
    </defs>
    <g id="Layer_2" data-name="Layer 2">
        <g id="ck">
            <path d="M32 16a16 16 0 0 1-32 0L16 0a16 16 0 0 1 16 16z" class="cls-1"/>
            <path d="M16 16zM16 8.35V0A16 16 0 0 0 0 16h8.35v-4.7l4.7 4.7H16v-2.95l-4.7-4.7z" class="cls-2"/>
            <path d="M8.09 2.09a16 16 0 0 0-6 6V16h4.17V6.26H16V2.09z" class="cls-3"/>
            <path d="M16 14l-5.68-5.65h-2L16 16z" class="cls-3"/>
            <path d="M21.57 16l.29.91h.96l-.78.56.3.92-.77-.57-.78.57.3-.92-.78-.56h.96l.3-.91zM17.63 17.63l.85.44.68-.68-.15.94.85.44-.94.15-.15.94-.44-.85-.94.15.68-.68-.44-.85zM16 21.57l.91-.3v-.96l.56.78.92-.3-.57.78.57.77-.92-.3-.56.78v-.96l-.91-.29zM17.63 25.5l.44-.85-.68-.68.94.15.44-.85.15.94.94.15-.85.44.15.94-.68-.67-.85.43zM21.57 27.13l-.3-.91h-.96l.78-.56-.3-.91.78.56.77-.56-.3.91.78.56h-.96l-.29.91zM25.5 25.5l-.85-.43-.68.67.15-.94-.85-.44.94-.15.15-.94.44.85.94-.15-.67.68.43.85zM27.13 21.57l-.91.29v.96l-.56-.78-.91.3.56-.77-.56-.78.91.3.56-.78v.96l.91.3zM25.5 17.63l-.43.85.67.68-.94-.15-.44.85-.15-.94-.94-.15.85-.44-.15-.94.68.68.85-.44z" class="cls-2"/>
        </g>
    </g>
</svg>
