<svg xmlns="http://www.w3.org/2000/svg" viewBox="0 0 32 32">
    <defs>
        <style>
            .cls-1{fill:#0052b4}.cls-2{fill:#6da544}.cls-3{fill:#ffda44}.cls-4{fill:#f0f0f0}
        </style>
    </defs>
    <g id="Layer_2" data-name="Layer 2">
        <g id="cx">
            <path d="M27.31 27.31A16 16 0 0 1 4.69 4.69c.49.49 12.79 9.83 12.79 9.83z" class="cls-1"/>
            <path d="M4.69 4.69a16 16 0 0 1 22.62 22.62" class="cls-2"/>
            <circle cx="16" cy="16" r="4.17" class="cls-3"/>
            <path d="M5.96 22.96l.44.91.99-.23-.45.92.8.63-.99.23v1.01l-.79-.63-.8.63.01-1.01-1-.23.8-.63-.44-.92.99.23.44-.91zM3.09 15.3l.43.92 1-.23-.45.92.8.63-.99.23v1.01l-.79-.63-.8.63v-1.01l-.99-.23.8-.63-.44-.92.99.23.44-.92zM5.96 9.04l.44.92.99-.23-.45.92.8.63-.99.22v1.02l-.79-.64-.8.64.01-1.02-1-.22.8-.63-.44-.92.99.23.44-.92zM9.53 13.91l.43.92 1-.23-.45.92.8.63-.99.22v1.02l-.79-.64-.8.64v-1.02l-.99-.22.8-.63-.44-.92.99.23.44-.92zM6.97 18.09l.35 1.06h1.12l-.91.66.35 1.06-.91-.66-.9.66.35-1.06-.91-.66h1.12l.34-1.06z" class="cls-4"/>
            <path d="M16 18.78h1.39a2.22 2.22 0 0 0 0-2.08l1.39-1.4-.69-1.39h-.7A1.74 1.74 0 0 1 15.65 15a1.74 1.74 0 0 1-1.74-1.05h-.69l.69 1.39-.69 1.4.69.69A1.52 1.52 0 0 1 16 16.7a2.14 2.14 0 0 1 0 2.08z" class="cls-2"/>
            <path d="M26.38 8.76a2.24 2.24 0 0 0 .05-.52 2.77 2.77 0 0 0-1.92-2.65 5.19 5.19 0 0 1 .49 2.3 5.55 5.55 0 0 1-.06.82 3 3 0 0 0-.61-.71A2.86 2.86 0 0 0 21 7.83a5.42 5.42 0 0 1 2.18 1 5.64 5.64 0 0 1 1.26 1.51l-4.25 1.33a10.72 10.72 0 0 0 7.66-2.08 1.43 1.43 0 0 0-1.47-.83z" class="cls-3"/>
        </g>
    </g>
</svg>
