<svg xmlns="http://www.w3.org/2000/svg" viewBox="0 0 31.9 31.9">
    <defs>
        <style>
            .cls-1{fill:none}.cls-2{fill:#ffda44}.cls-3{clip-path:url(#clip-path)}.cls-4{fill:#6da544}.cls-5{fill:#d80027}.cls-6{fill:#f0f0f0}
        </style>
        <clipPath id="clip-path" transform="translate(0 -.03)">
            <path d="M0 0h31.93v32H0z" class="cls-1"/>
        </clipPath>
    </defs>
    <g id="Layer_2" data-name="Layer 2">
        <g id="kn">
            <path d="M31.9 16A16 16 0 1 1 16 0a16 16 0 0 1 16 16z" class="cls-2" transform="translate(0 -.03)"/>
            <g class="cls-3">
                <path d="M4.67 27.25A15.55 15.55 0 0 0 6.8 29L29 6.83a16.29 16.29 0 0 0-1.77-2.13 15.55 15.55 0 0 0-2.13-1.79L2.88 25.12a16.29 16.29 0 0 0 1.79 2.13z" transform="translate(0 -.03)"/>
                <path d="M4.67 4.7a16 16 0 0 0-2.9 18.59L23.26 1.8A15.94 15.94 0 0 0 4.67 4.7z" class="cls-4" transform="translate(0 -.03)"/>
                <path d="M27.23 27.25a16 16 0 0 0 2.9-18.59L8.64 30.15a15.94 15.94 0 0 0 18.59-2.9z" class="cls-5" transform="translate(0 -.03)"/>
            </g>
            <path d="M10.14 18.84l1.49.76 1.18-1.18-.26 1.65 1.49.76-1.65.26-.26 1.65-.76-1.49-1.65.26 1.18-1.18zM18.82 10.17l1.49.76 1.18-1.19-.26 1.65 1.48.76-1.65.26-.26 1.65-.8-1.48-1.65.26 1.19-1.18z" class="cls-6" transform="translate(0 -.03)"/>
        </g>
    </g>
</svg>
