<svg xmlns="http://www.w3.org/2000/svg" viewBox="0 0 22 22">
    <defs>
        <style>
            .cls-1{fill:none;stroke:#000;stroke-miterlimit:10}
        </style>
    </defs>
    <g id="Layer_2" data-name="Layer 2">
        <g id="Action_icons" data-name="Action icons">
            <path id="World_map" d="M11 .5a10.5 10.5 0 0 0-9.65 6.37l-.08.19A10.5 10.5 0 1 0 11 .5zm8.24 15.79l-.54-.54V14.5a.29.29 0 0 0 0-.16l-1.4-2.72V10.3a.34.34 0 0 0-.16-.29l-1.05-.7a.31.31 0 0 0-.28-.05l-1.28.32-2.16-.93-.3-2.08.83-.82h1.76l.6.89a.33.33 0 0 0 .23.15l2.1.35a.33.33 0 0 0 .17 0l1.93-.64a9.77 9.77 0 0 1-.45 9.79zM17.79 4l-.56.38L15.64 4l-1-.34a.31.31 0 0 0-.19 0L13.11 4l-.57-.19L13 3h1.18a.32.32 0 0 0 .16 0l1.21-.6A9.66 9.66 0 0 1 17.79 4zM7.17 2l.83.54a.38.38 0 0 0 .13.06l1.7.28-.17.49-.88.3a.32.32 0 0 0-.19.15l-1 1.67L6 6.46l-2.4.34a.35.35 0 0 0-.3.35v1a.39.39 0 0 0 .1.25L4 9v.6l-1.45-1L2 7.09A9.82 9.82 0 0 1 7.17 2zm-1 11.47l-1.58-.31L4 12v-.83l1.31-1.3.48 1a.35.35 0 0 0 .31.2h2.25l1 1.58a.36.36 0 0 0 .3.17h1L10.33 14 9 15.3a.37.37 0 0 0-.1.25v.87l-1.26.95a.34.34 0 0 0-.14.28v1.26l-.43-.14-.62-1.54V13.8a.36.36 0 0 0-.28-.35z" class="cls-1" data-name="World map"/>
        </g>
    </g>
</svg>
