<svg xmlns="http://www.w3.org/2000/svg" viewBox="0 0 32 32">
    <defs>
        <style>
            .cls-1{fill:#f0f0f0}.cls-2{fill:#0052b4}
        </style>
    </defs>
    <g id="Layer_2" data-name="Layer 2">
        <g id="mq">
            <path d="M32 16A16 16 0 1 1 16 0a16 16 0 0 1 16 16z" class="cls-1"/>
            <path d="M31.86 13.91A16 16 0 0 0 18.09.14v13.77zM13.91.14A16 16 0 0 0 .14 13.91h13.77zM.14 18.09a16 16 0 0 0 13.77 13.77V18.09zM18.09 31.86a16 16 0 0 0 13.77-13.77H18.09z" class="cls-2"/>
            <path d="M21.46 10.15a.38.38 0 0 1 .39-.38h.82a2.37 2.37 0 0 0 0-4.74h-.78a1.66 1.66 0 0 0-1-.31 1.31 1.31 0 0 0-1.43 1.14A1.31 1.31 0 0 0 20.89 7h1.78a.39.39 0 1 1 0 .77h-.82a2.37 2.37 0 0 0 0 4.74H25v-2h-3.15a.39.39 0 0 1-.39-.39zM8.94 10.15a.38.38 0 0 1 .39-.38h.82a2.37 2.37 0 0 0 0-4.74h-.78a1.66 1.66 0 0 0-1-.31A1.31 1.31 0 0 0 7 5.86 1.31 1.31 0 0 0 8.37 7h1.78a.39.39 0 1 1 0 .77h-.82a2.37 2.37 0 0 0 0 4.74h3.19v-2H9.33a.39.39 0 0 1-.39-.39zM21.46 24.91a.38.38 0 0 1 .39-.38h.82a2.37 2.37 0 0 0 0-4.74h-.78a1.66 1.66 0 0 0-1-.31 1.31 1.31 0 0 0-1.43 1.14 1.31 1.31 0 0 0 1.41 1.15h1.78a.39.39 0 0 1 .39.39.38.38 0 0 1-.39.38h-.82a2.37 2.37 0 1 0 0 4.74H25v-2h-3.15a.38.38 0 0 1-.39-.39zM8.94 24.91a.38.38 0 0 1 .39-.38h.82a2.37 2.37 0 0 0 0-4.74h-.78a1.66 1.66 0 0 0-1-.31A1.31 1.31 0 0 0 7 20.62a1.31 1.31 0 0 0 1.41 1.15h1.78a.39.39 0 0 1 .39.39.38.38 0 0 1-.39.38h-.86a2.37 2.37 0 1 0 0 4.74h3.19v-2H9.33a.38.38 0 0 1-.39-.39z" class="cls-1"/>
        </g>
    </g>
</svg>
