<svg xmlns="http://www.w3.org/2000/svg" viewBox="0 0 32 32">
    <defs>
        <style>
            .cls-1{fill:#6da544}.cls-2{fill:#ffda44}.cls-3{fill:#a2001d}
        </style>
    </defs>
    <g id="Layer_2" data-name="Layer 2">
        <g id="cc">
            <circle cx="16" cy="16" r="16" class="cls-1"/>
            <path d="M24.56 22.96l.44.92.99-.24-.44.92.79.63-.99.23.01 1.01-.8-.63-.79.63v-1.01l-.99-.23.79-.63-.44-.92.99.24.44-.92zM20.48 13.22l.44.91.99-.22-.45.91.8.63-.99.23v1.02l-.79-.64-.8.64.01-1.02-1-.23.8-.63-.44-.91.99.22.44-.91zM24.56 7.65l.44.92.99-.23-.44.92.79.63-.99.22.01 1.02-.8-.64-.79.64v-1.02l-.99-.22.79-.63-.44-.92.99.23.44-.92zM28.13 11.83l.44.91.99-.22-.44.91.79.63-.99.23v1.01l-.79-.63-.79.63v-1.01l-1-.23.8-.63-.44-.91.99.22.44-.91zM25.58 16.7l.34 1.06h1.12l-.9.65.34 1.07-.9-.66-.91.66.35-1.07-.91-.65h1.12l.35-1.06z" class="cls-2"/>
            <path d="M17.74 20.52a4.52 4.52 0 0 1 0-9 4.57 4.57 0 0 1 2.15.54 5.57 5.57 0 1 0 0 8 4.57 4.57 0 0 1-2.15.46zM10.06 6.26a2.78 2.78 0 0 0-4.82 0zM10.07 6.28L7.65 8.7 5.23 6.28a2.74 2.74 0 0 0-.36 1.37 2.78 2.78 0 0 0 5.56 0 2.74 2.74 0 0 0-.36-1.37z" class="cls-2"/>
            <path d="M7 8v2.35a3.1 3.1 0 0 0 .69.08 3.19 3.19 0 0 0 .7-.08V8z" class="cls-3"/>
        </g>
    </g>
</svg>
