<svg xmlns="http://www.w3.org/2000/svg" viewBox="0 0 31.9 31.9">
    <defs>
        <style>
            .cls-1{fill:none}.cls-2{fill:#f0f0f0}.cls-3{fill:#d80027}.cls-4{clip-path:url(#clip-path)}.cls-5{fill:#0052b4}
        </style>
        <clipPath id="clip-path" transform="translate(0 -.02)">
            <path d="M0 0h31.93v32H0z" class="cls-1"/>
        </clipPath>
    </defs>
    <g id="Layer_2" data-name="Layer 2">
        <g id="pr">
            <path d="M31.9 16A16 16 0 1 1 16 0a16 16 0 0 1 16 16z" class="cls-2" transform="translate(0 -.02)"/>
            <path d="M16 0A15.91 15.91 0 0 0 3.19 6.41h25.52A15.91 15.91 0 0 0 16 0zM16 31.93a15.93 15.93 0 0 0 12.76-6.38H3.19A15.93 15.93 0 0 0 16 31.93z" class="cls-3" transform="translate(0 -.02)"/>
            <g class="cls-4">
                <path d="M0 16a16.05 16.05 0 0 0 .32 3.19h31.26a16.06 16.06 0 0 0 0-6.38H.32A15.9 15.9 0 0 0 0 16z" class="cls-3" transform="translate(0 -.02)"/>
                <path d="M4.67 4.7a15.94 15.94 0 0 0 0 22.55L16 16z" class="cls-5" transform="translate(0 -.02)"/>
            </g>
            <path d="M6.46 11.81l1 3.18h3.34l-2.7 2 1 3.18-2.7-2-2.71 2 1-3.18-2.7-2h3.43z" class="cls-2" transform="translate(0 -.02)"/>
        </g>
    </g>
</svg>
