<svg xmlns="http://www.w3.org/2000/svg" viewBox="0 0 32 32">
    <defs>
        <style>
            .cls-1{fill:#0052b4}.cls-2{fill:#f0f0f0}.cls-3{fill:#d80027}
        </style>
    </defs>
    <g id="Layer_2" data-name="Layer 2">
        <g id="nz">
            <path d="M32 16a16 16 0 0 1-32 0L16 0a16 16 0 0 1 16 16z" class="cls-1"/>
            <path d="M16 16zM16 8.35V0A16 16 0 0 0 0 16h8.35v-4.7l4.7 4.7H16v-2.95l-4.7-4.7z" class="cls-2"/>
            <path d="M8.09 2.09a16 16 0 0 0-6 6V16h4.17V6.26H16V2.09z" class="cls-3"/>
            <path d="M16 14l-5.68-5.65h-2L16 16zM27.71 11.87l.34 1.07h1.12l-.9.65.34 1.07-.9-.66-.91.66.35-1.07-.9-.65h1.11zM23.71 19.52l.52 1.6h1.68l-1.36 1 .52 1.6-1.36-1-1.35 1 .51-1.6-1.35-1h1.68zM23.86 7l.44 1.33h1.39l-1.13.82.44 1.33-1.13-.82-1.13.82.44-1.33L22 8.33h1.39zM20 11.83l.52 1.59h1.67l-1.35 1 .54 1.58L20 15l-1.36 1 .52-1.59-1.35-1h1.69z" class="cls-3"/>
        </g>
    </g>
</svg>
