<svg xmlns="http://www.w3.org/2000/svg" viewBox="0 0 17.78 23">
    <defs>
        <style>
            .cls-1,.cls-2{fill:none;stroke:#383838}.cls-1{stroke-miterlimit:10}.cls-2{stroke-linecap:round;stroke-linejoin:round}
        </style>
    </defs>
    <g id="Layer_2" data-name="Layer 2">
        <g id="Row_1" data-name="Row 1">
            <g id="Logs">
                <path d="M6.89 2.58H1a.47.47 0 0 0-.48.47V22a.47.47 0 0 0 .48.5h15.8a.48.48 0 0 0 .48-.47v-19a.48.48 0 0 0-.48-.47h-5.87M8.31 8.52h6.06" class="cls-1"/>
                <path d="M12.71 4.76h.9c.06-.23-.16-.39-.35-.45a4.86 4.86 0 0 0-.73-.18A2 2 0 0 1 10.9 3a2 2 0 0 1-.15-.6c-.06-.41-.13-.51-.53-.57a.81.81 0 0 1-.63-.53c-.07-.12-.12-.3-.18-.44A.54.54 0 0 0 8.89.5a.54.54 0 0 0-.52.36l-.18.48a.81.81 0 0 1-.63.53c-.4.06-.48.16-.53.57a2 2 0 0 1-.15.6 2 2 0 0 1-1.63 1.09 4.58 4.58 0 0 0-.73.18c-.19.06-.41.22-.35.45h8.54z" class="cls-1"/>
                <path d="M4.85 9.65l-.67-.67M4.85 9.65L6.2 8.3" class="cls-2"/>
                <path d="M8.31 13.03h4.55" class="cls-1"/>
                <path d="M4.85 14.29l-.67-.68M4.85 14.29l1.35-1.36" class="cls-2"/>
                <path d="M8.31 17.35h4.55" class="cls-1"/>
                <path d="M4.85 18.61l-.67-.68M4.85 18.61l1.35-1.36" class="cls-2"/>
            </g>
        </g>
    </g>
</svg>
