<svg xmlns="http://www.w3.org/2000/svg" viewBox="0 0 32 32">
    <defs>
        <style>
            .cls-1{fill:#496e2d}.cls-2{fill:#d80027}.cls-3{fill:#ff9811}
        </style>
    </defs>
    <g id="Layer_2" data-name="Layer 2">
        <g id="zm">
            <path d="M32 16A16 16 0 1 1 16 0a16 16 0 0 1 16 16z" class="cls-1"/>
            <path d="M22.26 16H16v16a16 16 0 0 0 5.33-.91z" class="cls-2"/>
            <path d="M26.67 27.92A16 16 0 0 0 32 16h-6.26z" class="cls-3"/>
            <path d="M21.33 16v15.09a15.94 15.94 0 0 0 5.34-3.17V16z"/>
            <path d="M29.57 10.43h-4.18a1.39 1.39 0 0 0-2.78 0h-4.18a1.44 1.44 0 0 0 1.44 1.4 1.39 1.39 0 0 0 1.39 1.39 1.39 1.39 0 0 0 1.39 1.39h2.78a1.39 1.39 0 0 0 1.39-1.39 1.39 1.39 0 0 0 1.39-1.39 1.44 1.44 0 0 0 1.44-1.4z" class="cls-3"/>
        </g>
    </g>
</svg>
