<svg xmlns="http://www.w3.org/2000/svg" id="Layer_1" viewBox="0 0 23 23">
    <style>
        .st0{stroke-width:1.36}.st0,.st1,.st2{fill:none;stroke:#fff;stroke-miterlimit:10}.st2{stroke-linecap:round}
    </style>
    <g id="Layer_2_1_">
        <g id="Thunder_ADC">
            <g id="Row_2">
                <g id="AppService">
                    <path d="M12.8 18.3c-.9 0-1.6-.7-1.6-1.6 0-.9.7-1.5 1.6-1.5.9 0 1.6.7 1.6 1.6-.1.8-.8 1.5-1.6 1.5z" class="st0"/>
                    <path d="M13.4 22.3h-1.3c-.1 0-.2-.1-.2-.2v-1.2c-.5-.1-1-.3-1.4-.6l-.9.9c-.1.1-.2.1-.3 0l-1-1c-.1-.1-.1-.2 0-.3l.9-.9c-.3-.4-.5-.9-.6-1.4H7.4c-.1 0-.2-.1-.2-.2v-1.3c0-.1.1-.2.2-.2h1.2c.1-.5.3-1 .6-1.4l-.9-.9c-.1-.1-.1-.2 0-.3l1-1c.1-.1.2-.1.3 0l.9.9c.4-.3.9-.5 1.4-.6v-1.2c0-.1.1-.2.2-.2h1.3c.1 0 .2.1.2.2v1.2c.5.1 1 .3 1.4.6l.9-.9c.1-.1.2-.1.3 0l1 1c.1.1.1.2 0 .3l-.9.9c.3.4.5.9.6 1.4h1.2c.1 0 .2.1.2.2v1.4c0 .1-.1.2-.2.2h-1.2c-.1.5-.3 1-.6 1.4l.9.9c.1.1.1.2 0 .3l-1 1c-.1.1-.2.1-.3 0l-.9-.9c-.4.3-.9.5-1.4.6v1.2s-.1.1-.2.1z" class="st1"/>
                    <path d="M6.6 22.5H1.3c-.4 0-.8-.3-.8-.8V5.3c0-.4.3-.8.8-.8h16.4c.4 0 .8.3.8.8v5.5" class="st2"/>
                    <path d="M2.5 3.3c0-.4.3-.8.8-.8h16.4c.4 0 .8.3.8.8v16.4c0 .4-.3.8-.8.8" class="st1"/>
                    <path d="M4.5 1.3c0-.4.3-.8.8-.8h16.4c.4 0 .8.3.8.8v16.4c0 .4-.3.8-.8.8" class="st1"/>
                </g>
            </g>
        </g>
    </g>
</svg>
