<svg xmlns="http://www.w3.org/2000/svg" viewBox="0 0 32 32">
    <defs>
        <style>
            .cls-1{fill:#ffda44}.cls-2{fill:#0052b4}
        </style>
    </defs>
    <g id="Layer_2" data-name="Layer 2">
        <g id="bb">
            <path d="M23 1.59a16 16 0 0 0-14 0L7.65 16 9 30.41a16 16 0 0 0 13.92 0L24.35 16z" class="cls-1"/>
            <path d="M9 1.59a16 16 0 0 0 0 28.82zM23 1.59v28.82a16 16 0 0 0 0-28.82z" class="cls-2"/>
            <path d="M20.87 9.74l.93.47-.93-.47-.93-.47a17.3 17.3 0 0 0-1.48 6.38H17V9.74l-1-1.39-1 1.39v5.91h-1.46a17.3 17.3 0 0 0-1.48-6.38l-1.86.94a15.87 15.87 0 0 1 1.28 6.49v1H15v5.91h2v-5.87h3.48v-1a17.57 17.57 0 0 1 .64-4.7 13.09 13.09 0 0 1 .64-1.8z"/>
        </g>
    </g>
</svg>
