<svg xmlns="http://www.w3.org/2000/svg" viewBox="0 0 32 32">
    <defs>
        <style>
            .cls-1{fill:#f0f0f0}.cls-2{fill:#ffda44}.cls-3{fill:#0052b4}
        </style>
    </defs>
    <g id="Layer_2" data-name="Layer 2">
        <g id="ba">
            <circle cx="16" cy="16" r="16" class="cls-1"/>
            <path d="M16 0A16 16 0 0 0 2.5 7.4l21.7 22.34A16 16 0 0 0 16 0z" class="cls-2"/>
            <path d="M32 16a16 16 0 0 0-4.17-10.78v21.56A16 16 0 0 0 32 16zM20 30.12h1.67l.52-1.6.52 1.6h.84a15.12 15.12 0 0 0 1.49-.9L2.79 7a16.38 16.38 0 0 0-1 1.67l.2.61h1.68l-1.36 1 .52 1.59-1.36-1-.81.59a16 16 0 0 0 20.67 19.63zM3.57 15.3l.52-1.59-1.36-1h1.68l.51-1.59.52 1.59h1.68l-1.36 1 .52 1.59-1.36-1zM7 18.78l.52-1.59-1.36-1h1.7l.51-1.59.52 1.59h1.68l-1.36 1 .52 1.59-1.35-1zm3.45 3.48l.55-1.59-1.36-1h1.68l.52-1.59.51 1.59H14l-1.36 1 .52 1.59-1.35-1zm4.81 2.49l-1.36 1 .52-1.6-1.36-1h1.68l.52-1.59.52 1.59h1.67l-1.35 1 .52 1.6zm2.09 4.47l.52-1.6-1.35-1h1.67l.52-1.6.52 1.6h1.67l-1.35 1 .52 1.6-1.36-1z" class="cls-3"/>
        </g>
    </g>
</svg>
