<svg xmlns="http://www.w3.org/2000/svg" viewBox="0 0 18.17 23">
    <defs>
        <style>
            .cls-1{fill:none;stroke:#383838;stroke-miterlimit:10}
        </style>
    </defs>
    <g id="Layer_2" data-name="Layer 2">
        <g id="Row_1" data-name="Row 1">
            <g id="learning-1">
                <path d="M9 9.69a1.35 1.35 0 1 1 1.34-1.35A1.34 1.34 0 0 1 9 9.69z" class="cls-1"/>
                <path d="M9.62 13.16H8.46a.18.18 0 0 1-.18-.16v-1A3.67 3.67 0 0 1 7 11.42l-.74.74a.18.18 0 0 1-.25 0l-.82-.82a.18.18 0 0 1 0-.25l.81-.74a3.71 3.71 0 0 1-.55-1.25h-1a.17.17 0 0 1-.17-.17V7.76a.18.18 0 0 1 .17-.17h1A3.51 3.51 0 0 1 6 6.34l-.78-.74a.18.18 0 0 1 0-.24l.83-.83a.18.18 0 0 1 .25 0l.7.74a3.73 3.73 0 0 1 1.25-.52v-1a.18.18 0 0 1 .18-.18h1.19a.18.18 0 0 1 .18.18v1a3.73 3.73 0 0 1 1.25.52l.73-.74a.18.18 0 0 1 .25 0l.83.83a.16.16 0 0 1 0 .24l-.74.74a3.51 3.51 0 0 1 .51 1.25h1a.18.18 0 0 1 .17.17v1.17a.17.17 0 0 1-.17.17h-1a3.51 3.51 0 0 1-.51 1.25l.74.74a.2.2 0 0 1 0 .25l-.83.82a.18.18 0 0 1-.25 0l-.78-.74a3.59 3.59 0 0 1-1.24.52v1a.18.18 0 0 1-.14.22z" class="cls-1"/>
                <path d="M9.08 22.5c-3 0-4.14-.05-8.4-.05A.46.46 0 0 1 .5 22a.42.42 0 0 1 .29-.35C4.43 20.33 5 19.23 5 17.13a1.51 1.51 0 0 0-.35-1.07 5.79 5.79 0 0 1-1-2.58c0-.23-.08-.24-.28-.34-.53-.26-1-.63-1.15-2.31a2 2 0 0 1 .51-1.5c0-.29-.13-.79-.21-1.34-.4-2.44-.41-5.43 3-6.82C8.56 0 11 .62 11.7 1.41a3.9 3.9 0 0 1 2.86 1.26c1.47 1.71 1 5.6.84 6.65a2 2 0 0 1 .52 1.48c-.13 1.71-.62 2.08-1.16 2.34-.2.1-.23.11-.27.34a5.76 5.76 0 0 1-1 2.58 1.56 1.56 0 0 0-.35 1.07c0 2.1.59 3.2 4.24 4.55a.43.43 0 0 1 .28.35.46.46 0 0 1-.18.42c-3.48 0-5.38.05-8.4.05z" class="cls-1"/>
            </g>
        </g>
    </g>
</svg>
