<svg xmlns="http://www.w3.org/2000/svg" viewBox="0 0 23 20.08">
    <defs>
        <style>
            .cls-1{fill:none;stroke:#383838;stroke-miterlimit:10}
        </style>
    </defs>
    <g id="Layer_2" data-name="Layer 2">
        <g id="Layer_1-2" data-name="Layer 1">
            <g id="event">
                <path d="M3 .5h17A2.5 2.5 0 0 1 22.5 3v12.66H.5V3A2.5 2.5 0 0 1 3 .5zM17.43 19.58H5.57M11.5 19.58v-3.84" class="cls-1"/>
                <path d="M11.64 9.28A1.3 1.3 0 1 1 12.94 8a1.3 1.3 0 0 1-1.3 1.28z" class="cls-1"/>
                <path d="M12.21 12.64h-1.14a.17.17 0 0 1-.17-.17v-1A3.44 3.44 0 0 1 9.7 11l-.7.68a.18.18 0 0 1-.24 0l-.8-.8a.16.16 0 0 1 0-.24l.72-.72a3.49 3.49 0 0 1-.5-1.21h-1A.17.17 0 0 1 7 8.55V7.41a.18.18 0 0 1 .17-.17h1A3.55 3.55 0 0 1 8.65 6l-.71-.71a.16.16 0 0 1 0-.24l.8-.8a.16.16 0 0 1 .24 0l.71.75a3.55 3.55 0 0 1 1.21-.5v-1a.18.18 0 0 1 .17-.17h1.14a.17.17 0 0 1 .16.17v1a3.24 3.24 0 0 1 1.21.5l.72-.72a.16.16 0 0 1 .24 0l.8.8a.18.18 0 0 1 0 .24l-.72.68a3.44 3.44 0 0 1 .5 1.2h1a.17.17 0 0 1 .16.17v1.18a.16.16 0 0 1-.16.16h-1a3.49 3.49 0 0 1-.5 1.21l.72.72a.18.18 0 0 1 0 .24l-.8.8a.18.18 0 0 1-.24 0l-.72-.68a3.49 3.49 0 0 1-1.21.5v1a.16.16 0 0 1-.16.14z" class="cls-1"/>
            </g>
        </g>
    </g>
</svg>
