<svg xmlns="http://www.w3.org/2000/svg" id="Layer_1" viewBox="0 0 18.2 23">
    <style>
        .st0{fill:none;stroke:#fff;stroke-miterlimit:10}
    </style>
    <g id="Layer_2_1_">
        <g id="Row_1">
            <g id="learning-1">
                <path d="M9 9.7c-.7 0-1.4-.6-1.4-1.3S8.2 7 9 7c.7 0 1.4.6 1.4 1.3-.1.8-.6 1.4-1.4 1.4z" class="st0"/>
                <path d="M9.6 13.2H8.5c-.1 0-.2-.1-.2-.2v-1c-.5-.1-.9-.3-1.3-.6l-.7.7c-.1.1-.2.1-.3 0l-.8-.8c-.1-.1-.1-.2 0-.3l.8-.6c-.3-.4-.4-.9-.6-1.3h-1s-.1-.1-.1-.2V7.8c0-.1.1-.2.2-.2h1c0-.5.2-.9.5-1.3l-.8-.7c-.1-.1-.1-.2 0-.2l.8-.9c.1-.1.2-.1.3 0l.7.8c.4-.3.8-.5 1.3-.5v-1c0-.1.1-.2.2-.2h1.2c.1 0 .2.1.2.2v1c.4.1.9.3 1.3.5l.7-.7c.1-.1.2-.1.3 0l.8.8c.1.1.1.2 0 .2l-.7.7c.2.4.4.8.5 1.3h1c.1 0 .2.1.2.2V9c0 .1-.1.2-.2.2h-1c-.1.4-.3.9-.5 1.3l.7.7c.1.1.1.2 0 .3l-1 .7c-.1.1-.2.1-.3 0l-.7-.8c-.4.2-.8.4-1.2.5v1c0 .1-.1.2-.2.3z" class="st0"/>
                <path d="M9.1 22.5H.7c-.1-.1-.2-.3-.2-.5s.1-.3.3-.4C4.4 20.3 5 19.2 5 17.1c0-.4-.1-.8-.3-1.1-.5-.8-.9-1.7-1-2.6 0-.2-.1-.2-.3-.3-.5-.3-1-.6-1.1-2.3 0-.5.1-1.1.5-1.5-.1-.3-.2-.8-.3-1.3-.4-2.4-.4-5.4 3-6.8 3-1.2 5.5-.5 6.2.2 1.1 0 2.1.5 2.9 1.3 1.5 1.7 1 5.6.8 6.6.4.4.6.9.5 1.5-.1 1.7-.6 2.1-1.2 2.3-.2.1-.2.1-.3.3-.1.9-.5 1.8-1 2.6-.2.3-.4.7-.4 1.1 0 2.1.6 3.2 4.2 4.6.2.1.3.2.3.4s0 .3-.2.4H9.1z" class="st0"/>
            </g>
        </g>
    </g>
</svg>
