<svg xmlns="http://www.w3.org/2000/svg" viewBox="0 0 32 32">
    <defs>
        <style>
            .cls-1{fill:#ffda44}.cls-2{fill:#ff9811}.cls-3{fill:#f0f0f0}
        </style>
    </defs>
    <g id="Layer_2" data-name="Layer 2">
        <g id="bt">
            <path d="M4.69 27.31A16 16 0 0 1 27.31 4.69s4.25 14.37-2 20.62-20.62 2.01-20.62 2z" class="cls-1"/>
            <path d="M4.69 27.31A16 16 0 0 0 27.31 4.69z" class="cls-2"/>
            <path d="M25.05 9V6.26h-5.33l-.41.41a4.63 4.63 0 0 0-1 4.37c.17 1.15.19 1.59-.24 2s-.86.41-2 .24-2.92-.42-4.37 1a4.64 4.64 0 0 0-1 4.38c.17 1.14.19 1.58-.24 2s-.87.41-2 .25a9 9 0 0 0-1.46-.1v2.78a8.24 8.24 0 0 1 1 .11 10.64 10.64 0 0 0 1.47.14 4.13 4.13 0 0 0 1.69-.33v2.23h4.17v-2.09h-2.11v-1.39h1.4v-2.09H13.5a8 8 0 0 0-.12-1.87c-.16-1.15-.18-1.59.24-2s.87-.41 2-.24a5.7 5.7 0 0 0 3.16-.19v2.23H23V16h-2.12v-1.39h1.39v-2.09h-1.11a8.53 8.53 0 0 0-.16-1.87A3.47 3.47 0 0 1 21 9z" class="cls-3"/>
        </g>
    </g>
</svg>
