<svg xmlns="http://www.w3.org/2000/svg" viewBox="0 0 23 22.9">
    <defs>
        <style>
            .cls-1{fill:none;stroke:#383838;stroke-linecap:round;stroke-linejoin:round}
        </style>
    </defs>
    <g id="Layer_2" data-name="Layer 2">
        <g id="Hermony_controler" data-name="Hermony controler">
            <g id="Row_7" data-name="Row 7">
                <g id="Apps">
                    <path d="M11.51 6.92V11a.46.46 0 0 1-.46.46H7.12M4.92 11.49H1A.47.47 0 0 1 .52 11V1A.47.47 0 0 1 1 .5h10.05a.46.46 0 0 1 .46.46v3.76M15.81 11.49H12a.47.47 0 0 1-.46-.46V7.1" class="cls-1"/>
                    <path d="M11.51 4.64V1A.47.47 0 0 1 12 .5h10a.47.47 0 0 1 .5.5v10a.47.47 0 0 1-.46.46h-3.76" class="cls-1"/>
                    <path d="M11.51 4.72a1.52 1.52 0 0 1 1.1-.46 1.56 1.56 0 1 1-1.1 2.66M4.92 11.5a1.56 1.56 0 1 1 2.2 0M11.49 15.53v-3.66a.46.46 0 0 1 .45-.46h3.94M18.08 11.41H22a.47.47 0 0 1 .46.46V22a.46.46 0 0 1-.46.45H11.94a.45.45 0 0 1-.45-.45v-3.81M18.08 11.41a1.55 1.55 0 1 1-2.2 0M7.17 11.46l3.83-.05a.47.47 0 0 1 .46.46v3.93" class="cls-1"/>
                    <path d="M11.49 18.7v3.24a.47.47 0 0 1-.46.46H1a.47.47 0 0 1-.46-.46V11.87a.47.47 0 0 1 .46-.46h3.72" class="cls-1"/>
                    <path d="M11.5 18.11a1.6 1.6 0 0 1-1.11.46 1.56 1.56 0 0 1 0-3.12 1.59 1.59 0 0 1 1.1.45" class="cls-1"/>
                </g>
            </g>
        </g>
    </g>
</svg>
