<svg xmlns="http://www.w3.org/2000/svg" viewBox="0 0 22 21.75">
    <defs>
        <style>
            .cls-1,.cls-2{fill:none;stroke:#fff;stroke-miterlimit:10}.cls-1{stroke-linecap:round}
        </style>
    </defs>
    <g id="Layer_2" data-name="Layer 2">
        <g id="Row_1" data-name="Row 1">
            <g id="Policies">
                <path d="M17.52 10.16v-7.9C17.52.72 17.3.5 17 .5H1.2a.7.7 0 0 0-.7.7V16l5.28 5.28h5.88m-10.78-5H5a.49.49 0 0 1 .49.48v4.13" class="cls-1"/>
                <path d="M3.18 4.71H14.3M3.18 7.67H14.3M3.18 10.64H14.3M16.83 17.88a1.3 1.3 0 1 1 1.3-1.3 1.3 1.3 0 0 1-1.3 1.3z" class="cls-2"/>
                <path d="M17.4 21.25h-1.13a.17.17 0 0 1-.17-.17v-1a3.47 3.47 0 0 1-1.21-.49l-.71.71a.16.16 0 0 1-.24 0l-.8-.8a.16.16 0 0 1 0-.24l.71-.71a3.57 3.57 0 0 1-.5-1.21h-1a.17.17 0 0 1-.17-.17V16a.16.16 0 0 1 .17-.17h1a3.49 3.49 0 0 1 .5-1.21l-.72-.72a.17.17 0 0 1 0-.23l.81-.81a.17.17 0 0 1 .23 0l.72.72a3.49 3.49 0 0 1 1.21-.5v-1a.16.16 0 0 1 .17-.17h1.13a.17.17 0 0 1 .17.17v1a3.49 3.49 0 0 1 1.21.5l.71-.72a.18.18 0 0 1 .24 0l.8.81a.15.15 0 0 1 0 .23l-.71.72a3.49 3.49 0 0 1 .5 1.21h1a.17.17 0 0 1 .17.17v1.13a.18.18 0 0 1-.17.17h-1a3.78 3.78 0 0 1-.5 1.21l.71.71a.16.16 0 0 1 0 .24l-.8.8a.16.16 0 0 1-.24 0l-.71-.71a3.47 3.47 0 0 1-1.21.49v1a.18.18 0 0 1-.17.21z" class="cls-2"/>
            </g>
        </g>
    </g>
</svg>
