<svg xmlns="http://www.w3.org/2000/svg" viewBox="0 0 32 32">
    <defs>
        <style>
            .cls-1{fill:#ffda44}.cls-2{fill:#6da544}.cls-3{fill:#d80027}
        </style>
    </defs>
    <g id="Layer_2" data-name="Layer 2">
        <g id="gw">
            <path d="M16 0a16 16 0 0 0-4.17.55L10.43 16l1.4 15.45A16 16 0 1 0 16 0z" class="cls-1"/>
            <path d="M10.43 16l1.4 15.45A16 16 0 0 0 32 16z" class="cls-2"/>
            <path d="M0 16a16 16 0 0 0 8.35 14.05V2A16 16 0 0 0 0 16z" class="cls-3"/>
            <path d="M0 16a16 16 0 0 0 11.83 15.45V.55A16 16 0 0 0 0 16z" class="cls-3"/>
            <path d="M6.05 11.83l1 3.18h3.35L7.72 17l1 3.18-2.71-2-2.72 2 1-3.18-2.63-2H5z"/>
        </g>
    </g>
</svg>
