<svg xmlns="http://www.w3.org/2000/svg" viewBox="0 0 31.9 31.9">
    <defs>
        <style>
            .cls-1{fill:none}.cls-2{clip-path:url(#clip-path)}.cls-3{fill:#a2001d}.cls-4{fill:#f0f0f0}.cls-5{fill:#ffda44}
        </style>
        <clipPath id="clip-path" transform="translate(0 -.03)">
            <path d="M0 0h31.93v32H0z" class="cls-1"/>
        </clipPath>
    </defs>
    <g id="Layer_2" data-name="Layer 2">
        <g id="pg">
            <g class="cls-2">
                <path d="M27.23 27.25A15.95 15.95 0 0 1 4.67 4.7C10.9-1.53 20-.55 26.25 5.68s7.21 15.34 1 21.57z" transform="translate(0 -.03)"/>
                <path d="M4.67 4.7a15.95 15.95 0 0 1 22.56 22.55" class="cls-3" transform="translate(0 -.03)"/>
            </g>
            <path d="M12.19 21.52l.26.8h.83l-.67.49.26.79-.68-.49-.68.49.26-.79-.67-.49h.83zM10.06 13.89l.43 1.33h1.39l-1.13.78.43 1.32-1.12-.82-1.13.82.43-1.32-1.13-.82h1.4zM10.06 23.6l.43 1.33h1.39l-1.13.82.43 1.32-1.12-.82-1.13.82.43-1.32-1.13-.82h1.4zM14.13 17.36l.43 1.33H16l-1.13.82.43 1.32-1.17-.83-1.13.83.43-1.32-1.13-.82h1.4zM6 17.36l.43 1.33h1.4l-1.13.82.43 1.32L6 20l-1.12.82.43-1.32-1.13-.82h1.37z" class="cls-4" transform="translate(0 -.03)"/>
            <path d="M26.7 11.84a4.08 4.08 0 0 0-2.63-1.21l3-2.32a5.58 5.58 0 0 0-4.35-1.61 4.15 4.15 0 0 0-1.07-1.82l-1.18 2.35a1.52 1.52 0 0 0-.29-.39 1.73 1.73 0 1 0-2.45 2.45 1.85 1.85 0 0 0 .39.3l-2.35 1.17a4.09 4.09 0 0 0 1.82 1.07 5.54 5.54 0 0 0 1.61 4.33l2.6-3.35a1.06 1.06 0 0 1 .73-.3 1 1 0 0 1 1 1 1.07 1.07 0 0 1-.3.74l1 1a2.43 2.43 0 0 0 .23-3.17 2.78 2.78 0 0 1 1.24 4.64l1 1a4.15 4.15 0 0 0 0-5.88z" class="cls-5" transform="translate(0 -.03)"/>
        </g>
    </g>
</svg>
