<svg xmlns="http://www.w3.org/2000/svg" viewBox="0 0 19.09 23">
    <defs>
        <style>
            .cls-1{fill:none;stroke:#fff;stroke-miterlimit:10}
        </style>
    </defs>
    <g id="Layer_2" data-name="Layer 2">
        <g id="Layer_1-2" data-name="Layer 1">
            <g id="product-document">
                <path d="M17.89.5H1.2a.77.77 0 0 0-.7.82v5.42h1.63a.81.81 0 0 1 .73.87.81.81 0 0 1-.73.87H.5v2.72h1.59a.8.8 0 0 1 .76.69.85.85 0 0 1-.72 1H.5v2.71h1.59a.81.81 0 0 1 .76.7.84.84 0 0 1-.72 1H.5v4.29a.77.77 0 0 0 .7.82h16.69a.77.77 0 0 0 .7-.82V1.32a.77.77 0 0 0-.7-.82z" class="cls-1"/>
                <path d="M7.46 8.07l-2.85 3.38 2.91 3.44M12.6 8.07l2.86 3.38-2.92 3.44M11.9 5.39L8.25 17.4" class="cls-1"/>
            </g>
        </g>
    </g>
</svg>
