<svg xmlns="http://www.w3.org/2000/svg" viewBox="0 0 32 32">
    <defs>
        <style>
            .cls-1{fill:#f0f0f0}.cls-2{fill:#d80027}.cls-3{fill:#ffda44}.cls-4{fill:#0052b4}.cls-5{fill:#6da544}
        </style>
    </defs>
    <g id="Layer_2" data-name="Layer 2">
        <g id="km">
            <circle cx="16" cy="16" r="16" class="cls-1"/>
            <path d="M32 16H14.66c-3.45 3.4-5.53 6.06-7.66 8.18l9.05.82 14-1.39A16 16 0 0 0 32 16z" class="cls-2"/>
            <path d="M7 8.3h23A16 16 0 0 0 4.71 4.66z" class="cls-3"/>
            <path d="M7.7 23.61c-1.44 1.43-2 2.64-3 3.68a16 16 0 0 0 25.42-3.68z" class="cls-4"/>
            <path d="M4.69 4.64a16 16 0 0 0 0 22.63L16 16z" class="cls-5"/>
            <path d="M4.22 16a4.87 4.87 0 0 1 3.83-4.8A4.57 4.57 0 0 0 7 11.08a4.87 4.87 0 0 0 0 9.74 5.19 5.19 0 0 0 1.05-.11A4.88 4.88 0 0 1 4.22 16z" class="cls-1"/>
            <path d="M7.99 11.78l.26.8h.84l-.68.49.26.8-.68-.5-.67.5.25-.8-.67-.49h.83l.26-.8z" class="cls-1"/>
            <path d="M7.99 13.87l.26.79h.84l-.68.5.26.79-.68-.49-.67.49.25-.79-.67-.5h.83l.26-.79zM7.99 15.95l.26.8h.84l-.68.49.26.8-.68-.49-.67.49.25-.8-.67-.49h.83l.26-.8zM7.99 18.04l.26.8h.84l-.68.49.26.8-.68-.49-.67.49.25-.8-.67-.49h.83l.26-.8z" class="cls-1"/>
        </g>
    </g>
</svg>
