<svg xmlns="http://www.w3.org/2000/svg" viewBox="0 0 32 32">
    <defs>
        <style>
            .cls-1{fill:#ffda44}.cls-2{fill:#338af3}.cls-3{fill:#f0f0f0}.cls-4{fill:#d80027}
        </style>
    </defs>
    <g id="Layer_2" data-name="Layer 2">
        <g id="aw">
            <circle cx="16" cy="16" r="16" class="cls-1"/>
            <path d="M16 32a16 16 0 0 0 12.13-5.57H3.87A16 16 0 0 0 16 32zM32 16A16 16 0 1 0 .55 20.17h30.9A16 16 0 0 0 32 16zM1.27 22.26a15.87 15.87 0 0 0 1.08 2.09h27.3a15.87 15.87 0 0 0 1.08-2.09z" class="cls-2"/>
            <path d="M7.33 10.09L4.21 8.71l3.12-1.38 1.38-3.12 1.38 3.12 3.13 1.38-3.13 1.38-1.38 3.13-1.38-3.13z" class="cls-3"/>
            <path d="M8.71 5.93l.85 1.93 1.93.85-1.93.85-.85 1.93-.85-1.93-1.93-.85 1.93-.85.85-1.93z" class="cls-4"/>
        </g>
    </g>
</svg>
