<svg xmlns="http://www.w3.org/2000/svg" viewBox="0 0 32 32">
    <defs>
        <style>
            .cls-1{fill:#f0f0f0}.cls-2{fill:#d80027}
        </style>
    </defs>
    <g id="Layer_2" data-name="Layer 2">
        <g id="ca">
            <circle cx="16" cy="16" r="16" class="cls-1"/>
            <path d="M32 16a16 16 0 0 0-9-14.41v28.82A16 16 0 0 0 32 16zM0 16a16 16 0 0 0 9 14.41V1.59A16 16 0 0 0 0 16zM18.78 18.09l2.79-1.39-1.4-.7v-1.39L17.39 16l1.39-2.78h-1.39L16 11.13l-1.39 2.09h-1.39L14.61 16l-2.78-1.39V16l-1.39.7 2.78 1.39-.7 1.39h2.78v2.09h1.4v-2.09h2.78l-.7-1.39z" class="cls-2"/>
        </g>
    </g>
</svg>
