<svg xmlns="http://www.w3.org/2000/svg" viewBox="0 0 32 32">
    <defs>
        <style>
            .cls-1{fill:#f0f0f0}.cls-2{fill:#d80027}.cls-3{fill:#0052b4}
        </style>
    </defs>
    <g id="Layer_2" data-name="Layer 2">
        <g id="kr">
            <path d="M32 16A16 16 0 1 1 16 0a16 16 0 0 1 16 16z" class="cls-1"/>
            <path d="M21.57 16c0 1.39-2.5 4.87-5.57 4.87s-5.57-3.48-5.57-4.87a5.57 5.57 0 0 1 11.14 0z" class="cls-2"/>
            <path d="M21.57 16a5.57 5.57 0 0 1-11.14 0" class="cls-3"/>
            <path d="M21.9 20.92l1.48-1.48 1 1-1.49 1.46zM19.44 23.38l1.48-1.48 1 1-1.47 1.47zM24.85 23.87l1.48-1.48 1 1-1.47 1.47zM22.39 26.33l1.48-1.48 1 1-1.47 1.47zM23.38 22.39l1.47-1.47 1 1-1.48 1.48zM20.92 24.85l1.47-1.47 1 1-1.49 1.46zM24.85 11.08l-3.93-3.93 1-1 3.94 3.94zM20.92 10.1l-1.48-1.48 1-1 1.46 1.49zM23.38 12.56l-1.48-1.48 1-1 1.47 1.47zM23.87 7.15l-1.48-1.48 1-1 1.47 1.47zM26.33 9.61l-1.48-1.48 1-1 1.47 1.47zM5.67 22.39l3.94 3.94-1 1-3.92-3.95zM9.61 23.38l1.47 1.47-1 1-1.46-1.49zM7.15 20.92l1.47 1.47-1 1-1.46-1.49zM8.62 19.44l3.94 3.94-1 1-3.92-3.95zM9.61 5.67L5.67 9.61l-1-1 3.95-3.92zM11.08 7.15l-3.93 3.93-1-1 3.95-3.92zM12.56 8.62l-3.94 3.94-1-1 3.93-3.93z"/>
        </g>
    </g>
</svg>
