<svg xmlns="http://www.w3.org/2000/svg" viewBox="0 0 19.06 23">
    <defs>
        <style>
            .cls-1{fill:none;stroke:#383838;stroke-miterlimit:10}
        </style>
    </defs>
    <g id="Layer_2" data-name="Layer 2">
        <g id="Thunder_ADC" data-name="Thunder ADC">
            <g id="Row_3" data-name="Row 3">
                <g id="Certificate">
                    <path d="M.5 1.23V16.9l5.6 5.6h11.72a.74.74 0 0 0 .74-.73V1.23a.74.74 0 0 0-.74-.73H1.23a.73.73 0 0 0-.73.73zm.4 16h4.38a.51.51 0 0 1 .51.52v4.37M3.35 4.97h6.1M3.35 8.11h5.97M3.35 11.26h5.97" class="cls-1"/>
                    <path d="M11.65 11.38V18l2.15-2.97L15.95 18v-6.59l-4.3-.03zM13.8 5a2.28 2.28 0 1 0 2.27 2.27A2.28 2.28 0 0 0 13.8 5" class="cls-1"/>
                </g>
            </g>
        </g>
    </g>
</svg>
