<svg xmlns="http://www.w3.org/2000/svg" viewBox="0 0 32 32">
    <defs>
        <style>
            .cls-1{fill:#f0f0f0}.cls-2{fill:#0052b4}.cls-3{fill:#d80027}
        </style>
    </defs>
    <g id="Layer_2" data-name="Layer 2">
        <g id="UK">
            <circle cx="16" cy="16" r="16" class="cls-1"/>
            <path d="M3.31 6.26a15.81 15.81 0 0 0-2.76 5.57h8.32zM31.45 11.83a15.81 15.81 0 0 0-2.76-5.57l-5.56 5.57zM.55 20.17a15.81 15.81 0 0 0 2.76 5.57l5.56-5.57zM25.74 3.31A15.81 15.81 0 0 0 20.17.55v8.32zM6.26 28.69a15.81 15.81 0 0 0 5.57 2.76v-8.32zM11.83.55a15.81 15.81 0 0 0-5.57 2.76l5.57 5.56zM20.17 31.45a15.81 15.81 0 0 0 5.57-2.76l-5.57-5.56v8.32zM23.13 20.17l5.56 5.57a15.81 15.81 0 0 0 2.76-5.57z" class="cls-2"/>
            <path d="M31.86 13.91H18.09V.14a15.67 15.67 0 0 0-4.18 0v13.77H.14a15.67 15.67 0 0 0 0 4.18h13.77v13.77a15.67 15.67 0 0 0 4.18 0V18.09h13.77a15.67 15.67 0 0 0 0-4.18z" class="cls-3"/>
            <path d="M20.17 20.17l7.14 7.14a12.9 12.9 0 0 0 .94-1l-6.11-6.12zM11.83 20.17l-7.14 7.14a12.9 12.9 0 0 0 1 .94l6.12-6.11v-2zM11.83 11.83L4.69 4.69a12.9 12.9 0 0 0-.94 1l6.11 6.12zM20.17 11.83l7.14-7.14a12.9 12.9 0 0 0-1-.94l-6.14 6.11z" class="cls-3"/>
        </g>
    </g>
</svg>
