<svg xmlns="http://www.w3.org/2000/svg" id="Layer_1" viewBox="0 0 23 22.9">
    <style>
        .st0{fill:none;stroke:#fff;stroke-linecap:round;stroke-linejoin:round}
    </style>
    <g id="Layer_2_1_">
        <g id="Hermony_controler">
            <g id="Row_7">
                <g id="Apps">
                    <path d="M11.5 6.9V11c0 .3-.2.5-.5.5H7.1M4.9 11.5H1c-.3 0-.5-.2-.5-.5V1C.5.7.7.5.9.5H11c.3 0 .5.2.5.5v3.8M15.8 11.5H12c-.3 0-.5-.2-.5-.5V7.1" class="st0"/>
                    <path d="M11.5 4.6V1c0-.3.2-.5.4-.5H22c.3 0 .5.2.5.4V11c0 .3-.2.5-.5.5h-3.8" class="st0"/>
                    <path d="M11.5 4.7c.3-.3.7-.5 1.1-.5.9 0 1.6.7 1.6 1.6 0 .9-.7 1.6-1.6 1.6-.4 0-.8-.2-1.1-.5M4.9 11.5c-.6-.6-.6-1.6 0-2.2s1.6-.6 2.2 0 .6 1.6 0 2.2M11.5 15.5v-3.7c0-.3.2-.5.4-.5h3.9M18.1 11.4H22c.3 0 .5.2.5.5V22c0 .3-.2.5-.5.5H11.9c-.2 0-.4-.2-.4-.5v-3.8" class="st0"/>
                    <path d="M18.1 11.4c.6.6.6 1.6 0 2.2-.6.6-1.6.6-2.2 0-.6-.6-.6-1.6 0-2.2M7.2 11.5l3.8-.1c.3 0 .5.2.5.5v3.9M11.5 18.7v3.2c0 .3-.2.5-.5.5H1c-.3 0-.5-.2-.5-.5v-10c0-.3.2-.5.5-.5h3.7" class="st0"/>
                    <path d="M11.5 18.1c-.3.3-.7.5-1.1.5-.9 0-1.6-.7-1.6-1.6s.7-1.6 1.6-1.6c.4 0 .8.2 1.1.4" class="st0"/>
                </g>
            </g>
        </g>
    </g>
</svg>
