<svg xmlns="http://www.w3.org/2000/svg" id="Layer_1" viewBox="0 0 23 25">
    <style>
        .st0{fill:none;stroke:#fff;stroke-linecap:round;stroke-miterlimit:10}.st1{fill:#fff}.st2{fill:none;stroke:#fff;stroke-linecap:round;stroke-miterlimit:10;stroke-dasharray:0,4.97}
    </style>
    <g id="Layer_2_1_">
        <g id="Layer_1-2">
            <g id="Retry">
                <path d="M4.4 5.2C9 1.2 16 1.8 19.9 6.4s3.4 11.6-1.3 15.5c-2 1.7-4.5 2.6-7.1 2.6" class="st0"/>
                <path d="M9.6 6.6l.1-1L4.8 5 5.7.2l-1-.2-1.1 5.9z" class="st1"/>
                <path d="M5.1 4.6" class="st0"/>
                <path d="M9.6 2.7c1.3-.2 2.6-.2 3.8 0 6 1.1 10 6.8 8.9 12.7s-6.8 10-12.7 8.9c-6-1.1-10-6.8-8.9-12.7.1-.5.2-.9.3-1.4" class="st2"/>
                <path d="M2 8" class="st0"/>
            </g>
        </g>
    </g>
</svg>
