<svg xmlns="http://www.w3.org/2000/svg" viewBox="0 0 32 32">
    <defs>
        <style>
            .cls-1{fill:#f0f0f0}.cls-2{fill:#0052b4}.cls-3{fill:#d80027}.cls-4{fill:#ffda44}
        </style>
    </defs>
    <g id="Layer_2" data-name="Layer 2">
        <g id="cv">
            <circle cx="16" cy="16" r="16" class="cls-1"/>
            <path d="M16 32a16 16 0 0 0 12.13-5.57H3.87A16 16 0 0 0 16 32zM32 16A16 16 0 1 0 .55 20.17h30.9A16 16 0 0 0 32 16z" class="cls-2"/>
            <path d="M1.27 22.26a15.87 15.87 0 0 0 1.08 2.09h27.3a15.87 15.87 0 0 0 1.08-2.09z" class="cls-3"/>
            <path d="M11.44 17.04l.26.8h.83l-.67.49.26.8-.68-.49-.68.49.26-.8-.68-.49h.84l.26-.8zM11.44 27.48l.26.79h.83l-.67.5.26.8-.68-.5-.68.5.26-.8-.68-.5h.84l.26-.79zM6.58 23.95l.26.8h.84l-.68.49.26.8-.68-.5-.68.5.26-.8-.68-.49h.84l.26-.8zM8.44 18.09l.25.79h.84l-.68.5.26.79-.67-.49-.68.49.26-.79-.68-.5h.84l.26-.79zM5.48 21.37h.84l.26-.8.26.8h.84l-.68.49.26.8-.68-.49-.68.49.26-.8-.68-.49zM7.76 28.37l.26-.8-.68-.49h.84l.26-.8.25.8h.84l-.68.49.26.8-.67-.49-.68.49zM16.29 23.95l-.26.8h-.83l.67.49-.26.8.68-.5.68.5-.26-.8.68-.49h-.84l-.26-.8zM14.44 18.09l-.26.79h-.84l.68.5-.26.79.68-.49.68.49-.26-.79.67-.5h-.83l-.26-.79zM17.39 21.37h-.84l-.26-.8-.26.8h-.83l.67.49-.26.8.68-.49.68.49-.26-.8.68-.49zM15.12 28.37l-.26-.8.67-.49h-.83l-.26-.8-.26.8h-.84l.68.49-.26.8.68-.49.68.49z" class="cls-4"/>
        </g>
    </g>
</svg>
