<svg xmlns="http://www.w3.org/2000/svg" viewBox="0 0 32 32">
    <defs>
        <style>
            .cls-1{fill:#f0f0f0}.cls-2{fill:#6da544}.cls-3{fill:#d80027}.cls-4{fill:#ffda44}
        </style>
    </defs>
    <g id="Layer_2" data-name="Layer 2">
        <g id="tj">
            <path d="M1.59 9a16 16 0 0 0 0 14L16 24.35 30.41 23a16 16 0 0 0 0-14L16 7.65z" class="cls-1"/>
            <path d="M1.59 23a16 16 0 0 0 28.82 0z" class="cls-2"/>
            <path d="M1.59 9h28.82A16 16 0 0 0 1.59 9z" class="cls-3"/>
            <path d="M13.22 20.17h5.56v-2.36l-1.11.56L16 16.7l-1.67 1.67-1.11-.56zM10 17.39l.26.8h.84l-.68.49.26.8L10 19l-.67.49.25-.8-.67-.49h.83zM10.84 14.61l.26.8h.83l-.67.49.25.8-.67-.5-.68.5.26-.8-.68-.49h.84zM13.13 12.52l.26.8h.84l-.68.49.26.8-.68-.49-.68.49.26-.8-.71-.49h.84zM22 17.39l-.26.8h-.84l.68.49-.26.8L22 19l.67.49-.25-.8.67-.49h-.83zM21.16 14.61l-.26.8h-.83l.67.49-.25.8.67-.5.68.5-.26-.8.68-.49h-.84zM18.87 12.52l-.26.8h-.84l.68.49-.26.8.68-.49.68.49-.26-.8.68-.49h-.84zM16 11.48l.26.8h.84l-.68.49.26.8-.68-.5-.68.5.26-.8-.68-.49h.84z" class="cls-4"/>
        </g>
    </g>
</svg>
