<svg xmlns="http://www.w3.org/2000/svg" viewBox="0 0 31.9 31.9">
    <defs>
        <style>
            .cls-1{fill:none}.cls-2{fill:#f0f0f0}.cls-3{fill:#ffda44}.cls-4{fill:#496e2d}.cls-5{clip-path:url(#clip-path)}.cls-6{fill:#a2001d}
        </style>
        <clipPath id="clip-path" transform="translate(0 -.02)">
            <path d="M0 0h31.93v32H0z" class="cls-1"/>
        </clipPath>
    </defs>
    <g id="Layer_2" data-name="Layer 2">
        <g id="mz">
            <path d="M31.9 16A16 16 0 1 1 16 0a16 16 0 0 1 16 16z" class="cls-2" transform="translate(0 -.02)"/>
            <path d="M8.62 22.22l-3.95 5a15.94 15.94 0 0 0 26-5z" class="cls-3" transform="translate(0 -.02)"/>
            <path d="M30.66 9.79a15.95 15.95 0 0 0-26-5.09l4 5.09z" class="cls-4" transform="translate(0 -.02)"/>
            <g class="cls-5">
                <path d="M3.47 11.76v8.38h27.88A15.93 15.93 0 0 0 31.9 16a16.22 16.22 0 0 0-.56-4.22z" transform="translate(0 -.02)"/>
                <path d="M4.67 4.7a15.94 15.94 0 0 0 0 22.55L16 16z" class="cls-6" transform="translate(0 -.02)"/>
            </g>
            <path d="M6.46 11.81l1 3.18h3.34l-2.7 2 1 3.18-2.7-2-2.71 2 1-3.18-2.7-2h3.43z" class="cls-3" transform="translate(0 -.02)"/>
            <path d="M3.43 15.95h6.05v2.77H3.43z" class="cls-2"/>
            <path d="M10.62 12.8l-1-1L6.46 15l-3.19-3.19-1 1L5.48 16l-3.19 3.17 1 1L6.46 17l3.18 3.18 1-1L7.43 16z" transform="translate(0 -.02)"/>
        </g>
    </g>
</svg>
