<svg xmlns="http://www.w3.org/2000/svg" viewBox="0 0 32 32">
    <defs>
        <style>
            .cls-1{fill:#f0f0f0}.cls-2{fill:#a2001d}.cls-3{fill:#496e2d}.cls-4{fill:#0052b4}
        </style>
    </defs>
    <g id="Layer_2" data-name="Layer 2">
        <g id="gm">
            <path d="M32 16A16 16 0 1 1 16 0a16 16 0 0 1 16 16z" class="cls-1"/>
            <path d="M16 0A16 16 0 0 0 1.27 9.74h29.46A16 16 0 0 0 16 0z" class="cls-2"/>
            <path d="M16 32a16 16 0 0 0 14.73-9.74H1.27A16 16 0 0 0 16 32z" class="cls-3"/>
            <path d="M31.45 11.83H.55a16.08 16.08 0 0 0 0 8.34h30.9a16.08 16.08 0 0 0 0-8.34z" class="cls-4"/>
        </g>
    </g>
</svg>
