<svg xmlns="http://www.w3.org/2000/svg" viewBox="0 0 32 32">
    <defs>
        <style>
            .cls-1{fill:#6da544}.cls-2{fill:#f0f0f0}
        </style>
    </defs>
    <g id="Layer_2" data-name="Layer 2">
        <g id="sa">
            <path d="M32 16A16 16 0 1 1 16 0a16 16 0 0 1 16 16z" class="cls-1"/>
            <path d="M9 19.13a2.1 2.1 0 0 0 2.09 2.09h6.26A1.74 1.74 0 0 0 19.13 23h2.09A1.74 1.74 0 0 0 23 21.22v-2.09zM23.13 9v4.87a1.39 1.39 0 0 1-1.39 1.39v2.09a3.48 3.48 0 0 0 3.48-3.48V9zM8.17 13.91a1.39 1.39 0 0 1-1.39 1.39v2.09a3.48 3.48 0 0 0 3.48-3.48V9H8.17z" class="cls-2"/>
            <path d="M20 9.04h2.09v4.87H20zM16.87 11.83a.35.35 0 0 1-.7 0V9h-2.08v2.79a.35.35 0 0 1-.7 0V9H11.3v2.79a2.44 2.44 0 0 0 2.44 2.43 2.37 2.37 0 0 0 1.39-.44 2.39 2.39 0 0 0 1.39.44h.31a1.39 1.39 0 0 1-1.35 1.06v2.09A3.48 3.48 0 0 0 19 13.91V9h-2.13z" class="cls-2"/>
            <path d="M11.3 15.3h3.13v2.09H11.3z" class="cls-2"/>
        </g>
    </g>
</svg>
