<svg xmlns="http://www.w3.org/2000/svg" viewBox="0 0 32 32">
    <defs>
        <style>
            .cls-1{fill:#ffda44}.cls-2{fill:#0052b4}.cls-3{fill:#f0f0f0}
        </style>
    </defs>
    <g id="Layer_2" data-name="Layer 2">
        <g id="cw">
            <circle cx="16" cy="16" r="16" class="cls-1"/>
            <path d="M16 32a16 16 0 0 0 12.83-6.43H3.17A16 16 0 0 0 16 32zM32 16A16 16 0 1 0 .93 21.39h30.14A16 16 0 0 0 32 16z" class="cls-2"/>
            <path d="M10.95 10.26l.86 2.66h2.8l-2.26 1.64.86 2.66-2.26-1.64-2.26 1.64.86-2.66-2.26-1.64h2.8l.86-2.66zM6.15 7.48l.52 1.59h1.68l-1.36.99.52 1.59-1.36-.98-1.35.98.52-1.59-1.36-.99h1.67l.52-1.59z" class="cls-3"/>
        </g>
    </g>
</svg>
