<svg xmlns="http://www.w3.org/2000/svg" id="Layer_1" viewBox="0 0 23 18.2">
    <style>
        .st0{fill:none;stroke:#fff;stroke-linecap:round;stroke-miterlimit:10}
    </style>
    <g id="Layer_2_1_">
        <g id="Row_1">
            <g id="Bot_Detection">
                <path d="M3.8.5h15.3c.5 0 .9.4.9.9v15.3c0 .5-.4.9-.9.9H3.8c-.5 0-.9-.4-.9-.9V1.4c0-.5.4-.9.9-.9z" class="st0"/>
                <path d="M4.8 5l5.1 1c0 1.3-1.1 2.3-2.4 2.3h-.1C4.9 8.3 4.8 5 4.8 5zM18.2 5l-5.1 1c0 1.3 1.1 2.3 2.4 2.3h.1c2.5 0 2.6-3.3 2.6-3.3zM22.5 4.1v8.2M.5 4.1v8.2M6.3 13.3h10.6" class="st0"/>
            </g>
        </g>
    </g>
</svg>
