<svg xmlns="http://www.w3.org/2000/svg" id="Layer_1" viewBox="0 0 21.3 12">
    <style>
        .st0{fill:none;stroke:#fff;stroke-miterlimit:10}.st1{fill:#fff}
    </style>
    <g id="Layer_2_1_">
        <g id="Action_icons">
            <g id="View">
                <path d="M.7 6.2c1.8 2.1 4.1 3.7 6.6 4.7 2.3.9 4.9.8 7.1-.1 1.9-.8 3.6-1.9 5.1-3.4.5-.4.8-.8 1.2-1.2l-.1-.1c-1.5-1.9-3.4-3.4-5.6-4.5A8.83 8.83 0 0 0 7.9 1c-2 .7-3.8 1.8-5.3 3.3-.7.5-1.3 1.2-1.9 1.9z" class="st0"/>
                <path d="M.7 6.2c.6-.7 1.2-1.3 1.9-1.9C4.1 2.8 5.9 1.7 7.9 1c2.4-.8 4.9-.6 7.1.6 2.2 1.1 4.1 2.6 5.6 4.5l.1.1c-.4.4-.7.8-1.1 1.2-1.5 1.4-3.2 2.6-5.1 3.4-2.3 1-4.8 1-7.2.1-2.6-1-4.8-2.6-6.6-4.7zM7 6c0 2 1.6 3.7 3.6 3.7S14.3 8 14.3 6s-1.6-3.7-3.6-3.7h-.1C8.6 2.4 7 4 7 6z" class="st0"/>
                <path d="M12.6 4.8c.5.8.5 1.8-.1 2.5-.6.8-1.8 1.1-2.7.7C8.5 7.6 8 6.2 8.5 5.1c.3-.8 1.1-1.4 2-1.4-.5.4-.6 1.1-.2 1.7.3.4.8.6 1.3.5.5-.1.8-.5 1-1.1z" class="st1"/>
            </g>
        </g>
    </g>
</svg>
