<svg xmlns="http://www.w3.org/2000/svg" viewBox="0 0 32 32">
    <defs>
        <style>
            .cls-1{fill:#fcfcfc}.cls-2{fill:#ffda44}.cls-3{fill:#f0f0f0}.cls-4{fill:#338af3}.cls-5{fill:#d80027}.cls-6{fill:#0052b4}
        </style>
    </defs>
    <g id="Layer_2" data-name="Layer 2">
        <g id="vi">
            <path d="M32 16A16 16 0 1 1 16 0a16 16 0 0 1 16 16z" class="cls-1"/>
            <path d="M18.72 11.18a2.72 2.72 0 0 0-5.44 0h-6a2.75 2.75 0 0 0 2.77 2.67H10a2.68 2.68 0 0 0 2.68 2.68 2.68 2.68 0 0 0 2.18 2.63h2.32a2.68 2.68 0 0 0 2.18-2.63A2.68 2.68 0 0 0 22 13.85h-.09a2.75 2.75 0 0 0 2.77-2.67z" class="cls-2"/>
            <path d="M14.81 18.9l-1.69 3.8a7.69 7.69 0 0 0 5.76 0l-1.69-3.8z" class="cls-2"/>
            <path d="M12.52 12.51v4.68c0 2.67 3.48 3.48 3.48 3.48s3.48-.81 3.48-3.48v-4.68z" class="cls-3"/>
            <path d="M3.88 16.11l1.88 5.26 1.86-5.26H9l-2.71 7h-1.1l-2.73-7zM25.74 16.11h1.35v6.96h-1.35z" class="cls-4"/>
            <path d="M13.91 14v5.7a6.66 6.66 0 0 0 1.39.75V14zM18.09 14v5.7a6.66 6.66 0 0 1-1.39.75V14z" class="cls-5"/>
            <path d="M12.52 12.51h6.96v2.21h-6.96z" class="cls-6"/>
        </g>
    </g>
</svg>
