<svg xmlns="http://www.w3.org/2000/svg" id="Layer_1" viewBox="0 0 23 22.3">
    <style>
        .st0,.st1{fill:none;stroke:#fff;stroke-miterlimit:10}.st1{stroke-linecap:round}
    </style>
    <g id="Layer_2_1_">
        <g id="Row_1">
            <g id="data_leakage">
                <path d="M1.2.5h20.5c.4 0 .7.3.7.7V4H.4V1.2C.5.8.8.5 1.2.5z" class="st0"/>
                <path d="M5.4 19.5H1.2c-.4 0-.7-.3-.7-.7v-13h22v13c0 .4-.3.7-.7.7h-4.5" class="st1"/>
                <path d="M2.2 2.5H3M15 18.3c-.1-1-.4-1.9-.9-2.7-.5-1.1-1.2-2.2-1.8-3.3l-.9-1.4c-2.3 3.6-3.5 6.1-3.5 7.5 0 .9.4 1.8 1.1 2.5 1.4 1.4 3.7 1.4 5.1 0 .5-.8.9-1.7.9-2.6z" class="st0"/>
            </g>
        </g>
    </g>
</svg>
