<svg xmlns="http://www.w3.org/2000/svg" viewBox="0 0 32 32">
    <defs>
        <style>
            .cls-1{fill:#f0f0f0}.cls-2{fill:#d80027}.cls-3{fill:#0052b4}
        </style>
    </defs>
    <g id="Layer_2" data-name="Layer 2">
        <g id="US">
            <circle cx="16" cy="16" r="16" class="cls-1"/>
            <path d="M15.3 16H32a16 16 0 0 0-.55-4.17H15.3zM15.3 7.65h14.35A16 16 0 0 0 26 3.48H15.3zM16 32a15.9 15.9 0 0 0 10-3.48H6A15.9 15.9 0 0 0 16 32zM2.35 24.35h27.3a15.87 15.87 0 0 0 1.8-4.18H.55a15.87 15.87 0 0 0 1.8 4.18z" class="cls-2"/>
            <path d="M7.41 2.5h1.46l-1.36 1L8 5.08l-1.35-1-1.36 1 .48-1.38a16.26 16.26 0 0 0-3.11 3.46h.47l-.86.63c-.14.22-.27.45-.39.68l.41 1.27-.77-.56c-.19.41-.36.82-.52 1.24l.45 1.4h1.68l-1.36 1 .52 1.59-1.35-1-.82.59A16.52 16.52 0 0 0 0 16h16V0a15.94 15.94 0 0 0-8.59 2.5zM8 14.4l-1.35-1-1.36 1 .52-1.59-1.36-1h1.71l.52-1.59.51 1.59h1.68l-1.36 1zm-.49-6.26L8 9.74l-1.35-1-1.36 1 .52-1.6-1.36-1h1.71l.52-1.59.51 1.59h1.68zm6.26 6.26l-1.36-1-1.35 1 .52-1.59-1.36-1h1.68l.51-1.59.52 1.59h1.68l-1.36 1zm-.52-6.26l.52 1.6-1.36-1-1.35 1 .52-1.6-1.36-1h1.68l.51-1.59.52 1.59h1.68zm0-4.66l.52 1.6-1.36-1-1.35 1 .52-1.6-1.36-1h1.68L12.41.9l.52 1.6h1.68z" class="cls-3"/>
        </g>
    </g>
</svg>
