<svg xmlns="http://www.w3.org/2000/svg" viewBox="0 0 31.9 31.9">
    <defs>
        <style>
            .cls-1{fill:none}.cls-2{fill:#f0f0f0}.cls-3{clip-path:url(#clip-path)}.cls-4{fill:#a2001d}.cls-5{fill:#0052b4}.cls-6{fill:#496e2d}.cls-7{fill:#ffda44}
        </style>
        <clipPath id="clip-path" transform="translate(0 -.02)">
            <path d="M0 0h31.93v32H0z" class="cls-1"/>
        </clipPath>
    </defs>
    <g id="Layer_2" data-name="Layer 2">
        <g id="na">
            <path d="M31.9 16A16 16 0 1 1 16 0a16 16 0 0 1 16 16z" class="cls-2" transform="translate(0 -.02)"/>
            <g class="cls-3">
                <path d="M4.67 27.25A15.55 15.55 0 0 0 6.8 29L29 6.83a16.29 16.29 0 0 0-1.77-2.13 15.55 15.55 0 0 0-2.13-1.79L2.88 25.12a16.29 16.29 0 0 0 1.79 2.13z" class="cls-4" transform="translate(0 -.02)"/>
                <path d="M4.67 4.7a16 16 0 0 0-2.9 18.59L23.26 1.8A15.94 15.94 0 0 0 4.67 4.7z" class="cls-5" transform="translate(0 -.02)"/>
                <path d="M27.23 27.25a16 16 0 0 0 2.9-18.59L8.64 30.15a15.94 15.94 0 0 0 18.59-2.9z" class="cls-6" transform="translate(0 -.02)"/>
            </g>
            <path d="M13.18 9l-1.79.84.95 1.73-1.94-.37-.25 2-1.35-1.44-1.35 1.44-.25-2-1.94.37 1-1.73L4.43 9l1.79-.8-1-1.73 1.94.37.25-2L8.8 6.32l1.35-1.44.25 2 1.94-.37-.95 1.69z" class="cls-7" transform="translate(0 -.02)"/>
        </g>
    </g>
</svg>
