<svg xmlns="http://www.w3.org/2000/svg" id="Layer_1" viewBox="0 0 23 21.5">
    <style>
        .st0{fill:none;stroke:#fff;stroke-linejoin:round}
    </style>
    <g id="Layer_2_1_">
        <g id="Hermony_controler">
            <g id="Row_6">
                <g id="Organization">
                    <path d="M22.1 21h-5.5c-.2 0-.4-.2-.4-.4v-4.3c0-.2.2-.4.4-.4h5.5c.2 0 .4.2.4.4v4.3c0 .3-.2.4-.4.4zM6.4 21H.9c-.2 0-.4-.2-.4-.4v-4.3c0-.2.2-.4.4-.4h5.5c.2 0 .4.2.4.4v4.3c0 .3-.2.4-.4.4zM14.3 21H8.7c-.2 0-.4-.2-.4-.4v-4.3c0-.2.2-.4.4-.4h5.5c.2 0 .4.2.4.4v4.3c0 .3-.1.4-.3.4z" class="st0"/>
                    <path d="M19.5 16v-5.6H3.4v5.8M11.5 15.9V5.6M14.3 5.5H8.7c-.2 0-.4-.2-.4-.4V.9c0-.2.2-.4.4-.4h5.5c.2 0 .4.2.4.4v4.3c0 .2-.1.3-.3.3z" class="st0"/>
                </g>
            </g>
        </g>
    </g>
</svg>
