<svg xmlns="http://www.w3.org/2000/svg" id="Layer_1" viewBox="0 0 19.2 22">
    <style>
        .st0{fill:none;stroke:#fff;stroke-linecap:round;stroke-miterlimit:10}
    </style>
    <g id="Layer_2_1_">
        <g id="Action_icons">
            <g id="Delete">
                <path d="M16.6 6.3v13.6c0 .9-.7 1.6-1.6 1.6H3.9c-.9 0-1.6-.7-1.6-1.6V6.3M6 6.3v13.3M9.6 6.3v13.3M13 6.2v13.4M1.5 3.4h16.1c.6 0 1 .5 1 1 0 .6-.5 1-1 1H1.5c-.6 0-1-.5-1-1 0-.6.5-1 1-1zM6.3 2.4c0-.5.2-1 .6-1.4.4-.4.8-.6 1.4-.6h2.4c1.1 0 1.9.9 1.9 1.9" class="st0"/>
            </g>
        </g>
    </g>
</svg>
