<svg xmlns="http://www.w3.org/2000/svg" viewBox="0 0 22.5 18.67">
    <defs>
        <style>
            .cls-1{fill:none;stroke:#383838;stroke-linecap:round;stroke-linejoin:round}
        </style>
    </defs>
    <g id="Layer_2" data-name="Layer 2">
        <g id="Hermony_controler" data-name="Hermony controler">
            <g id="Row_7" data-name="Row 7">
                <g id="Apps_Catalog" data-name="Apps Catalog">
                    <path d="M9.34 5.66V9a.36.36 0 0 1-.34.32H5.82M4.05 9.32H.89A.36.36 0 0 1 .52 9V.87A.37.37 0 0 1 .89.5H9a.37.37 0 0 1 .36.37v3" class="cls-1"/>
                    <path d="M9.34 3.88a1.27 1.27 0 0 1 .88-.36 1.25 1.25 0 1 1 0 2.5 1.27 1.27 0 0 1-.88-.36M4.05 9.33a1.25 1.25 0 1 1 1.77 0M5.78 9.35H9a.36.36 0 0 1 .36.36v3.16M9.32 14.64v3.16a.36.36 0 0 1-.36.37H.87a.37.37 0 0 1-.37-.37V9.71a.37.37 0 0 1 .37-.36h3M9.33 14.64a1.25 1.25 0 1 1 0-1.77M13.51 4.08H22M13.51 14.07H22" class="cls-1"/>
                </g>
            </g>
        </g>
    </g>
</svg>
