<svg xmlns="http://www.w3.org/2000/svg" id="Layer_1" viewBox="0 0 23 21.9">
    <style>
        .st0,.st1{fill:none;stroke:#fff;stroke-linejoin:round}.st1{stroke-linecap:round}
    </style>
    <g id="Layer_2_1_">
        <g id="Layer_1-2">
            <g id="Network">
                <path d="M5.7 4.9H.8c-.2 0-.3-.1-.3-.3V.8C.5.6.6.5.8.5h4.8c.3 0 .4.1.4.3v3.7c0 .3-.1.4-.3.4zM14.5 13.7h-6c-.2 0-.4-.2-.4-.4V8.6c0-.2.2-.4.4-.4h6.1c.2 0 .4.2.4.4v4.7c-.1.2-.2.4-.5.4zM22.2 4.9h-4.8c-.2 0-.3-.1-.3-.3V.8c0-.2.1-.3.3-.3h4.8c.2 0 .3.1.3.3v3.7c0 .3-.1.4-.3.4zM5.7 21.4H.8c-.2 0-.3-.1-.3-.3v-3.7c0-.2.1-.3.3-.3h4.8c.3-.1.4 0 .4.2V21c0 .3-.1.4-.3.4zM22.2 21.4h-4.8c-.2 0-.3-.1-.3-.3v-3.7c0-.2.1-.3.3-.3h4.8c.2 0 .3.1.3.3v3.7c0 .2-.1.3-.3.3z" class="st0"/>
                <path d="M16.4 19.4h-10M19.8 5.5v11M6.6 2.9h9.8M3.3 16.4V5.5M11.8 8.1V2.9M11.8 14.2V19M7.7 10.8H3.5M15.2 10.8h4.2" class="st1"/>
            </g>
        </g>
    </g>
</svg>
