<svg xmlns="http://www.w3.org/2000/svg" id="Layer_1" viewBox="0 0 22 22">
    <style>
        .st0{fill:none;stroke:#fff;stroke-miterlimit:10}
    </style>
    <g id="Layer_2_1_">
        <g id="Action_icons">
            <path id="World_map" d="M11 .5C6.8.5 3 3 1.4 6.9l-.1.2c-2.2 5.4.4 11.5 5.8 13.7s11.5-.4 13.7-5.8-.5-11.6-5.9-13.7C13.7.8 12.4.5 11 .5zm8.2 15.8l-.5-.5v-1.3-.2l-1.4-2.7v-1.3c0-.1-.1-.2-.2-.3l-1-.7c-.1-.1-.2-.1-.3-.1l-1.3.3-2.2-.9-.3-2.1.8-.8h1.8l.6.9.2.2 2.1.3h.2l1.9-.6c1.7 3.1 1.5 6.8-.4 9.8zM17.8 4l-.6.4-1.6-.4-1-.3h-.2l-1.3.3-.6-.2.5-.8h1.4l1.2-.6c.8.4 1.5 1 2.2 1.6zM7.2 2l.8.5s.1 0 .1.1l1.7.3-.1.5-.9.3c-.1 0-.1.1-.2.2l-1 1.7-1.6.9-2.4.3c-.2 0-.3.2-.3.4v1c0 .1 0 .2.1.3L4 9v.6l-1.5-1L2 7.1C3 4.8 4.9 3 7.2 2zm-1 11.5l-1.6-.3L4 12v-.8l1.3-1.3.5 1c0 .1.2.2.3.2h2.3l1 1.6c.1.1.2.2.3.2h1l-.4 1.1L9 15.3c-.1.1-.1.2-.1.3v.9l-1.3 1c-.1.1-.1.2-.1.3v1.3l-.4-.1-.6-1.5v-3.4c-.1-.5-.2-.6-.3-.6z" class="st0"/>
        </g>
    </g>
</svg>
