<svg xmlns="http://www.w3.org/2000/svg" id="Layer_1" viewBox="0 0 22 21.8">
    <style>
        .st0{stroke-linecap:round}.st0,.st1{fill:none;stroke:#fff;stroke-miterlimit:10}
    </style>
    <g id="Layer_2_1_">
        <g id="Row_1">
            <g id="Policies">
                <path d="M17.5 10.2V2.3c0-1.5-.2-1.8-.5-1.8H1.2C.8.5.5.8.5 1.2V16l5.3 5.3h5.9m-10.8-5H5c.3 0 .5.2.5.5v4.1" class="st0"/>
                <path d="M3.2 4.7h11.1M3.2 7.7h11.1M3.2 10.6h11.1M16.8 17.9c-.7 0-1.3-.6-1.3-1.3 0-.7.6-1.3 1.3-1.3.7 0 1.3.6 1.3 1.3 0 .7-.6 1.3-1.3 1.3z" class="st1"/>
                <path d="M17.4 21.3h-1.1c-.1 0-.2-.1-.2-.2v-1c-.4-.1-.8-.3-1.2-.5l-.7.7c-.1.1-.2.1-.2 0l-.8-.8c-.1-.1-.1-.2 0-.2l.7-.7c-.2-.4-.4-.8-.5-1.2h-1c-.1 0-.2-.1-.2-.2V16c0-.1.1-.2.1-.2h1c.1-.4.3-.8.5-1.2l-.7-.7c-.1-.1-.1-.2 0-.2l.8-.8c.1-.1.2-.1.2 0l.7.7c.4-.2.8-.4 1.2-.5v-1c0-.1.1-.2.1-.2h1.1c.1 0 .2.1.2.2v1c.4.1.8.3 1.2.5l.7-.7c.1-.1.2-.1.2 0l.8.8c.1.1.1.1 0 .2l-.7.7c.2.4.4.8.5 1.2h1c.1 0 .2.1.2.2v1.1c0 .1-.1.2-.2.2h-1c-.1.4-.3.8-.5 1.2l.7.7c.1.1.1.2 0 .2l-.8.8c-.1.1-.2.1-.2 0l-.7-.7c-.2.3-.6.5-1 .5v1c0 .1-.1.2-.2.3 0-.1 0-.1 0 0z" class="st1"/>
            </g>
        </g>
    </g>
</svg>
