<svg xmlns="http://www.w3.org/2000/svg" viewBox="0 0 32 32">
    <defs>
        <style>
            .cls-1{fill:#f0f0f0}.cls-2{fill:#496e2d}
        </style>
    </defs>
    <g id="Layer_2" data-name="Layer 2">
        <g id="pk">
            <path d="M32 16A16 16 0 1 1 16 0a16 16 0 0 1 16 16z" class="cls-1"/>
            <path d="M0 16a16 16 0 0 0 8.35 14.05V2A16 16 0 0 0 0 16z" class="cls-1"/>
            <path d="M16 0a15.92 15.92 0 0 0-7.65 2v28.1A16 16 0 1 0 16 0z" class="cls-2"/>
            <path d="M22.84 18.65a4.52 4.52 0 0 1-5.3-7.33 4.45 4.45 0 0 1 2.07-.82 5.56 5.56 0 1 0 4.66 6.5 4.64 4.64 0 0 1-1.43 1.7zM22.75 10.43l1.14 1.23 1.53-.7-.82 1.46 1.14 1.23-1.65-.32-.81 1.46-.2-1.66-1.65-.33 1.57-.7z" class="cls-1"/>
        </g>
    </g>
</svg>
