<svg xmlns="http://www.w3.org/2000/svg" id="Layer_1" viewBox="0 0 21 22">
    <style>
        .st0{fill:none;stroke:#fff;stroke-linecap:round;stroke-linejoin:round}
    </style>
    <g id="Layer_2_1_">
        <g id="Action_icons">
            <g id="Bar_chart">
                <path d="M1 14.1h3.5c.3 0 .5.2.5.5V21c0 .3-.2.5-.5.5H1c-.3 0-.5-.2-.5-.5v-6.3c0-.3.2-.6.5-.6zM8.8 10.1h3.5c.3 0 .5.2.5.5V21c0 .3-.2.5-.5.5H8.8c-.3 0-.5-.2-.5-.5V10.6c-.1-.2.2-.5.5-.5zM16.5.5H20c.3 0 .5.2.5.5v20c0 .3-.2.5-.5.5h-3.5c-.3 0-.5-.2-.5-.5V1c-.1-.3.2-.5.5-.5z" class="st0"/>
            </g>
        </g>
    </g>
</svg>
