<svg xmlns="http://www.w3.org/2000/svg" viewBox="0 0 32 32">
    <defs>
        <style>
            .cls-1{fill:#496e2d}.cls-2{fill:#f0f0f0}.cls-3{fill:#ffda44}
        </style>
    </defs>
    <g id="Layer_2" data-name="Layer 2">
        <g id="mo">
            <path d="M32 16A16 16 0 1 1 16 0a16 16 0 0 1 16 16z" class="cls-1"/>
            <path d="M18.78 15.33a3.17 3.17 0 0 0-1.11.21 3.46 3.46 0 0 0 .32-1.4c0-2-2-3.48-2-3.48s-2 1.49-2 3.48a3.46 3.46 0 0 0 .32 1.4 3.17 3.17 0 0 0-1.11-.21c-2 0-3.48 2-3.48 2s1.49 2 3.48 2a4.35 4.35 0 0 0 2.8-1.27 4.35 4.35 0 0 0 2.78 1.25c2 0 3.48-2 3.48-2s-1.49-2-3.48-2z" class="cls-2"/>
            <path d="M16 6.26l.41 1.26h1.33l-1.08.79.41 1.26L16 8.79l-1.07.78.41-1.26-1.08-.79h1.33zM11 8.47l.79.71.92-.53-.43 1 .79.71-1.07-.14-.43 1-.22-1-1.1-.22.92-.53zM7.25 12.17l1 .22.53-.92.11 1.06 1 .22-1 .43.11 1.06-.71-.79-1 .43L8 13zM21.05 8.47l-.79.71-.92-.53.43 1-.79.71 1.02-.14.43 1 .22-1 1.1-.22-.92-.53zM24.75 12.17l-1 .22-.53-.92-.11 1.06-1 .22 1 .43-.11 1.06.71-.79 1 .43L24 13z" class="cls-3"/>
            <path d="M16 24.87a6.9 6.9 0 0 0 4.2-1.41h-8.4a6.9 6.9 0 0 0 4.2 1.41zM9.62 20.7a6.87 6.87 0 0 0 .83 1.41h11.1a6.87 6.87 0 0 0 .83-1.41z" class="cls-2"/>
        </g>
    </g>
</svg>
