<svg xmlns="http://www.w3.org/2000/svg" id="Layer_1" viewBox="0 0 22 22">
    <style>
        .st0,.st1{fill:none;stroke:#fff;stroke-linecap:round}.st0{stroke-linejoin:round}.st1{stroke-miterlimit:10}
    </style>
    <g id="Layer_2_1_">
        <g id="Action_icons">
            <g id="Table_view">
                <path d="M1.4.5h19.2c.5 0 .9.4.9.9v19.2c0 .5-.4.9-.9.9H1.4c-.5 0-.9-.4-.9-.9V1.4c0-.5.4-.9.9-.9z" class="st0"/>
                <path d="M.7 4.9h20.6M7.2 4.9v16.5M14.8 4.9v16.5M2.4 8.2h3M2.4 13.2h3M2.4 18.2h3M9.5 8.2h3M9.5 13.2h3M9.5 18.2h3M16.7 8.2h3M16.7 13.2h3M16.7 18.2h3" class="st1"/>
            </g>
        </g>
    </g>
</svg>
