<svg xmlns="http://www.w3.org/2000/svg" id="Layer_1" viewBox="0 0 23 19.9">
    <style>
        .st0{stroke-linecap:round;stroke-miterlimit:10}.st0,.st1,.st2{fill:none;stroke:#fff}.st1{stroke-miterlimit:10}.st2{stroke-linecap:round;stroke-linejoin:bevel}
    </style>
    <g id="Layer_2_1_">
        <g id="Row_2">
            <g id="nagative-security">
                <path d="M15.1 12.2L12.9 10M15.1 12.2l4.4-4.4" class="st0"/>
                <path d="M22.2 2.8C16.8 2.8 16 .7 15.9.7c0-.1-.1-.2-.2-.2s-.2.1-.3.2c0 0-.9 2.1-6.3 2.1-.1 0-.2.1-.2.3v9.4c0 3.9 6.4 6.8 6.7 6.9h.2c.3-.1 6.7-3.1 6.7-6.9V3.1c0-.2-.1-.3-.3-.3z" class="st1"/>
                <path id="UP_arrow" d="M.5 15.5l3.8 3.8M4.3.8v18.6" class="st2"/>
            </g>
        </g>
    </g>
</svg>
