<svg xmlns="http://www.w3.org/2000/svg" viewBox="0 0 23 23">
    <defs>
        <style>
            .cls-1{fill:none;stroke:#383838;stroke-miterlimit:10}
        </style>
    </defs>
    <g id="Layer_2" data-name="Layer 2">
        <g id="Thunder_ADC" data-name="Thunder ADC">
            <g id="Row_1" data-name="Row 1">
                <g id="Settings_2" data-name="Settings 2">
                    <path d="M11.5 14.57a3.07 3.07 0 1 1 3.07-3.07 3.08 3.08 0 0 1-3.07 3.07z" class="cls-1"/>
                    <path d="M12.83 22.5h-2.67a.39.39 0 0 1-.39-.4v-2.39a8.42 8.42 0 0 1-2.85-1.17l-1.69 1.68a.39.39 0 0 1-.56 0l-1.89-1.88a.4.4 0 0 1 0-.57l1.69-1.68a8.18 8.18 0 0 1-1.18-2.86H.9a.39.39 0 0 1-.4-.39v-2.67a.4.4 0 0 1 .4-.4h2.39a8.22 8.22 0 0 1 1.17-2.85L2.78 5.23a.39.39 0 0 1 0-.56l1.88-1.89a.4.4 0 0 1 .57 0l1.68 1.68a8.35 8.35 0 0 1 2.86-1.17V.9a.39.39 0 0 1 .39-.4h2.67a.4.4 0 0 1 .4.4v2.39a8.05 8.05 0 0 1 2.85 1.18l1.69-1.69a.4.4 0 0 1 .57 0l1.88 1.89a.39.39 0 0 1 0 .56l-1.68 1.69a8.5 8.5 0 0 1 1.17 2.85h2.39a.4.4 0 0 1 .4.4v2.67a.39.39 0 0 1-.4.39h-2.39a8.32 8.32 0 0 1-1.18 2.85l1.69 1.69a.4.4 0 0 1 0 .57l-1.89 1.88a.4.4 0 0 1-.56 0l-1.69-1.69a8.24 8.24 0 0 1-2.85 1.18v2.39a.4.4 0 0 1-.4.4z" class="cls-1"/>
                </g>
            </g>
        </g>
    </g>
</svg>
