<svg xmlns="http://www.w3.org/2000/svg" viewBox="0 0 22.18 21.71">
    <defs>
        <style>
            .cls-1{fill:none;stroke:#383838;stroke-miterlimit:10}
        </style>
    </defs>
    <g id="Layer_2" data-name="Layer 2">
        <g id="Thunder_ADC" data-name="Thunder ADC">
            <g id="Row_1" data-name="Row 1">
                <g id="Settings_1" data-name="Settings 1">
                    <path d="M21.63 6.51L21 4.08l-2.38 2.35a.91.91 0 0 1-1.29 0l-1.58-1.57a.92.92 0 0 1 0-1.3l2.36-2.35-2.43-.65L12.24 4l.5 1.85-.15.15L1.76 16.8a2.56 2.56 0 0 0 3.62 3.62L16.21 9.59l.13-.14 1.85.49z" class="cls-1"/>
                    <circle cx="3.62" cy="18.56" r="1.27" class="cls-1"/>
                    <path d="M9.1 7.92L5.82 4.64l-.61-1.61L1.39.79l-.76.76 2.24 3.82 1.6.62 3.28 3.28M15.86 12l4.35 4.34a2.87 2.87 0 0 1 0 4 2.86 2.86 0 0 1-4.05 0L11.82 16M14.52 13.33l4.49 4.5M13.17 14.68l4.49 4.5" class="cls-1"/>
                </g>
            </g>
        </g>
    </g>
</svg>
