<svg xmlns="http://www.w3.org/2000/svg" viewBox="0 0 32 32">
    <defs>
        <style>
            .cls-1{fill:#ffda44}.cls-2{fill:#0052b4}.cls-3{fill:#f0f0f0}.cls-4{fill:#d80027}
        </style>
    </defs>
    <g id="Layer_2" data-name="Layer 2">
        <g id="nu">
            <path d="M32 16a16 16 0 0 1-32 0L16 0a16 16 0 0 1 16 16z" class="cls-1"/>
            <path d="M16 7.65v5.4l-5.57-5.4zM8.35 16h4.7l-4.7-6.26-.7 4.87z" class="cls-2"/>
            <path d="M16 16zM16 8.35V0A16 16 0 0 0 0 16h8.35v-4.7l4.7 4.7H16v-2.95l-4.7-4.7z" class="cls-3"/>
            <path d="M16 14l-5.68-5.65h-2L16 16z" class="cls-4"/>
            <path d="M8.09 2.09a15.81 15.81 0 0 0-1.76 1.17H7L5.25 4.52l.66 2L4.17 5.3 4 5.43a16.08 16.08 0 0 0-1.9 2.66V16h4.16V6.26H16V2.09z" class="cls-4"/>
            <path d="M6.83 2.88l-.51.38-1.07 1.26-1.08.78-.17.13c-.4.45-.76.92-1.11 1.4a3 3 0 0 0 4-3.95z" class="cls-2"/>
            <path d="M4 5.43l.18-.13 1.73 1.26-.66-2L7 3.26h-.68A15.94 15.94 0 0 0 4 5.43zM11.06 2.78l.34 1.07h1.12l-.9.65.38 1.07-.9-.66-.91.66.31-1.07-.9-.65h1.11zM4.17 9.74l.35 1.06h1.12l-.91.66.35 1.06-.91-.66-.9.66.35-1.06-.91-.66h1.12z" class="cls-1"/>
        </g>
    </g>
</svg>
