<svg xmlns="http://www.w3.org/2000/svg" viewBox="0 0 32 32">
    <defs>
        <style>
            .cls-1{fill:#f0f0f0}.cls-2{fill:#0052b4}
        </style>
    </defs>
    <g id="Layer_2" data-name="Layer 2">
        <g id="il">
            <path d="M32 16A16 16 0 1 1 16 0a16 16 0 0 1 16 16z" class="cls-1"/>
            <path d="M22 12.52h-4L16 9l-2 3.48h-4L12 16l-2 3.48h4L16 23l2-3.48h4L20 16zM18.47 16l-1.24 2.14h-2.46L13.53 16l1.24-2.14h2.46zM16 11.73l.46.79h-.92zm-3.7 2.13h.92l-.46.8zm0 4.28l.46-.8.46.8zm3.7 2.13l-.46-.79h.92zm3.7-2.13h-.92l.46-.8zm-.92-4.28h.92l-.46.8zM26 3.48H6a16 16 0 0 0-3.65 4.17h27.3A16 16 0 0 0 26 3.48zM6 28.52h20a16 16 0 0 0 3.69-4.17H2.35A16 16 0 0 0 6 28.52z" class="cls-2"/>
        </g>
    </g>
</svg>
