<svg xmlns="http://www.w3.org/2000/svg" viewBox="0 0 32 32">
    <defs>
        <style>
            .cls-1{fill:#0052b4}.cls-2{fill:#f0f0f0}.cls-3{fill:#d80027}.cls-4{fill:#f3f3f3}.cls-5{fill:#ff9811}.cls-6{fill:#338af3}
        </style>
    </defs>
    <g id="Layer_2" data-name="Layer 2">
        <g id="AI">
            <path d="M32 16a16 16 0 0 1-32 0L16 0a16 16 0 0 1 16 16z" class="cls-1"/>
            <path d="M16 16zM16 8.35V0A16 16 0 0 0 0 16h8.35v-4.7l4.7 4.7H16v-2.95l-4.7-4.7z" class="cls-2"/>
            <path d="M8.09 2.09a16 16 0 0 0-6 6V16h4.17V6.26H16V2.09z" class="cls-3"/>
            <path d="M16 14l-5.68-5.65h-2L16 16z" class="cls-3"/>
            <path d="M27.06 18.34a3.88 3.88 0 0 0 .77-2.34V9A3.47 3.47 0 0 1 23 8.35a3.5 3.5 0 0 1-2.79 1.39A3.43 3.43 0 0 1 18.09 9v7a3.88 3.88 0 0 0 .76 2.34z" class="cls-4"/>
            <path d="M25.61 14.71A5.76 5.76 0 0 0 26 13c0-.64-.83-1.15-.83-1.15s-.82.51-.82 1.15a5.71 5.71 0 0 0 .39 1.72l-.47 1.07a2.26 2.26 0 0 0 .9.18 2.31 2.31 0 0 0 .91-.18zM22.39 11.23a5.61 5.61 0 0 0-1.69.53c-.54.31-.57 1.28-.57 1.28s.85.46 1.4.14A5.64 5.64 0 0 0 22.82 12l1.18-.15a2.44 2.44 0 0 0-.3-.87 2.37 2.37 0 0 0-.6-.69zM21 15.76a5.87 5.87 0 0 0 1.3 1.2c.55.32 1.4-.14 1.4-.14s0-1-.58-1.28a5.61 5.61 0 0 0-1.7-.54l-.69-.94a2.23 2.23 0 0 0-.6.69 2.44 2.44 0 0 0-.3.87z" class="cls-5"/>
            <path d="M18.68 18.09C20 20.17 23 20.87 23 20.87s3-.7 4.27-2.78z" class="cls-6"/>
        </g>
    </g>
</svg>
