<svg xmlns="http://www.w3.org/2000/svg" id="Layer_1" viewBox="0 0 22.6 21.7">
    <style>
        .st0{fill:none;stroke:#fff;stroke-miterlimit:10}
    </style>
    <g id="Layer_2_1_">
        <g id="Thunder_ADC">
            <g id="Row_4">
                <g id="Monitor_1">
                    <path d="M8.3 11.3c0-1.7 1.3-3 3-3s3 1.3 3 3" class="st0"/>
                    <path d="M.5 11.3V10c0-.2.2-.4.4-.4h2.3c.2-1 .6-1.9 1.2-2.8L2.7 5.2c-.1-.2-.1-.4 0-.6l1.9-1.9c.2-.2.4-.2.6 0l1.7 1.7c.9-.6 1.8-1 2.8-1.2V.9c0-.2.2-.4.4-.4h2.6c.2 0 .4.2.4.4v2.3c1 .2 2 .6 2.8 1.2l1.7-1.7c.2-.2.4-.2.5 0L20 4.6c.2.2.2.4 0 .6l-1.7 1.7c.6.9.9 1.8 1.1 2.8h2.4c.2 0 .4.2.4.4v1.3M.2 14h14.1M19 14h3.2" class="st0"/>
                    <circle cx="16.8" cy="14" r="1.1" class="st0"/>
                    <path d="M22.2 17.2H8.1M3.4 17.2H.2" class="st0"/>
                    <circle cx="5.6" cy="17.2" r="1.1" class="st0"/>
                    <path d="M22.2 20.1h-9M8.5 20.1H.2" class="st0"/>
                    <circle cx="11" cy="20.1" r="1.1" class="st0"/>
                </g>
            </g>
        </g>
    </g>
</svg>
