<svg xmlns="http://www.w3.org/2000/svg" viewBox="0 0 17.85 23">
    <defs>
        <style>
            .cls-1{fill:none;stroke:#383838;stroke-miterlimit:10}
        </style>
    </defs>
    <g id="Layer_2" data-name="Layer 2">
        <g id="Row_1" data-name="Row 1">
            <g id="learning-2">
                <path d="M8.06 10A1.34 1.34 0 1 1 9.4 8.62 1.34 1.34 0 0 1 8.06 10z" class="cls-1"/>
                <path d="M8.64 13.43H7.47a.18.18 0 0 1-.17-.17v-1a3.71 3.71 0 0 1-1.25-.51l-.73.73a.18.18 0 0 1-.25 0l-.83-.82a.18.18 0 0 1 0-.25l.76-.79a3.39 3.39 0 0 1-.51-1.24h-1a.17.17 0 0 1-.17-.18V8a.17.17 0 0 1 .17-.17h1A3.51 3.51 0 0 1 5 6.61l-.74-.73a.18.18 0 0 1 0-.25l.83-.83a.18.18 0 0 1 .24 0l.74.74A3.51 3.51 0 0 1 7.3 5V4a.17.17 0 0 1 .17-.17h1.17a.17.17 0 0 1 .18.17v1a3.46 3.46 0 0 1 1.24.51l.74-.74a.2.2 0 0 1 .25 0l.82.83a.18.18 0 0 1 0 .25l-.73.73a3.71 3.71 0 0 1 .51 1.25h1a.18.18 0 0 1 .17.17v1.2a.18.18 0 0 1-.17.18h-1a3.48 3.48 0 0 1-.52 1.24l.74.74a.18.18 0 0 1 0 .25l-.82.82a.18.18 0 0 1-.25 0l-.74-.73a3.87 3.87 0 0 1-1.24.51v1a.18.18 0 0 1-.18.22z" class="cls-1"/>
                <path d="M15.41 8A7.46 7.46 0 0 0 .5 8a7.69 7.69 0 0 0 .37 2.34" class="cls-1"/>
                <path d="M.87 10.26a14.44 14.44 0 0 1-.35 8.68.33.33 0 0 0 .06.33c.79.92 5.46 3 9 3.23a.33.33 0 0 0 .23-.1.34.34 0 0 0 .1-.27 13.25 13.25 0 0 1 1-3.87h3.29a1.18 1.18 0 0 0 1.18-1.18v-3.46H17a.35.35 0 0 0 .3-.19.36.36 0 0 0 0-.36A18.8 18.8 0 0 1 15.41 8" class="cls-1"/>
            </g>
        </g>
    </g>
</svg>
