<svg xmlns="http://www.w3.org/2000/svg" viewBox="0 0 23 20.95">
    <defs>
        <style>
            .cls-1{fill:none;stroke:#383838;stroke-miterlimit:10}
        </style>
    </defs>
    <g id="Layer_2" data-name="Layer 2">
        <g id="Hermony_controler" data-name="Hermony controler">
            <g id="Row_5" data-name="Row 5">
                <g id="Devices">
                    <path d="M17.9 17.13a1.28 1.28 0 1 1 1.28-1.28 1.28 1.28 0 0 1-1.28 1.28z" class="cls-1"/>
                    <path d="M18.46 20.45h-1.12a.17.17 0 0 1-.17-.16v-1a3.19 3.19 0 0 1-1.17-.5l-.7.71a.16.16 0 0 1-.24 0l-.79-.79a.18.18 0 0 1 0-.24l.71-.7a3.39 3.39 0 0 1-.5-1.19h-1a.17.17 0 0 1-.16-.17v-1.12a.16.16 0 0 1 .16-.16h1a3.71 3.71 0 0 1 .49-1.2l-.7-.7a.16.16 0 0 1 0-.24l.73-.79a.18.18 0 0 1 .24 0l.7.71a3.37 3.37 0 0 1 1.19-.49v-1a.17.17 0 0 1 .17-.17h1.12a.16.16 0 0 1 .16.17v1a3.5 3.5 0 0 1 1.2.49l.7-.71a.18.18 0 0 1 .24 0l.79.79a.18.18 0 0 1 0 .24l-.71.71a3.37 3.37 0 0 1 .49 1.19h1a.16.16 0 0 1 .17.16v1.12a.17.17 0 0 1-.17.17h-1a3.53 3.53 0 0 1-.49 1.19l.71.7a.18.18 0 0 1 0 .24l-.79.79a.18.18 0 0 1-.24 0l-.71-.71a3.37 3.37 0 0 1-1.19.49v1a.16.16 0 0 1-.12.17zM10.3 3.15h5.98M7.71 3.15H5.87M2.66 2.83h.64v.64h-.64zM10.3 10.15h5.98M7.71 10.15H5.87M2.66 9.83h.64v.64h-.64zM10.3 17.15h.98M7.71 17.15H5.87M2.66 16.83h.64v.64h-.64z" class="cls-1"/>
                    <rect width="17.94" height="5.25" x=".5" y=".5" class="cls-1" rx=".75" ry=".75"/>
                    <path d="M12.12 12.82H1.25a.74.74 0 0 1-.75-.74V8.32a.74.74 0 0 1 .75-.74H17.7a.74.74 0 0 1 .74.74V9M13.61 19.9H1.25a.74.74 0 0 1-.75-.75V15.4a.75.75 0 0 1 .75-.75h10.63" class="cls-1"/>
                </g>
            </g>
        </g>
    </g>
</svg>
