<svg xmlns="http://www.w3.org/2000/svg" viewBox="0 0 32 32">
    <defs>
        <style>
            .cls-1{fill:#f0f0f0}.cls-2{fill:#0052b4}.cls-3{fill:#d80027}
        </style>
    </defs>
    <g id="Layer_2" data-name="Layer 2">
        <g id="fo">
            <path d="M32 16A16 16 0 1 1 16 0a16 16 0 0 1 16 16z" class="cls-1"/>
            <path d="M31.3 16l.56-2.09a15.62 15.62 0 0 0-.41-2.08H14.61V.06a16 16 0 0 0-2.09.32L9.74 2.09 8.35 2a15.92 15.92 0 0 0-2.09 1.31v8.52H.55a15.62 15.62 0 0 0-.41 2.08L.7 16l-.56 2.09a15.94 15.94 0 0 0 .41 2.08h5.71v8.52a15.92 15.92 0 0 0 2.09 1.36l2.08-.14 2.09 1.71a16 16 0 0 0 2.09.32V20.17h16.84a15.94 15.94 0 0 0 .41-2.08z" class="cls-2"/>
            <path d="M31.86 13.91H12.52V.38A15.74 15.74 0 0 0 8.35 2v12H.14a15.67 15.67 0 0 0 0 4.18h8.21v12a15.74 15.74 0 0 0 4.17 1.57V18.09h19.34a15.67 15.67 0 0 0 0-4.18z" class="cls-3"/>
        </g>
    </g>
</svg>
