<svg xmlns="http://www.w3.org/2000/svg" viewBox="0 0 32 32">
    <defs>
        <style>
            .cls-1{fill:#d80027}.cls-2{fill:#ffda44}.cls-3{fill:#f0f0f0}.cls-4{fill:#0052b4}
        </style>
    </defs>
    <g id="Layer_2" data-name="Layer 2">
        <g id="ki">
            <path d="M0 16a16 16 0 0 1 32 0" class="cls-1"/>
            <path d="M21.57 14.88L19.29 16l1.21 2.2-2.5-.52-.31 2.49L16 18.34l-1.72 1.83-.28-2.49-2.47.47L12.71 16l-2.28-1.07 2.28-1.07-1.21-2.2 2.47.47.31-2.49L16 11.42l1.72-1.83.28 2.49 2.47-.47-1.21 2.2zM20.17 5.22H17a1 1 0 1 0-2.08 0h-3.09a1.07 1.07 0 0 0 1.07 1 1 1 0 0 0 1 1 1 1 0 0 0 1.05 1H17a1 1 0 0 0 1.05-1 1 1 0 0 0 1-1 1.07 1.07 0 0 0 1.07-1z" class="cls-2"/>
            <path d="M32 16a16 16 0 0 1-32 0z" class="cls-3"/>
            <path d="M16 32a16 16 0 0 0 12.4-5.89c-.53-.36-.81-.94-1.73-.94-1.34 0-1.34 1.22-2.67 1.22s-1.33-1.22-2.67-1.22-1.33 1.22-2.66 1.22-1.34-1.22-2.67-1.22-1.33 1.22-2.67 1.22-1.33-1.22-2.66-1.22S9.33 26.39 8 26.39s-1.33-1.22-2.67-1.22c-.92 0-1.2.58-1.73.94A16 16 0 0 0 16 32zM29.33 18C28 18 28 16.82 26.67 16.82S25.33 18 24 18s-1.33-1.22-2.67-1.22S20 18 18.67 18s-1.34-1.18-2.67-1.18S14.67 18 13.33 18s-1.33-1.18-2.66-1.18S9.33 18 8 18s-1.33-1.22-2.67-1.22S4 18 2.67 18 1.33 16.83 0 16.82A16.84 16.84 0 0 0 .28 19c1.06.16 1.15 1.2 2.39 1.2S4 19 5.33 19 6.67 20.17 8 20.17 9.33 19 10.67 19s1.33 1.22 2.66 1.22S14.67 19 16 19s1.33 1.22 2.67 1.22S20 19 21.33 19s1.34 1.22 2.67 1.22S25.33 19 26.67 19s1.33 1.22 2.66 1.22 1.33-1 2.39-1.19a17.21 17.21 0 0 0 .28-2.21c-1.31 0-1.32 1.22-2.65 1.22zM26.67 21c-1.34 0-1.34 1.21-2.67 1.21S22.67 21 21.33 21s-1.33 1.21-2.66 1.21S17.33 21 16 21s-1.33 1.21-2.67 1.21S12 21 10.67 21 9.33 22.21 8 22.21 6.67 21 5.33 21 4 22.21 2.67 22.21c-1 0-1.23-.62-1.79-1a15.76 15.76 0 0 0 1.45 3.08 1.72 1.72 0 0 0 .34 0C4 24.35 4 23.13 5.33 23.13S6.67 24.35 8 24.35s1.33-1.22 2.67-1.22 1.33 1.22 2.66 1.22 1.34-1.22 2.67-1.22 1.33 1.22 2.67 1.22 1.33-1.22 2.66-1.22 1.34 1.22 2.67 1.22 1.33-1.22 2.67-1.22 1.33 1.22 2.66 1.22a1.72 1.72 0 0 0 .34 0 15.76 15.76 0 0 0 1.45-3.08c-.56.35-.83 1-1.79 1C28 22.21 28 21 26.67 21z" class="cls-4"/>
            <path d="M32 14.74c-1.28 0-1.3 1.21-2.62 1.21s-1.38-1.22-2.71-1.22S25.33 16 24 16s-1.33-1.22-2.67-1.22S20 16 18.67 16s-1.34-1.27-2.67-1.27S14.67 16 13.33 16s-1.33-1.27-2.66-1.27S9.33 16 8 16s-1.33-1.22-2.67-1.22S4 16 2.67 16 1.33 14.77.05 14.74v2.13c1.31 0 1.32 1.22 2.65 1.22s1.3-1.22 2.63-1.22S6.67 18.09 8 18.09s1.33-1.22 2.67-1.22 1.33 1.22 2.66 1.22 1.34-1.22 2.67-1.22 1.33 1.22 2.67 1.22 1.33-1.22 2.66-1.22 1.34 1.22 2.67 1.22 1.33-1.22 2.67-1.22 1.33 1.22 2.66 1.22 1.34-1.21 2.65-1.22V16c0-.29 0-.85-.05-1.26z" class="cls-3"/>
        </g>
    </g>
</svg>
