<svg xmlns="http://www.w3.org/2000/svg" viewBox="0 0 32 32">
    <defs>
        <style>
            .cls-1{fill:#ffda44}.cls-2{fill:#d80027}.cls-3{fill:#0052b4}.cls-4{fill:#ff9811}
        </style>
    </defs>
    <g id="Layer_2" data-name="Layer 2">
        <g id="AD">
            <path d="M9 30.41a16 16 0 0 0 13.92 0L24.35 16 23 1.59a16 16 0 0 0-14 0L7.65 16z" class="cls-1"/>
            <path d="M23 30.41a16 16 0 0 0 0-28.82z" class="cls-2"/>
            <path d="M9 30.41V1.59a16 16 0 0 0 0 28.82z" class="cls-3"/>
            <path d="M16 21.57V16h4.17v2.09a5 5 0 0 1-2.41 2.78 7.23 7.23 0 0 1-1.76.7zM11.83 11.83H16V16h-4.17z" class="cls-2"/>
            <path d="M18.09 10.43A1.4 1.4 0 0 0 16.7 9a1.36 1.36 0 0 0-.7.19 1.36 1.36 0 0 0-.7-.19 1.4 1.4 0 0 0-1.39 1.39h-3.48v7c0 2.59 2.06 4.09 3.67 4.87a1.36 1.36 0 0 0-.19.7 1.39 1.39 0 0 0 1.39 1.39 1.36 1.36 0 0 0 .7-.19 1.36 1.36 0 0 0 .7.19A1.4 1.4 0 0 0 18.09 23a1.36 1.36 0 0 0-.19-.7c1.61-.78 3.67-2.28 3.67-4.87v-7zm1.39 7c0 .36 0 1.47-1.72 2.56a8.58 8.58 0 0 1-1.76.83 8.58 8.58 0 0 1-1.76-.82c-1.72-1.09-1.72-2.2-1.72-2.56v-4.92h7z" class="cls-4"/>
        </g>
    </g>
</svg>
