<svg xmlns="http://www.w3.org/2000/svg" viewBox="0 0 32 32">
    <defs>
        <style>
            .cls-1{fill:#ffda44}.cls-2{fill:#a2001d}.cls-3{fill:#6da544}.cls-4{fill:#0052b4}
        </style>
    </defs>
    <g id="Layer_2" data-name="Layer 2">
        <g id="me">
            <path d="M32 16A16 16 0 1 1 16 0a16 16 0 0 1 16 16z" class="cls-1"/>
            <path d="M32 16a16 16 0 0 0-7-13.22H7a16 16 0 0 0 0 26.44h18A16 16 0 0 0 32 16z" class="cls-2"/>
            <path d="M12.52 11.83h7V9l-1.39.7L16 7.65l-2.09 2.09L12.52 9zM22.26 16h-3.48a1.58 1.58 0 0 0 .22-.8 1.6 1.6 0 0 0-3-.76 1.6 1.6 0 0 0-3 .76 1.67 1.67 0 0 0 .21.8H9.74a2 2 0 0 0 2 1.93h-.06A1.92 1.92 0 0 0 13 19.77l-1.56 1.57L13 22.81l2.1-2.09.25.07L14 23.65a5.24 5.24 0 0 0 3.92 0l-1.22-2.86.25-.07 2.1 2.09 1.47-1.47L19 19.77a1.92 1.92 0 0 0 1.37-1.84h-.06a2 2 0 0 0 2-1.93z" class="cls-1"/>
            <path d="M16 17l-2.26 1.05v2.08L16 21.57l2.26-1.4v-2.08z" class="cls-3"/>
            <path d="M13.74 16h4.52v2.78h-4.52z" class="cls-4"/>
        </g>
    </g>
</svg>
