<svg xmlns="http://www.w3.org/2000/svg" viewBox="0 0 32 32">
    <defs>
        <style>
            .cls-1{fill:#f0f0f0}.cls-2{fill:#0052b4}.cls-3{fill:#d80027}
        </style>
    </defs>
    <g id="Layer_2" data-name="Layer 2">
        <g id="sk">
            <path d="M32 16A16 16 0 1 1 16 0a16 16 0 0 1 16 16z" class="cls-1"/>
            <path d="M16 32a16 16 0 0 0 15-21.57H1A16 16 0 0 0 16 32z" class="cls-2"/>
            <path d="M16 32a16 16 0 0 0 15-10.43H1A16 16 0 0 0 16 32z" class="cls-3"/>
            <path d="M4.14 9v8c0 4.54 5.93 5.93 5.93 5.93S16 21.57 16 17V9z" class="cls-1"/>
            <path d="M5.53 9v8a3.37 3.37 0 0 0 .35 1.5h8.38a3.37 3.37 0 0 0 .35-1.5V9z" class="cls-3"/>
            <path d="M12.85 14.61h-2.09v-1.39h1.4v-1.39h-1.4v-1.4H9.37v1.4H8v1.39h1.37v1.39H7.29V16h2.08v1.39h1.39V16h2.09z" class="cls-1"/>
            <path d="M7.78 20.48a9.92 9.92 0 0 0 2.29 1 9.92 9.92 0 0 0 2.29-1 5 5 0 0 0 1.9-1.95 2.46 2.46 0 0 0-1.41-.44 2.51 2.51 0 0 0-.55.06 2.44 2.44 0 0 0-4.46 0 2.51 2.51 0 0 0-.55-.06 2.43 2.43 0 0 0-1.41.44 5 5 0 0 0 1.9 1.95z" class="cls-2"/>
        </g>
    </g>
</svg>
