<svg xmlns="http://www.w3.org/2000/svg" id="Layer_1" viewBox="0 0 19.1 23">
    <style>
        .st0{fill:none;stroke:#fff;stroke-miterlimit:10}
    </style>
    <g id="Layer_2_1_">
        <g id="Thunder_ADC">
            <g id="Row_3">
                <g id="Certificate">
                    <path d="M.5 1.2v15.7l5.6 5.6h11.7c.4 0 .7-.3.7-.7V1.2c0-.4-.3-.7-.7-.7H1.2C.8.5.5.8.5 1.2zm.4 16h4.4c.3 0 .5.2.5.5v4.4M3.3 5h6.1M3.3 8.1h6M3.3 11.3h6" class="st0"/>
                    <path d="M11.6 11.4V18l2.2-3 2.1 3v-6.6zM13.8 5c-1.3 0-2.3 1-2.3 2.3s1 2.3 2.3 2.3 2.3-1 2.3-2.3c0-1.3-1-2.3-2.3-2.3" class="st0"/>
                </g>
            </g>
        </g>
    </g>
</svg>
