<svg xmlns="http://www.w3.org/2000/svg" viewBox="0 0 32 32">
    <defs>
        <style>
            .cls-1{fill:#ffda44}.cls-2{fill:#d80027}.cls-3{fill:#6da544}.cls-4{fill:#0052b4}
        </style>
    </defs>
    <g id="Layer_2" data-name="Layer 2">
        <g id="et">
            <path d="M0 16a15.85 15.85 0 0 0 1 5.57L16 23l15-1.39a16 16 0 0 0 0-11.06L16 9 1 10.51A15.85 15.85 0 0 0 0 16z" class="cls-1"/>
            <path d="M16 32a16 16 0 0 0 15-10.43H1A16 16 0 0 0 16 32z" class="cls-2"/>
            <path d="M16 0A16 16 0 0 0 1 10.43h30A16 16 0 0 0 16 0z" class="cls-3"/>
            <path d="M23.65 16A7.65 7.65 0 1 1 16 8.35 7.64 7.64 0 0 1 23.65 16z" class="cls-4"/>
            <path d="M16 10.07l1.38 4.26h4.48L18.23 17l1.4 4.27L16 18.58l-3.62 2.63L13.76 17l-3.62-2.62h4.48z" class="cls-1"/>
            <path d="M21.51 17.06l-4.38-1.43 2.7-3.72-1.12-.82L16 14.82l-2.71-3.73-1.12.82 2.7 3.72-4.38 1.43.43 1.32L15.3 17v4.61h1.4V17l4.38 1.42z" class="cls-1"/>
        </g>
    </g>
</svg>
