<svg xmlns="http://www.w3.org/2000/svg" viewBox="0 0 32 32">
    <defs>
        <style>
            .cls-1{fill:#f0f0f0}.cls-2{fill:#0052b4}.cls-3{fill:#d80027}.cls-4{fill:#a2001d}.cls-5{fill:#ffda44}
        </style>
    </defs>
    <g id="Layer_2" data-name="Layer 2">
        <g id="AS">
            <circle cx="16" cy="16" r="16" class="cls-1"/>
            <path d="M23.76 2A16 16 0 0 0 0 16l11.13-5.57zM0 16a16 16 0 0 0 23.76 14l-12.63-8.43z" class="cls-2"/>
            <path d="M25.1 2.84A14.22 14.22 0 0 0 23.76 2L0 16l23.76 14a14.22 14.22 0 0 0 1.34-.83L2.74 16z" class="cls-3"/>
            <path d="M27.83 15.4h-1.91a1.51 1.51 0 0 0-.09-2 1.51 1.51 0 0 0 0-2.14 1.56 1.56 0 0 0 0-2.18l-8.57 8.57a1.5 1.5 0 0 0 2.13 0l.16-.15 4.1-.37v1.76H25V17l2.09-.19z" class="cls-4"/>
            <path d="M17.39 19.48l-1.39-.7 1.39-.69h9.04v1.39h-9.04z" class="cls-5"/>
        </g>
    </g>
</svg>
