<svg xmlns="http://www.w3.org/2000/svg" id="Layer_1" viewBox="0 0 23 23">
    <style>
        .st0{fill:none;stroke:#fff;stroke-miterlimit:10}.st1{fill:#fff}.st2{font-family:&apos;Roboto-Regular&apos;}.st3{font-size:6.02px}
    </style>
    <g id="Layer_2_1_">
        <g id="firewall">
            <g id="applications">
                <path d="M1.3 4.5h16.4c.4 0 .8.3.8.8v16.4c0 .4-.3.8-.8.8H1.3c-.4 0-.8-.3-.8-.8V5.3c0-.4.3-.8.8-.8z" class="st0"/>
                <path d="M2.5 3.3c0-.4.3-.8.8-.8h16.4c.4 0 .8.3.8.8v16.4c0 .4-.3.8-.8.8" class="st0"/>
                <path d="M4.5 1.3c0-.4.3-.8.8-.8h16.4c.4 0 .8.3.8.8v16.4c0 .4-.3.8-.8.8" class="st0"/>
                <text class="st1 st2 st3" transform="translate(3.49 16.14)">
                    APP
                </text>
            </g>
        </g>
    </g>
</svg>
