<svg xmlns="http://www.w3.org/2000/svg" id="Layer_1" viewBox="0 0 16.4 22">
    <style>
        .st0{fill:none;stroke:#fff;stroke-miterlimit:10}.st1{fill:#fffdfd}.st2{font-family:&apos;Roboto-Regular&apos;}.st3{font-size:4.76px}
    </style>
    <g id="Layer_2_1_">
        <g id="Action_icons">
            <g id="Help">
                <path d="M11.8 7.1c.1-.8.3-1.7.3-2.7.1-2.2-1.5-4-3.7-4.1S4.5 1.9 4.4 4v.4c.1 1.3.3 2.7.5 4 .5 1.9 2.4 3 4.2 2.5.8-.2 1.4-.6 1.9-1.2M11.2 11.7c-1.4 1.7-3.8 1.9-5.5.5-.2-.2-.4-.3-.5-.5-2.7.1-4.7 2.3-4.8 5v3.9c0 .5.4.9.9.9H15c.5 0 .9-.4.9-.9v-3.9c0-2.6-2-4.8-4.7-5zM13.1 4.4v1.8" class="st0"/>
                <path d="M13.9 4.3v1.5s.4 3.1-5.7 3.1" class="st0"/>
                <text class="st1 st2 st3" transform="translate(4.23 19.1)">
                    24H
                </text>
            </g>
        </g>
    </g>
</svg>
