<svg xmlns="http://www.w3.org/2000/svg" viewBox="0 0 32 32">
    <defs>
        <style>
            .cls-1{fill:#f0f0f0}.cls-2{fill:#d80027}.cls-3{fill:#0052b4}.cls-4{fill:#ffda44}
        </style>
    </defs>
    <g id="Layer_2" data-name="Layer 2">
        <g id="my">
            <path d="M32 16A16 16 0 1 1 16 0a16 16 0 0 1 16 16z" class="cls-1"/>
            <path d="M15.3 16H32a16 16 0 0 0-.55-4.17H15.3zM15.3 7.65h14.35A16 16 0 0 0 26 3.48H15.3zM16 32a15.9 15.9 0 0 0 10-3.48H6A15.9 15.9 0 0 0 16 32zM2.35 24.35h27.3a15.87 15.87 0 0 0 1.8-4.18H.55a15.87 15.87 0 0 0 1.8 4.18z" class="cls-2"/>
            <path d="M16 16V0A16 16 0 0 0 0 16z" class="cls-3"/>
            <path d="M10.64 13.7a4 4 0 0 1 0-7.92 3.86 3.86 0 0 1 1.88.48 4.87 4.87 0 1 0 0 7 4 4 0 0 1-1.88.48z" class="cls-4"/>
            <path d="M11.75 7l.71 1.47L14 8.06l-.71 1.46 1.28 1-1.57.37v1.63l-1.27-1-1.27 1v-1.63l-1.56-.35 1.28-1-.71-1.48 1.58.37z" class="cls-4"/>
        </g>
    </g>
</svg>
