<svg xmlns="http://www.w3.org/2000/svg" viewBox="0 0 31.9 31.9">
    <defs>
        <style>
            .cls-1{fill:none}.cls-2{fill:#338af3}.cls-3{clip-path:url(#clip-path)}.cls-4{fill:#6da544}.cls-5{fill:#f0f0f0}.cls-6{fill:#d80027}
        </style>
        <clipPath id="clip-path" transform="translate(0 -.02)">
            <path d="M0 0h31.93v32H0z" class="cls-1"/>
        </clipPath>
    </defs>
    <g id="Layer_2" data-name="Layer 2">
        <g id="dj">
            <path d="M14.56 17.36S4.68 4.69 4.67 4.7A15.95 15.95 0 0 1 31.9 16z" class="cls-2" transform="translate(0 -.02)"/>
            <g class="cls-3">
                <path d="M14.56 16S4.68 27.26 4.67 27.25A15.95 15.95 0 0 0 31.9 16z" class="cls-4" transform="translate(0 -.02)"/>
                <path d="M4.67 4.7a15.94 15.94 0 0 0 0 22.55L16 16z" class="cls-5" transform="translate(0 -.02)"/>
            </g>
            <path d="M6.46 11.81l1 3.18h3.34l-2.7 2 1 3.18-2.7-2-2.71 2 1-3.18-2.7-2h3.43z" class="cls-6" transform="translate(0 -.02)"/>
        </g>
    </g>
</svg>
