<svg xmlns="http://www.w3.org/2000/svg" viewBox="0 0 32 32">
    <defs>
        <style>
            .cls-1{fill:#0052b4}.cls-2{fill:#f0f0f0}.cls-3{fill:#ffda44}
        </style>
    </defs>
    <g id="Layer_2" data-name="Layer 2">
        <g id="xk">
            <path d="M32 16A16 16 0 1 1 16 0a16 16 0 0 1 16 16z" class="cls-1"/>
            <path d="M7 9.74l.34 1.06h1.15l-.9.66.34 1.06-.93-.66-.91.66.35-1.06-.9-.66h1.14zM10.51 8.7l.34 1.06H12l-.9.66.34 1.06-.9-.66-.91.66.37-1.06-1-.66h1.12zM14 7.65l.35 1.07h1.12l-.91.65.35 1.06-.91-.65-.9.65.35-1.06-.91-.65h1.12zM25 9.74l-.34 1.06h-1.15l.9.66-.34 1.06.9-.66.91.66-.35-1.06.9-.66h-1.11zM21.49 8.7l-.34 1.06H20l.9.66-.34 1.06.9-.66.91.66-.35-1.06.98-.66h-1.16zM18 7.65l-.35 1.07h-1.1l.91.65-.35 1.06.89-.65.9.65-.35-1.06.91-.65h-1.1z" class="cls-2"/>
            <path d="M18.78 16.7L16 13.22l-1.39.69v1.39l-2.09 1.4h-1.39v1.79a5.58 5.58 0 0 1 3.48 5.16H16v-1.39l1.39-1.39 1.39 1.39 1.39-1.39v-1.39l1.4-2.09z" class="cls-3"/>
        </g>
    </g>
</svg>
