<svg xmlns="http://www.w3.org/2000/svg" viewBox="0 0 32 32">
    <defs>
        <style>
            .cls-1{fill:#d80027}.cls-2{fill:#0052b4}.cls-3{fill:#f0f0f0}
        </style>
    </defs>
    <g id="Layer_2" data-name="Layer 2">
        <g id="ws">
            <path d="M32 16a16 16 0 0 1-32 0L16 0a16 16 0 0 1 16 16z" class="cls-1"/>
            <path d="M16 16V0A16 16 0 0 0 0 16z" class="cls-2"/>
            <path d="M12.82 10.43l.25.8h.84l-.68.49.26.8-.67-.52-.68.49.26-.8-.68-.49h.84zM8.61 4.17L9 5.5h1.39l-1.09.82.44 1.33-1.13-.82-1.13.82.43-1.33-1.13-.82h1.39zM12.78 5.57l.43 1.32h1.4l-1.13.82.43 1.29-1.13-.82-1.13.82.43-1.33L11 6.89h1.4zM9.48 11.13l.43 1.33h1.4l-1.13.82.43 1.33-1.13-.82-1.13.82.43-1.33-1.13-.82h1.4zM5.82 7.65L6.26 9h1.39l-1.13.8.48 1.33-1.13-.82-1.13.82.39-1.33L4 9h1.39z" class="cls-3"/>
        </g>
    </g>
</svg>
