<svg xmlns="http://www.w3.org/2000/svg" viewBox="0 0 32 32">
    <defs>
        <style>
            .cls-1{fill:#ffda44}.cls-2{fill:#0052b4}.cls-3{fill:#a2001d}.cls-4{fill:#f0f0f0}
        </style>
    </defs>
    <g id="Layer_2" data-name="Layer 2">
        <g id="sz">
            <path d="M30.41 23a16 16 0 0 0 0-14L16 8.35 1.59 9a16 16 0 0 0 0 14l14.41.65z" class="cls-1"/>
            <path d="M16 0A16 16 0 0 0 1.59 9h28.82A16 16 0 0 0 16 0z"/>
            <path d="M16 32a16 16 0 0 1-14.41-9h28.82A16 16 0 0 1 16 32z" class="cls-2"/>
            <path d="M31.24 11.13H.76a16 16 0 0 0 0 9.74h30.48a16 16 0 0 0 0-9.74z" class="cls-3"/>
            <path d="M5.57 15.3h20.87v1.39H5.57zM8.35 12.52h15.3v1.39H8.35z" class="cls-1"/>
            <path d="M23.75 16s-3.58 4.17-7.75 4.17S11.83 16 11.83 16s0-4.17 4.17-4.17S23.75 16 23.75 16z" class="cls-4"/>
            <path d="M16 20.17c-4.17 0-7.75-4.17-7.75-4.17s3.58-4.17 7.75-4.17"/>
            <path d="M13.22 14.61h1.39v2.78h-1.39z" class="cls-4"/>
            <path d="M17.39 14.61h1.39v2.78h-1.39z"/>
            <path d="M7 16a1.4 1.4 0 1 1-1.39-1.39A1.39 1.39 0 0 1 7 16zM27.83 16a1.4 1.4 0 1 1-1.4-1.39 1.4 1.4 0 0 1 1.4 1.39z" class="cls-2"/>
        </g>
    </g>
</svg>
