<svg xmlns="http://www.w3.org/2000/svg" id="Layer_1" viewBox="0 0 23 20.3">
    <style>
        .st0{stroke-linecap:round;stroke-miterlimit:10}.st0,.st1,.st2{fill:none;stroke:#fff}.st1{stroke-miterlimit:10}.st2{stroke-linecap:round;stroke-linejoin:round}
    </style>
    <g id="Layer_2_1_">
        <g id="Layer_1-2">
            <g id="Date-time">
                <path d="M11.4 19.8H1.7c-.6 0-1.2-.5-1.2-1.2V2.8c0-.6.5-1.2 1.2-1.2h17.5c.6 0 1.2.5 1.2 1.2v3.3" class="st0"/>
                <path d="M6.1 0v3.4M14.7 0v3.4" class="st1"/>
                <path d="M.5 5.6h11.3" class="st0"/>
                <path d="M4.4 9.1H5v.6h-.6zM4.4 12.1H5v.6h-.6zM4.4 15H5v.6h-.6z" class="st1"/>
                <g id="clock">
                    <circle cx="15.9" cy="13.1" r="6.6" class="st1"/>
                    <path d="M15.9 9.8v3.6l-2.9 3M15.9 6.8v1.4M15.9 19.6v-1.7M22.4 13.1h-1.5M9.3 13.1h1.5" class="st2"/>
                </g>
            </g>
        </g>
    </g>
</svg>
