<svg xmlns="http://www.w3.org/2000/svg" viewBox="0 0 32 32">
    <defs>
        <style>
            .cls-1{fill:#d80027}.cls-2{fill:#ffda44}
        </style>
    </defs>
    <g id="Layer_2" data-name="Layer 2">
        <g id="cn">
            <circle cx="16" cy="16" r="16" class="cls-1"/>
            <path d="M8.76 9.74l1.38 4.25h4.47l-3.62 2.63 1.39 4.25-3.62-2.63-3.62 2.63 1.39-4.25-3.62-2.63h4.47l1.38-4.25zM18.97 24.78l-1.06-1.3-1.56.61.91-1.41-1.06-1.3 1.62.43.91-1.41.09 1.67 1.62.44-1.56.6.09 1.67zM21.07 20.97l.5-1.6-1.37-.97 1.68-.02.49-1.61.54 1.59 1.68-.02-1.35 1 .54 1.59-1.37-.97-1.34 1.01zM23.9 11.74l-.74 1.51 1.2 1.17-1.65-.24-.74 1.5-.29-1.65-1.66-.24 1.49-.78-.29-1.65 1.2 1.17 1.48-.79zM19.01 7.18l-.12 1.67 1.55.63-1.63.4-.12 1.68-.88-1.43-1.63.4 1.08-1.28-.88-1.42 1.55.63 1.08-1.28z" class="cls-2"/>
        </g>
    </g>
</svg>
