<svg xmlns="http://www.w3.org/2000/svg" viewBox="0 0 32 32">
    <defs>
        <style>
            .cls-1{fill:#f0f0f0}.cls-2{fill:#0052b4}.cls-3{fill:#d80027}
        </style>
    </defs>
    <g id="Layer_2" data-name="Layer 2">
        <g id="kp">
            <path d="M32 16A16 16 0 1 1 16 0a16 16 0 0 1 16 16z" class="cls-1"/>
            <path d="M16 0A16 16 0 0 0 3.87 5.57h24.26A16 16 0 0 0 16 0zM28.13 26.43H3.87a16 16 0 0 0 24.26 0z" class="cls-2"/>
            <path d="M29.65 7.65H2.35a16 16 0 0 0 0 16.7h27.3a16 16 0 0 0 0-16.7z" class="cls-3"/>
            <path d="M16 16a6.16 6.16 0 1 1-6.16-6.16A6.16 6.16 0 0 1 16 16z" class="cls-1"/>
            <path d="M9.84 9.84l1.38 4.25h4.48l-3.62 2.63L13.47 21l-3.63-2.65L6.22 21l1.39-4.26L4 14.09h4.46z" class="cls-3"/>
        </g>
    </g>
</svg>
