<svg xmlns="http://www.w3.org/2000/svg" viewBox="0 0 32 32">
    <defs>
        <style>
            .cls-1{fill:#f0f0f0}.cls-2{fill:#0052b4}.cls-3{fill:#ffda44}.cls-4{fill:#6da544}
        </style>
    </defs>
    <g id="Layer_2" data-name="Layer 2">
        <g id="sv">
            <path d="M32 16A16 16 0 1 1 16 0a16 16 0 0 1 16 16z" class="cls-1"/>
            <path d="M16 0A16 16 0 0 0 1.59 9h28.82A16 16 0 0 0 16 0zM16 32a16 16 0 0 0 14.41-9H1.59A16 16 0 0 0 16 32z" class="cls-2"/>
            <path d="M12.79 16.7L16 11.13l3.21 5.57z" class="cls-3"/>
            <path d="M20.17 18.53L16 20.62l-4.17-2.09v-2.78h8.34z" class="cls-4"/>
            <path d="M19.94 11.37l-1.48 1.47a3.48 3.48 0 1 1-4.92 0l-1.48-1.47a5.57 5.57 0 1 0 7.88 0z" class="cls-3"/>
        </g>
    </g>
</svg>
