<svg xmlns="http://www.w3.org/2000/svg" viewBox="0 0 32 32">
    <defs>
        <style>
            .cls-1{fill:#338af3}.cls-2{fill:#f0f0f0}
        </style>
    </defs>
    <g id="Layer_2" data-name="Layer 2">
        <g id="fm">
            <path d="M32 16A16 16 0 1 1 16 0a16 16 0 0 1 16 16z" class="cls-1"/>
            <path d="M16 7l.69 2.12h2.24l-1.81 1.28.69 2.12L16 11.21l-1.81 1.31.69-2.12-1.81-1.32h2.24zM7 16l2.12-.69v-2.24l1.32 1.81 2.12-.69L11.21 16l1.31 1.81-2.12-.69-1.32 1.81v-2.24zM16 25l-.69-2.12h-2.24l1.81-1.32-.69-2.12L16 20.79l1.81-1.31-.69 2.12 1.81 1.32h-2.24zM25 16l-2.12.69v2.24l-1.28-1.81-2.12.69L20.79 16l-1.31-1.81 2.12.69 1.32-1.81v2.24z" class="cls-2"/>
        </g>
    </g>
</svg>
