<svg xmlns="http://www.w3.org/2000/svg" viewBox="0 0 21.32 12">
    <defs>
        <style>
            .cls-1,.cls-2{fill:none;stroke-miterlimit:10}.cls-1{stroke:#939596}.cls-2{stroke:#383838}.cls-3{fill:#383838}
        </style>
    </defs>
    <g id="Layer_2" data-name="Layer 2">
        <g id="Action_icons" data-name="Action icons">
            <g id="View">
                <path d="M.68 6.16a16.49 16.49 0 0 0 6.64 4.73 9.66 9.66 0 0 0 7.15-.15 16 16 0 0 0 5.11-3.37c.38-.37.74-.77 1.1-1.15l-.08-.13A16.61 16.61 0 0 0 15 1.57 9.18 9.18 0 0 0 7.88 1a14.42 14.42 0 0 0-5.3 3.25c-.66.57-1.25 1.25-1.9 1.91z" class="cls-1"/>
                <path d="M.68 6.16c.65-.66 1.24-1.34 1.9-1.95A14.42 14.42 0 0 1 7.88 1a9.18 9.18 0 0 1 7.12.57 16.61 16.61 0 0 1 5.6 4.52l.08.13c-.36.38-.72.78-1.1 1.15a16 16 0 0 1-5.11 3.37 9.66 9.66 0 0 1-7.15.15A16.49 16.49 0 0 1 .68 6.16zM7 6a3.65 3.65 0 1 0 3.6-3.64A3.66 3.66 0 0 0 7 6z" class="cls-2"/>
                <path d="M12.6 4.82a2.14 2.14 0 0 1-.15 2.55 2.3 2.3 0 0 1-2.74.73 2.32 2.32 0 0 1 .8-4.45 1.29 1.29 0 0 0-.2 1.71 1.16 1.16 0 0 0 1.25.51c.5-.07.84-.42 1.04-1.05z" class="cls-3"/>
            </g>
        </g>
    </g>
</svg>
