<svg xmlns="http://www.w3.org/2000/svg" viewBox="0 0 31.9 31.9">
    <defs>
        <style>
            .cls-1{fill:none}.cls-2{fill:#ffda44}.cls-3{clip-path:url(#clip-path)}.cls-4{fill:#d80027}.cls-5{fill:#338af3}
        </style>
        <clipPath id="clip-path" transform="translate(0 -.02)">
            <path d="M0 0h31.93v32H0z" class="cls-1"/>
        </clipPath>
    </defs>
    <g id="Layer_2" data-name="Layer 2">
        <g id="cd">
            <path d="M30.13 8.66a16 16 0 0 0-6.87-6.86L12 12.05 1.77 23.29a16 16 0 0 0 6.87 6.86L19.87 19.9z" class="cls-2" transform="translate(0 -.02)"/>
            <g class="cls-3">
                <path d="M4.67 27.25a16.38 16.38 0 0 0 2.13 1.8L29 6.83a16.38 16.38 0 0 0-3.9-3.93L2.88 25.12a16.29 16.29 0 0 0 1.79 2.13z" class="cls-4" transform="translate(0 -.02)"/>
                <path d="M4.67 4.7a16 16 0 0 0-2.9 18.59L23.26 1.8A15.94 15.94 0 0 0 4.67 4.7zM27.23 27.25a16 16 0 0 0 2.9-18.59L8.64 30.15a15.94 15.94 0 0 0 18.59-2.9z" class="cls-5" transform="translate(0 -.02)"/>
            </g>
            <path d="M8.5 4.88l.86 2.65h2.79L9.89 9.17l.86 2.64-2.25-1.63-2.25 1.63.86-2.64-2.26-1.64h2.79z" class="cls-2" transform="translate(0 -.02)"/>
        </g>
    </g>
</svg>
