<svg xmlns="http://www.w3.org/2000/svg" viewBox="0 0 32 32">
    <defs>
        <style>
            .cls-1{fill:#496e2d}.cls-2{fill:#f0f0f0}.cls-3{fill:#d80027}.cls-4{fill:#ff9811}
        </style>
    </defs>
    <g id="Layer_2" data-name="Layer 2">
        <g id="tm">
            <path d="M16 0a16 16 0 0 0-3.48.38L11.83 16l.69 15.62A16 16 0 1 0 16 0zM4.17 5.22a16 16 0 0 0 0 21.56L4.87 16z" class="cls-1"/>
            <path d="M23.4 12.07a4.87 4.87 0 0 0-2-5.77 4.22 4.22 0 0 1 1 .25 4.87 4.87 0 1 1-3.29 9.16 4.63 4.63 0 0 1-.95-.46 4.88 4.88 0 0 0 5.21-3.18zM19 5.7l-.69.88-1.01-.38.63.93-.69.87 1.08-.31.63.92V7.5l1.07-.32L19 6.82z" class="cls-2"/>
            <path d="M20.88 8.58l-.68.88-1.05-.38.63.93-.69.88 1.07-.31.63.92v-1.11l1.07-.32-1-.37zM15.78 6.75l-.69.88L14 7.25l.63.93-.63.88 1.07-.31.63.92V8.55l1.08-.31-1.06-.38zM15.7 10.05l-.68.88-1-.38.63.93-.69.88 1.04-.31.62.92v-1.12l1.07-.31-1-.38zM18.84 11.17l-.68.89-1.05-.38.63.92-.69.89 1.07-.32.63.93v-1.12l1.07-.31-1.05-.38z" class="cls-2"/>
            <path d="M4.17 5.22v21.56a16 16 0 0 0 8.35 4.84V.38a16 16 0 0 0-8.35 4.84z" class="cls-3"/>
            <path d="M7.36 8.42L6 7.38V5.91l1.4-1h2l1.39 1v1.47l-1.39 1z" class="cls-2"/>
            <path d="M8.35 4.87h-1L6 5.91v.72h2.35zM8.35 8.42h1l1.39-1v-.79H8.35z" class="cls-4"/>
            <path d="M7.36 27.13l-1.4-1v-1.51l1.4-1h2l1.39 1v1.47l-1.39 1z" class="cls-2"/>
            <path d="M8.35 23.58h-1l-1.4 1v.72h2.4zM8.35 27.13h1l1.39-1v-.75H8.35z" class="cls-4"/>
            <path d="M7.36 17.78l-1.4-1v-1.52l1.4-1h2l1.39 1v1.48l-1.39 1zM10.78 20.07h-.61v-.61H9.1l-.75-.76-.76.76H6.52v.61h-.61v1.21h.61v.61h1.07l.76.76.75-.76h1.07v-.61h.61zM10.78 10.71h-.61v-.6H9.1l-.75-.76-.76.76H6.52v.6h-.61v1.22h.61v.61h1.07l.76.76.75-.76h1.07v-.61h.61z" class="cls-1"/>
            <path d="M7.65 15.3h1.39v1.39H7.65zM9 11.32a.7.7 0 1 1-.69-.69.69.69 0 0 1 .69.69zM9 20.68a.7.7 0 1 1-.69-.7.69.69 0 0 1 .69.7z" class="cls-3"/>
        </g>
    </g>
</svg>
