<svg xmlns="http://www.w3.org/2000/svg" viewBox="0 0 23 19.93">
    <defs>
        <style>
            .cls-1,.cls-2,.cls-3{fill:none;stroke:#383838}.cls-1,.cls-3{stroke-linecap:round}.cls-1,.cls-2{stroke-miterlimit:10}.cls-3{stroke-linejoin:bevel}
        </style>
    </defs>
    <g id="Layer_2" data-name="Layer 2">
        <g id="Row_2" data-name="Row 2">
            <g id="positive-security">
                <path d="M15.1 12.17l-2.2-2.2M15.1 12.17l4.42-4.42" class="cls-1"/>
                <path d="M22.23 2.79c-5.37 0-6.23-2.1-6.29-2.12A.26.26 0 0 0 15.7.5a.28.28 0 0 0-.25.17s-.93 2.12-6.28 2.12a.28.28 0 0 0-.27.28v9.41c0 3.86 6.42 6.8 6.7 6.92a.19.19 0 0 0 .1 0 .2.2 0 0 0 .11 0c.28-.12 6.7-3.06 6.7-6.92V3.07a.28.28 0 0 0-.28-.28z" class="cls-2"/>
                <path id="UP_arrow" d="M.5 4.59L4.31.77m0 18.57V.77" class="cls-3" data-name="UP arrow"/>
            </g>
        </g>
    </g>
</svg>
