<svg xmlns="http://www.w3.org/2000/svg" viewBox="0 0 16.82 23">
    <defs>
        <style>
            .cls-1,.cls-2{fill:none;stroke:#383838;stroke-miterlimit:10}.cls-2{stroke-linecap:round}
        </style>
    </defs>
    <g id="Layer_2" data-name="Layer 2">
        <g id="Row_2" data-name="Row 2">
            <g id="positive-security">
                <path d="M16 3.17C9.77 3.17 8.71.73 8.7.7a.31.31 0 0 0-.29-.2.31.31 0 0 0-.29.2S7 3.17.81 3.17a.31.31 0 0 0-.31.32v10.94c0 4.48 7.47 7.9 7.78 8h.13a.31.31 0 0 0 .13 0c.31-.14 7.78-3.56 7.78-8V3.49a.31.31 0 0 0-.32-.32z" class="cls-1"/>
                <path d="M3.37 11.23h10M8.37 16.23v-10" class="cls-2"/>
            </g>
        </g>
    </g>
</svg>
