<svg xmlns="http://www.w3.org/2000/svg" viewBox="0 0 32 32">
    <defs>
        <style>
            .cls-1{fill:#d80027}.cls-2{fill:#ffda44}.cls-3{fill:#496e2d}
        </style>
    </defs>
    <g id="Layer_2" data-name="Layer 2">
        <g id="cm">
            <path d="M23 1.59a16 16 0 0 0-14 0L7.65 16 9 30.41a16 16 0 0 0 13.92 0L24.35 16z" class="cls-1"/>
            <path d="M16 10.44l1.38 4.25h4.47l-3.62 2.62 1.39 4.26L16 18.94l-3.62 2.63 1.39-4.26-3.62-2.62h4.47L16 10.44z" class="cls-2"/>
            <path d="M9 1.59a16 16 0 0 0 0 28.82z" class="cls-3"/>
            <path d="M23 1.59v28.82a16 16 0 0 0 0-28.82z" class="cls-2"/>
        </g>
    </g>
</svg>
