<svg xmlns="http://www.w3.org/2000/svg" id="Layer_1" viewBox="0 0 22.1 23">
    <style>
        .st0{fill:none;stroke:#fff;stroke-linecap:round;stroke-miterlimit:10}
    </style>
    <g id="Layer_2_1_">
        <g id="firewall">
            <g id="destination">
                <path d="M16.4 1.6C11-1.1 4.4 1.1 1.7 6.5s-.5 12 4.9 14.7c2.5 1.3 5.4 1.5 8.1.7" class="st0"/>
                <path d="M21.6 9.9c0-2.6-2.1-4.7-4.6-4.7s-4.7 2.1-4.7 4.6c0 .8.2 1.5.5 2.2l4.3 8.2L21 12c.4-.6.6-1.4.6-2.1zm-4.7-2.6c1.1 0 2 .9 2 2s-.9 2-2 2-2-.9-2-2 .9-2 2-2z" class="st0"/>
            </g>
        </g>
    </g>
</svg>
