<svg xmlns="http://www.w3.org/2000/svg" id="Layer_1" viewBox="0 0 17.9 23">
    <style>
        .st0{fill:none;stroke:#fff;stroke-miterlimit:10}
    </style>
    <g id="Layer_2_1_">
        <g id="Row_1">
            <g id="learning-2">
                <path d="M8.1 10c-.7 0-1.3-.6-1.3-1.3s.6-1.3 1.3-1.3c.7 0 1.3.6 1.3 1.3 0 .7-.6 1.3-1.3 1.3z" class="st0"/>
                <path d="M8.6 13.4H7.5c-.1 0-.2-.1-.2-.2v-1c-.4 0-.9-.2-1.3-.4l-.7.7c-.1.1-.2.1-.3 0l-.8-.8c-.1-.1-.1-.2 0-.3l.8-.8c-.3-.4-.4-.8-.5-1.2h-1c-.1 0-.2-.1-.2-.2V8c0-.1.1-.2.2-.2h1c.1-.4.3-.8.5-1.2l-.7-.7c-.1-.1-.1-.2 0-.3l.8-.8c.1-.1.2-.1.2 0l.7.7c.4-.2.9-.4 1.3-.5V4c0-.1.1-.2.2-.2h1.2c.1 0 .2.1.2.2v1c.4.1.9.3 1.2.5l.7-.7c.1-.1.2-.1.3 0l.8.8c.1.1.1.2 0 .3l-.7.7c.2.4.4.8.5 1.3h1c.1 0 .2.1.2.2v1.2c0 .1-.1.2-.2.2h-1c-.1.4-.3.9-.5 1.2l.7.7c.1.1.1.2 0 .3l-.9.7c-.1.1-.2.1-.3 0l-.7-.7c-.4.2-.8.4-1.2.5v1c0 .1 0 .2-.2.2.1 0 .1 0 0 0z" class="st0"/>
                <path d="M15.4 8C15.2 3.9 11.8.7 7.7.8 3.8 1 .6 4.1.5 8c0 .8.1 1.6.4 2.3" class="st0"/>
                <path d="M.9 10.3c.8 2.9.7 5.9-.4 8.7 0 .1 0 .2.1.3.8.9 5.5 3 9 3.2.1 0 .2 0 .2-.1.1-.1.1-.2.1-.3.1-1.3.5-2.6 1-3.9h3.3c.7 0 1.2-.5 1.2-1.2v-3.5H17c.1 0 .2-.1.3-.2.1-.1.1-.2 0-.4-.9-1.6-1.5-3.3-1.9-5.1" class="st0"/>
            </g>
        </g>
    </g>
</svg>
