<svg xmlns="http://www.w3.org/2000/svg" viewBox="0 0 32 32">
    <defs>
        <style>
            .cls-1{fill:#338af3}.cls-2{fill:#f3f3f3}.cls-3{fill:#bdbcc1}.cls-4{fill:#f0f0f0}
        </style>
    </defs>
    <g id="Layer_2" data-name="Layer 2">
        <g id="mp">
            <path d="M32 16A16 16 0 1 1 16 0a16 16 0 0 1 16 16z" class="cls-1"/>
            <path d="M15.5 26.07a1 1 0 0 1-.93-.68 1 1 0 0 1-1.86-.48 1 1 0 0 1-1.71-.84 1 1 0 0 1-1.52-1.18 1 1 0 0 1-1.25-1.46 1 1 0 0 1-1-.53 1 1 0 0 1 .09-1.15 1 1 0 0 1-.94-.75 1.06 1.06 0 0 1 .31-1.11A1 1 0 0 1 6 17a1 1 0 0 1 .53-1A1 1 0 0 1 6 15a1 1 0 0 1 .73-.89 1 1 0 0 1 .57-1.84 1 1 0 0 1-.09-1.15 1.07 1.07 0 0 1 1-.53 1 1 0 0 1 .14-1.14 1 1 0 0 1 1.11-.32A1 1 0 0 1 9.81 8 1.07 1.07 0 0 1 11 7.94a1.05 1.05 0 0 1 1.73-.85 1 1 0 0 1 .77-.85 1 1 0 0 1 1.09.37 1 1 0 0 1 1.91-.1A1.05 1.05 0 0 1 17.51 6a1 1 0 0 1 .86.77 1 1 0 0 1 1.12-.27 1.06 1.06 0 0 1 .68.93 1 1 0 0 1 1.63 1 1.05 1.05 0 0 1 1.14.19 1.07 1.07 0 0 1 .26 1.18 1 1 0 0 1 1.1 1.57 1 1 0 0 1 .76 1.77 1 1 0 0 1 .39 1.86 1.06 1.06 0 0 1 .64 1 1 1 0 0 1-.64 1 1 1 0 0 1-.38 1.88 1 1 0 0 1-.76 1.77 1 1 0 0 1-1.1 1.58 1.05 1.05 0 0 1-.21 1.08 1 1 0 0 1-1.13.2 1 1 0 0 1-1.63 1 1.06 1.06 0 0 1-.68.93 1 1 0 0 1-1.12-.26 1 1 0 0 1-.86.77 1 1 0 0 1-1-.48 1 1 0 0 1-.94.59z" class="cls-2"/>
            <path d="M23 16a7 7 0 1 1-7-7 7 7 0 0 1 7 7z" class="cls-1"/>
            <path d="M17.52 13.64a1.4 1.4 0 0 0 .57-1.12v-.69a1.4 1.4 0 0 0-1.39-1.4h-1.4a1.4 1.4 0 0 0-1.39 1.4v.69a1.4 1.4 0 0 0 .57 1.12l-1.26 12.79s.69.7 2.78.7 2.78-.7 2.78-.7z" class="cls-3"/>
            <path d="M16 10.43l1.21 3.72h3.91L18 16.45l1.2 3.72-3.2-2.3-3.16 2.3L14 16.45l-3.16-2.3h3.91z" class="cls-4"/>
        </g>
    </g>
</svg>
