<svg xmlns="http://www.w3.org/2000/svg" viewBox="0 0 19.06 23">
    <defs>
        <style>
            .cls-1{fill:none;stroke:#383838;stroke-miterlimit:10}
        </style>
    </defs>
    <g id="Layer_2" data-name="Layer 2">
        <g id="Thunder_ADC" data-name="Thunder ADC">
            <g id="Row_3" data-name="Row 3">
                <g id="aFlex">
                    <path d="M.5 1.23V16.9l5.6 5.6h11.72a.74.74 0 0 0 .74-.73V1.23a.74.74 0 0 0-.74-.73H1.23a.73.73 0 0 0-.73.73zm.4 16h4.16a.73.73 0 0 1 .73.73v4.16M3.35 4.97h11.8M3.35 8.11h11.8M3.35 11.26h11.8" class="cls-1"/>
                    <path d="M9.17 16.59l-1.44-1.2 1.44-1.2M13.21 16.59l1.44-1.2-1.44-1.2M10.59 17.35l1.2-3.92" class="cls-1"/>
                </g>
            </g>
        </g>
    </g>
</svg>
