<svg xmlns="http://www.w3.org/2000/svg" viewBox="0 0 22 21.83">
    <defs>
        <style>
            .cls-1{fill:#383838}.cls-2,.cls-3{fill:none;stroke:#383838;stroke-miterlimit:10}.cls-3{stroke-linecap:round}
        </style>
    </defs>
    <g id="Layer_2" data-name="Layer 2">
        <g id="Hermony_controler" data-name="Hermony controler">
            <g id="Row_6" data-name="Row 6">
                <g id="Provider">
                    <path d="M19.38 17.59a1.62 1.62 0 1 1-1.62 1.62 1.63 1.63 0 0 1 1.62-1.62m0-1A2.62 2.62 0 1 0 22 19.21a2.62 2.62 0 0 0-2.62-2.62zM11 17.59a1.62 1.62 0 1 1-1.62 1.62A1.62 1.62 0 0 1 11 17.59m0-1a2.62 2.62 0 1 0 2.62 2.62A2.62 2.62 0 0 0 11 16.59zM2.62 17.59A1.62 1.62 0 1 1 1 19.21a1.63 1.63 0 0 1 1.62-1.62m0-1a2.62 2.62 0 1 0 2.62 2.62 2.62 2.62 0 0 0-2.62-2.62z" class="cls-1"/>
                    <path d="M2.61 16.67v-4.42A1.27 1.27 0 0 1 3.89 11H18.1a1.26 1.26 0 0 1 1.26 1.27v4.42M10.96 8.31v8.42" class="cls-2"/>
                    <path d="M11 8.89a4.2 4.2 0 1 1 4.2-4.19A4.2 4.2 0 0 1 11 8.89z" class="cls-3"/>
                    <path d="M11 8.89c-1.57 0-2.39-2.11-2.39-4.19S9.38.5 11 .5s2.38 2.11 2.38 4.2-.87 4.19-2.38 4.19z" class="cls-3"/>
                    <path d="M7.46 2.36a16.06 16.06 0 0 0 3.54.35 15.79 15.79 0 0 0 3.48-.35M14.43 7A14.87 14.87 0 0 0 11 6.68 17 17 0 0 0 7.46 7M6.75 4.76h8.4M10.95.5v8.39" class="cls-3"/>
                </g>
            </g>
        </g>
    </g>
</svg>
