<svg xmlns="http://www.w3.org/2000/svg" viewBox="0 0 31.9 31.9">
    <defs>
        <style>
            .cls-1{fill:none}.cls-2{clip-path:url(#clip-path)}.cls-3{fill:#ffda44}.cls-4{fill:#d80027}.cls-5{fill:#6da544}
        </style>
        <clipPath id="clip-path" transform="translate(0 -.02)">
            <path d="M0 0h31.93v32H0z" class="cls-1"/>
        </clipPath>
    </defs>
    <g id="Layer_2" data-name="Layer 2">
        <g id="cg" class="cls-2">
            <path d="M8.65 30.16l11.71-9.77 9.77-11.72a16 16 0 0 0-6.87-6.87l-11.72 9.76-9.77 11.73a16 16 0 0 0 6.88 6.87z" class="cls-3" transform="translate(0 -.02)"/>
            <path d="M27.23 27.25a16 16 0 0 0 2.9-18.59L8.64 30.15a15.94 15.94 0 0 0 18.59-2.9z" class="cls-4" transform="translate(0 -.02)"/>
            <path d="M4.67 4.7a16 16 0 0 0-2.9 18.59L23.26 1.8A15.94 15.94 0 0 0 4.67 4.7z" class="cls-5" transform="translate(0 -.02)"/>
        </g>
    </g>
</svg>
