<svg xmlns="http://www.w3.org/2000/svg" viewBox="0 0 32 32">
    <defs>
        <style>
            .cls-1{fill:#d80027}.cls-2{fill:#ffda44}
        </style>
    </defs>
    <g id="Layer_2" data-name="Layer 2">
        <g id="kg">
            <path d="M32 16A16 16 0 1 1 16 0a16 16 0 0 1 16 16z" class="cls-1"/>
            <path d="M23.82 16l-3.19 1.5 1.7 3.1-3.47-.66-.44 3.5L16 20.86l-2.42 2.58-.44-3.5-3.47.66 1.7-3.1L8.18 16l3.19-1.5-1.7-3.1 3.47.66.44-3.5L16 11.14l2.42-2.58.44 3.5 3.47-.66-1.7 3.1z" class="cls-2"/>
            <path d="M20.87 16A4.87 4.87 0 1 1 16 11.13 4.87 4.87 0 0 1 20.87 16z" class="cls-1"/>
            <path d="M13.57 16h-.35a2.77 2.77 0 0 0 .65 1.77 4.68 4.68 0 0 1 .94-1.56 3.45 3.45 0 0 0-1.24-.21zM15.06 18.62a2.84 2.84 0 0 0 1.88 0A3.44 3.44 0 0 0 16 17a3.44 3.44 0 0 0-.94 1.62zM18.41 14.61a2.78 2.78 0 0 0-4.82 0 4.8 4.8 0 0 1 2.41.65 4.8 4.8 0 0 1 2.41-.65zM17.19 16.23a4.85 4.85 0 0 1 .94 1.56 2.77 2.77 0 0 0 .65-1.79h-.35a3.45 3.45 0 0 0-1.24.23z" class="cls-2"/>
        </g>
    </g>
</svg>
