<svg xmlns="http://www.w3.org/2000/svg" viewBox="0 0 14.69 22">
    <defs>
        <style>
            .cls-1{fill:none;stroke:#383838;stroke-miterlimit:10}.cls-2{fill:#383838}
        </style>
    </defs>
    <g id="Layer_2" data-name="Layer 2">
        <g id="Row_2" data-name="Row 2">
            <g id="Evasion_Detection" data-name="Evasion Detection">
                <path d="M4.57 22v-1a9.66 9.66 0 0 0-.24-1.73 8.34 8.34 0 0 0-.43-1.41 8.14 8.14 0 0 0-.61-1.18c-.16-.26-.31-.46-.59-.86-.61-.85-.7-.91-1-1.43a7.22 7.22 0 0 1-.7-1.14 4.37 4.37 0 0 1-.31-1 4.91 4.91 0 0 1-.06-1A6.2 6.2 0 0 1 .76 10a5.28 5.28 0 0 1 .48-1.34A11.24 11.24 0 0 1 2 7.44c.64-.9.72-1 1-1.4a8.65 8.65 0 0 0 .65-1.12 8.44 8.44 0 0 0 .42-1.1 8.65 8.65 0 0 0 .28-1.2 10.1 10.1 0 0 0 .16-1.09v-.44" class="cls-1"/>
                <path d="M8.12 4.85l-.81.59-2.9-3.98L.65 4.64 0 3.88 4.58 0l3.54 4.85z" class="cls-2"/>
                <path d="M9.94.6c0 .37 0 .81.09 1.3a12.27 12.27 0 0 0 .21 1.21 7 7 0 0 0 .41 1.38 6.58 6.58 0 0 0 .55 1c.23.39.42.66.79 1.18.6.85.63.82.89 1.23a6.63 6.63 0 0 1 .7 1.33 5.72 5.72 0 0 1 .09 3.62 6.08 6.08 0 0 1-.67 1.5c-.32.51-.39.48-.94 1.26a12.73 12.73 0 0 0-.83 1.27 9.77 9.77 0 0 0-.56 1.21 8.9 8.9 0 0 0-.41 1.41 8.23 8.23 0 0 0-.13 1v.45" class="cls-1"/>
                <path d="M6.58 17.08l.82-.57 2.83 4.04 3.82-3.12.64.77-4.66 3.8-3.45-4.92z" class="cls-2"/>
                <circle cx="7.42" cy="10.72" r="2.2" class="cls-1"/>
            </g>
        </g>
    </g>
</svg>
