<svg xmlns="http://www.w3.org/2000/svg" viewBox="0 0 32 32">
    <defs>
        <style>
            .cls-1{fill:#f0f0f0}.cls-2{fill:#751a46}
        </style>
    </defs>
    <g id="Layer_2" data-name="Layer 2">
        <g id="qa">
            <path d="M32 16A16 16 0 1 1 16 0a16 16 0 0 1 16 16z" class="cls-1"/>
            <path d="M32 16A16 16 0 0 0 7.48 2.45L11 3.94 6.26 6 11 8l-4.74 2L11 12l-4.74 2L11 16l-4.74 2L11 20l-4.74 2L11 24l-4.73 2L11 28l-3.5 1.49A16 16 0 0 0 32 16z" class="cls-2"/>
        </g>
    </g>
</svg>
