<svg xmlns="http://www.w3.org/2000/svg" id="Layer_1" viewBox="0 0 22 21.8">
    <style>
        .st0{fill:#fff}.st1,.st2{fill:none;stroke:#fff;stroke-miterlimit:10}.st2{stroke-linecap:round}
    </style>
    <g id="Layer_2_1_">
        <g id="Hermony_controler">
            <g id="Row_6">
                <g id="Provider">
                    <path d="M19.4 17.6c.9 0 1.6.7 1.6 1.6s-.7 1.6-1.6 1.6-1.6-.7-1.6-1.6c0-.9.7-1.6 1.6-1.6m0-1c-1.4 0-2.6 1.2-2.6 2.6s1.2 2.6 2.6 2.6 2.6-1.2 2.6-2.6c0-1.4-1.2-2.6-2.6-2.6zM11 17.6c.9 0 1.6.7 1.6 1.6 0 .9-.7 1.6-1.6 1.6s-1.6-.7-1.6-1.6c0-.9.7-1.6 1.6-1.6m0-1c-1.4 0-2.6 1.2-2.6 2.6 0 1.4 1.2 2.6 2.6 2.6s2.6-1.2 2.6-2.6c0-1.4-1.2-2.6-2.6-2.6zM2.6 17.6c.9 0 1.6.7 1.6 1.6 0 .9-.7 1.6-1.6 1.6S1 20.1 1 19.2c0-.9.7-1.6 1.6-1.6m0-1c-1.4 0-2.6 1.2-2.6 2.6 0 1.4 1.2 2.6 2.6 2.6s2.6-1.2 2.6-2.6c0-1.4-1.1-2.6-2.6-2.6z" class="st0"/>
                    <path d="M2.6 16.7v-4.4c0-.7.6-1.3 1.3-1.3h14.2c.7 0 1.3.6 1.3 1.3v4.4M11 8.3v8.4" class="st1"/>
                    <path d="M11 8.9C8.7 8.9 6.8 7 6.8 4.7S8.7.5 11 .5c2.3 0 4.2 1.9 4.2 4.2 0 2.3-1.9 4.2-4.2 4.2z" class="st2"/>
                    <path d="M11 8.9c-1.6 0-2.4-2.1-2.4-4.2S9.4.5 11 .5s2.4 2.1 2.4 4.2-.9 4.2-2.4 4.2z" class="st2"/>
                    <path d="M7.5 2.4c1.1.2 2.3.3 3.5.3 1.2 0 2.3-.1 3.5-.3M14.4 7c-1.1-.2-2.3-.3-3.4-.3-1.2 0-2.4.1-3.5.3M6.8 4.8h8.3M10.9.5v8.4" class="st2"/>
                </g>
            </g>
        </g>
    </g>
</svg>
