<svg xmlns="http://www.w3.org/2000/svg" viewBox="0 0 23 22.16">
    <defs>
        <style>
            .cls-1,.cls-3{fill:none;stroke:#383838;stroke-miterlimit:10}.cls-1{stroke-linecap:round}.cls-2{fill:#383838}
        </style>
    </defs>
    <g id="Layer_2" data-name="Layer 2">
        <g id="Layer_1-2" data-name="Layer 1">
            <g id="L4_DoS" data-name="L4 DoS">
                <path d="M11.63 4.47l2.71-2.8" class="cls-1"/>
                <path d="M14.72 4.8l-.6-.01.06-2.96-2.96.16-.03-.6 3.6-.19-.07 3.6z" class="cls-2"/>
                <path d="M11.63 4.47L7.51.5M16.97 14.06l1.01 3.77" class="cls-1"/>
                <path d="M15.1 16.55l.32-.51 2.51 1.57 1.38-2.62.53.29-1.69 3.18-3.05-1.91z" class="cls-2"/>
                <path d="M16.97 14.06l5.53-1.48M16.78 7.94l3.77 1.01" class="cls-1"/>
                <path d="M17.99 10.8l-.28-.53 2.62-1.38-1.58-2.51.51-.32 1.92 3.06-3.19 1.68z" class="cls-2"/>
                <path d="M16.78 7.94l1.48-5.53M6.2 8.12l-.34-3.88" class="cls-1"/>
                <path d="M8.48 6l-.41.45-2.19-1.98L4.06 6.8l-.47-.37L5.8 3.59 8.48 6z" class="cls-2"/>
                <path d="M6.2 8.12l-5.7.5M5.66 14.2l-3.47-1.78" class="cls-1"/>
                <path d="M5.07 11.14l.17.58-2.85.81 1.02 2.78-.56.2-1.24-3.38 3.46-.99z" class="cls-2"/>
                <path d="M5.66 14.2l-2.59 5.09M11.19 17.62l-2.76 2.75" class="cls-1"/>
                <path d="M8.1 17.23l.6.02-.1 2.96 2.95-.11.02.6-3.6.13.13-3.6z" class="cls-2"/>
                <path d="M11.19 17.62l4.05 4.04" class="cls-1"/>
                <circle cx="11.37" cy="10.99" r="3.63" class="cls-3"/>
            </g>
        </g>
    </g>
</svg>
