<svg xmlns="http://www.w3.org/2000/svg" viewBox="0 0 31.9 31.9">
    <defs>
        <style>
            .cls-1{fill:none}.cls-2{fill:#f0f0f0}.cls-3{fill:#d80027}.cls-4{clip-path:url(#clip-path)}.cls-5{fill:#6da544}
        </style>
        <clipPath id="clip-path" transform="translate(0 -.02)">
            <path d="M0 0h31.93v32H0z" class="cls-1"/>
        </clipPath>
    </defs>
    <g id="Layer_2" data-name="Layer 2">
        <g id="kw">
            <path d="M30.91 21.52a16 16 0 0 0 0-11.09L16 9 1 10.43a16 16 0 0 0 0 11.09l15 1.39z" class="cls-2" transform="translate(0 -.02)"/>
            <path d="M16 31.93a16 16 0 0 0 15-10.41H1a16 16 0 0 0 15 10.41z" class="cls-3" transform="translate(0 -.02)"/>
            <g class="cls-4">
                <path d="M16 0A16 16 0 0 0 1 10.43h29.91A16 16 0 0 0 16 0z" class="cls-5" transform="translate(0 -.02)"/>
                <path d="M4.67 4.7a15.94 15.94 0 0 0 0 22.55l5.73-5.73V10.43z" transform="translate(0 -.02)"/>
            </g>
        </g>
    </g>
</svg>
