<svg xmlns="http://www.w3.org/2000/svg" id="Layer_1" viewBox="0 0 20.7 22.9">
    <style>
        .st0{fill:none;stroke:#fff;stroke-width:.89;stroke-linejoin:round}.st0,.st1{stroke-linecap:round}.st1,.st2{fill:none;stroke:#fff;stroke-width:.89;stroke-miterlimit:10}
    </style>
    <g id="Layer_2_1_">
        <g id="Hermony_controler">
            <g id="Row_7">
                <g id="My_Apps_2">
                    <path d="M18.3 18.9v3.2c0 .2-.2.4-.4.4h-3M13.2 22.4h-3c-.2 0-.4-.2-.4-.4v-7.7c0-.2.1-.3.3-.4h7.7c.2 0 .4.2.4.3v2.9M18.3 17.2c.2-.2.5-.4.8-.4.7.1 1.1.6 1.1 1.3-.1.6-.5 1-1.1 1.1-.3 0-.6-.1-.8-.4" class="st0"/>
                    <path d="M13.2 22.4c-.2-.2-.4-.5-.4-.8 0-.7.5-1.2 1.2-1.2s1.2.5 1.2 1.2c0 .3-.1.7-.4.9" class="st0"/>
                    <path d="M13.6 12.5c-.8-1-2-1.6-3.3-1.7-1.3 1.5-3.6 1.7-5.1.4-.1-.1-.2-.2-.3-.4-2.5.1-4.4 2.2-4.4 4.7v3.6c0 .4.4.8.8.8h6.3" class="st1"/>
                    <path d="M7.6.4C5.6.5 4 2.1 4 4.1c.1 1.3.3 2.5.5 3.7.5 1.7 2.2 2.7 3.9 2.3 1.1-.3 2-1.2 2.3-2.3.2-1.2.4-2.5.5-3.7 0-2-1.6-3.7-3.6-3.7z" class="st2"/>
                </g>
            </g>
        </g>
    </g>
</svg>
