<svg xmlns="http://www.w3.org/2000/svg" id="Layer_1" viewBox="0 0 23 20.1">
    <style>
        .st0{fill:none;stroke:#fff;stroke-miterlimit:10}
    </style>
    <g id="Layer_2_1_">
        <g id="Layer_1-2">
            <g id="event">
                <path d="M3 .5h17c1.4 0 2.5 1.1 2.5 2.5v12.7H.5V3C.5 1.6 1.6.5 3 .5zM17.4 19.6H5.6M11.5 19.6v-3.9" class="st0"/>
                <path d="M11.6 9.3c-.7 0-1.3-.6-1.3-1.3s.6-1.3 1.3-1.3 1.3.6 1.3 1.3c0 .7-.5 1.3-1.3 1.3z" class="st0"/>
                <path d="M12.2 12.6h-1.1c-.1 0-.2-.1-.2-.2v-1c-.4-.1-.8-.2-1.2-.5l-.7.8c-.1.1-.2.1-.2 0l-.8-.8c-.1-.1-.1-.2 0-.2l.7-.7c-.3-.4-.4-.9-.5-1.3h-1c-.1 0-.2-.1-.2-.1V7.4c0-.1.1-.2.2-.2h1c.1-.4.2-.8.4-1.2l-.7-.7c-.1-.1-.1-.2 0-.2l.8-.8c.1-.1.2-.1.2 0l.8.7c.4-.2.8-.4 1.2-.5v-1c0-.1.1-.2.2-.2h1.1c.1 0 .2.1.2.2v1c.4.1.8.3 1.2.5l.7-.7c.1-.1.2-.1.2 0l.8.8c.1.1.1.2 0 .2l-.7.7c.2.4.4.8.5 1.2h1c.1 0 .2.1.2.2v1.2c0 .1-.1.2-.2.2h-1c-.1.4-.3.8-.5 1.2l.7.7c.1.1.1.2 0 .2l-.8.8c-.1.1-.2.1-.2 0l-.7-.7c-.4.2-.8.4-1.2.5v1c0 .1-.1.1-.2.1z" class="st0"/>
            </g>
        </g>
    </g>
</svg>
