<svg xmlns="http://www.w3.org/2000/svg" viewBox="0 0 32 32">
    <defs>
        <style>
            .cls-1{fill:#f0f0f0}.cls-2{fill:#d80027}.cls-3{fill:#6da544}
        </style>
    </defs>
    <g id="Layer_2" data-name="Layer 2">
        <g id="om">
            <path d="M32 16A16 16 0 1 1 16 0a16 16 0 0 1 16 16z" class="cls-1"/>
            <path d="M0 16a16 16 0 0 0 8.35 14.05V2A16 16 0 0 0 0 16z" class="cls-2"/>
            <path d="M31 21.57a16 16 0 0 0 0-11.14H1a16 16 0 0 0 0 11.14L16 23z" class="cls-2"/>
            <path d="M16 32a16 16 0 0 0 15-10.43H1A16 16 0 0 0 16 32z" class="cls-3"/>
            <path d="M0 16a16 16 0 0 0 11.83 15.45V.55A16 16 0 0 0 0 16z" class="cls-2"/>
            <path d="M9.79 7L8.31 5.57l-1 1-1-1L4.87 7l1 1-1 1 1.48 1.47 1-1 1 1L9.79 9l-1-1z" class="cls-1"/>
        </g>
    </g>
</svg>
