<svg xmlns="http://www.w3.org/2000/svg" id="Layer_1" viewBox="0 0 23 21">
    <style>
        .st0{fill:none;stroke:#fff;stroke-miterlimit:10}
    </style>
    <g id="Layer_2_1_">
        <g id="Hermony_controler">
            <g id="Row_5">
                <g id="Devices">
                    <path d="M17.9 17.1c-.7 0-1.3-.6-1.3-1.3s.6-1.3 1.3-1.3c.7 0 1.3.6 1.3 1.3 0 .8-.6 1.3-1.3 1.3z" class="st0"/>
                    <path d="M18.5 20.5h-1.1c-.1 0-.2-.1-.2-.2v-1c-.4-.1-.8-.3-1.2-.5l-.7.7c-.1.1-.2.1-.2 0l-.8-.8c-.1-.1-.1-.2 0-.2l.7-.7c-.2-.4-.4-.8-.5-1.2h-1c-.1 0-.2-.1-.2-.2v-1.1c0-.1.1-.2.2-.2h1c.1-.4.3-.8.5-1.2l-.7-.7c-.1-.1-.1-.2 0-.2l.7-.8c.1-.1.2-.1.2 0l.7.7c.4-.2.8-.4 1.2-.5v-1c0-.1.1-.2.2-.2h1.1c.1 0 .2.1.2.2v1c.4.1.8.3 1.2.5l.7-.7c.1-.1.2-.1.2 0l.8.8c.1.1.1.2 0 .2l-.7.7c.2.4.4.8.5 1.2h1c.1 0 .2.1.2.1v1.1c0 .1-.1.2-.2.2h-1c-.1.4-.3.8-.5 1.2l.7.7c.1.1.1.2 0 .2l-.8.8c-.1.1-.2.1-.2 0l-.7-.7c-.4.2-.8.4-1.2.5v1c0 .2-.1.2-.1.3zM10.3 3.2h6M7.7 3.2H5.9M2.7 2.8h.6v.6h-.6zM10.3 10.1h6M7.7 10.1H5.9M2.7 9.8h.6v.6h-.6zM10.3 17.1h1M7.7 17.1H5.9M2.7 16.8h.6v.6h-.6z" class="st0"/>
                    <path d="M1.3.5h16.4c.4 0 .8.3.8.8V5c0 .4-.3.8-.8.8H1.3C.8 5.8.5 5.4.5 5V1.3c0-.5.3-.8.8-.8zM12.1 12.8H1.3c-.4 0-.7-.3-.7-.7V8.3c0-.4.3-.7.7-.7h16.5c.4 0 .7.3.7.7V9M13.6 19.9H1.3c-.4 0-.7-.3-.8-.7v-3.8c0-.4.3-.8.8-.8h10.6" class="st0"/>
                </g>
            </g>
        </g>
    </g>
</svg>
