<svg xmlns="http://www.w3.org/2000/svg" viewBox="0 0 32 32">
    <defs>
        <style>
            .cls-1{fill:#d80027}.cls-2{fill:#6da544}.cls-3{fill:#338af3}.cls-4{fill:#f0f0f0}
        </style>
    </defs>
    <g id="Layer_2" data-name="Layer 2">
        <g id="az">
            <path d="M32 16a15.85 15.85 0 0 0-1-5.57l-15-.69-15 .69a16 16 0 0 0 0 11.14l15 .69 15-.69A15.85 15.85 0 0 0 32 16z" class="cls-1"/>
            <path d="M16 32a16 16 0 0 0 15-10.43H1A16 16 0 0 0 16 32z" class="cls-2"/>
            <path d="M1 10.43h30a16 16 0 0 0-30 0z" class="cls-3"/>
            <path d="M16.35 20.52a4.52 4.52 0 0 1 0-9 4.57 4.57 0 0 1 2.15.48 5.57 5.57 0 1 0 0 8 4.57 4.57 0 0 1-2.15.52z" class="cls-4"/>
            <path d="M19.83 12.87l.6 1.68 1.61-.76-.77 1.61 1.69.6-1.69.6.77 1.61-1.61-.76-.6 1.68-.6-1.68-1.62.76.77-1.61-1.68-.6 1.68-.6-.77-1.61 1.62.76.6-1.68z" class="cls-4"/>
        </g>
    </g>
</svg>
