<svg xmlns="http://www.w3.org/2000/svg" viewBox="0 0 32 32">
    <defs>
        <style>
            .cls-1{fill:#f0f0f0}.cls-2{fill:#d80027}.cls-3{fill:#6da544}
        </style>
    </defs>
    <g id="Layer_2" data-name="Layer 2">
        <g id="bi">
            <circle cx="16" cy="16" r="16" class="cls-1"/>
            <path d="M25.74 3.31a16 16 0 0 0-19.48 0L16 13.05zM16 19l-9.74 9.69a16 16 0 0 0 19.48 0L16 19z" class="cls-2"/>
            <path d="M13.05 16L3.31 6.26a16 16 0 0 0 0 19.48L13.05 16zM19 16l9.74 9.74a16 16 0 0 0 0-19.48L19 16z" class="cls-3"/>
            <circle cx="16" cy="16" r="6.96" class="cls-1"/>
            <path d="M16 11.13l.6 1.04h1.21l-.61 1.05.61 1.04H16.6L16 15.3l-.6-1.04h-1.21l.6-1.04-.6-1.05h1.21l.6-1.04zM12.94 16l.6 1.04h1.2l-.6 1.05.6 1.04h-1.2l-.6 1.04-.6-1.04h-1.21l.6-1.04-.6-1.05h1.21l.6-1.04zM19.06 16l.6 1.04h1.21l-.6 1.05.6 1.04h-1.21l-.6 1.04-.6-1.04h-1.21l.61-1.04-.61-1.05h1.21l.6-1.04z" class="cls-2"/>
        </g>
    </g>
</svg>
