<svg xmlns="http://www.w3.org/2000/svg" viewBox="0 0 23 21.9">
    <defs>
        <style>
            .cls-1{fill:#fff}.cls-2{fill:none;stroke:#fff;stroke-miterlimit:10}
        </style>
    </defs>
    <g id="Layer_2" data-name="Layer 2">
        <g id="Hermony_controler" data-name="Hermony controler">
            <g id="Row_6" data-name="Row 6">
                <g id="Tenant_light" data-name="Tenant light">
                    <path d="M11.59 1a1.91 1.91 0 1 1-1.92 1.91A1.92 1.92 0 0 1 11.59 1m0-1a2.91 2.91 0 1 0 2.91 2.91A2.91 2.91 0 0 0 11.59 0z" class="cls-1"/>
                    <path d="M3.66 10.73V9.3A1.27 1.27 0 0 1 4.92 8h13.26a1.26 1.26 0 0 1 1.25 1.3v1.45M11.56 5.38l.03 5.36M20.61 17.39a1.58 1.58 0 0 1-2.43 0 2.06 2.06 0 0 0-1.95 2.05V21a.36.36 0 0 0 .36.36h5.55a.36.36 0 0 0 .36-.36v-1.6a2.07 2.07 0 0 0-1.89-2.01zM19.37 11.83a1.62 1.62 0 0 0-1.6 1.59 15.37 15.37 0 0 0 .23 1.64 1.41 1.41 0 0 0 2.74 0 14 14 0 0 0 .26-1.64 1.61 1.61 0 0 0-1.63-1.59zM4.88 17.39a1.58 1.58 0 0 1-2.43 0A2.06 2.06 0 0 0 .5 19.44V21a.36.36 0 0 0 .36.36h5.55a.36.36 0 0 0 .36-.36v-1.6a2.07 2.07 0 0 0-1.89-2.01zM3.63 11.83A1.61 1.61 0 0 0 2 13.42a14 14 0 0 0 .22 1.64 1.41 1.41 0 0 0 2.74 0 15.37 15.37 0 0 0 .23-1.64 1.62 1.62 0 0 0-1.56-1.59zM12.77 17.39a1.59 1.59 0 0 1-1.22.57 1.56 1.56 0 0 1-1.21-.57 2.05 2.05 0 0 0-1.95 2.05V21a.36.36 0 0 0 .36.36h5.55a.36.36 0 0 0 .36-.36v-1.6a2.07 2.07 0 0 0-1.89-2.01zM11.52 11.83a1.61 1.61 0 0 0-1.59 1.59 14 14 0 0 0 .22 1.64 1.41 1.41 0 0 0 2.74 0 14 14 0 0 0 .22-1.64 1.61 1.61 0 0 0-1.59-1.59z" class="cls-2"/>
                </g>
            </g>
        </g>
    </g>
</svg>
