<svg xmlns="http://www.w3.org/2000/svg" id="Layer_1" viewBox="0 0 23 21">
    <style>
        .st0{fill:none;stroke:#fff;stroke-linejoin:round}
    </style>
    <g id="Layer_2_1_">
        <g id="Hermony_controler">
            <g id="Row_5">
                <g id="Partition_Config">
                    <path d="M6.6 16.2H10c.2 0 .4.2.4.4V20c0 .2-.2.4-.4.4H6.6c-.2 0-.4-.2-.4-.4v-3.4c-.1-.2.1-.4.4-.4zM12.2 16.2h3.4c.2 0 .4.2.4.4V20c0 .2-.2.4-.4.4h-3.4c-.2 0-.4-.2-.4-.4v-3.4c0-.2.2-.4.4-.4zM6.6 10.4H10c.2 0 .4.2.4.4v3.4c0 .2-.2.4-.4.4H6.6c-.2 0-.4-.2-.4-.4v-3.4c-.1-.2.1-.4.4-.4zM15 6l3 1.5c.2.1.3.4.2.6l-1.5 3c-.1.2-.4.3-.6.2l-3-1.5c-.2-.1-.3-.4-.2-.6l1.5-3c.1-.2.3-.3.6-.2zM10.5 2.3l3 1.5c.2.1.3.4.2.6l-1.5 3c-.1.2-.4.3-.6.2l-3-1.5c-.2-.1-.3-.4-.2-.6l1.5-3c.2-.3.4-.3.6-.2zM.9 16.2h3.4c.2 0 .4.2.4.4V20c0 .2-.2.4-.4.4H.9c-.2 0-.4-.2-.4-.4v-3.4c0-.2.2-.4.4-.4zM.9 10.4h3.4c.2 0 .4.2.4.4v3.4c0 .2-.2.4-.4.4H.9c-.2 0-.4-.2-.4-.4v-3.4c0-.2.2-.4.4-.4zM.9 4.7h3.4c.2 0 .4.2.4.4v3.4c.1.3-.1.5-.4.5H.9c-.2 0-.4-.2-.4-.5V5.1c0-.2.2-.4.4-.4zM19.2.5l3 1.5c.2.1.3.4.2.6l-1.5 3c-.1.2-.4.3-.6.2l-3-1.5c-.2-.1-.3-.3-.2-.5l1.5-3c.2-.3.4-.4.6-.3z" class="st0"/>
                </g>
            </g>
        </g>
    </g>
</svg>
