<svg xmlns="http://www.w3.org/2000/svg" viewBox="0 0 32 32">
    <defs>
        <style>
            .cls-1{fill:#ffda44}.cls-2{fill:#338af3}.cls-3{fill:#496e2d}
        </style>
    </defs>
    <g id="Layer_2" data-name="Layer 2">
        <g id="rw">
            <path d="M0 16a15.92 15.92 0 0 0 2 7.65L16 25l14.05-1.39A15.92 15.92 0 0 0 32 16l-16-1.39z" class="cls-1"/>
            <path d="M30.05 8.35A16 16 0 0 0 0 16h32a15.92 15.92 0 0 0-1.95-7.65z" class="cls-2"/>
            <path d="M16 32a16 16 0 0 0 14.05-8.35H2A16 16 0 0 0 16 32z" class="cls-3"/>
            <path d="M18.09 9.36l1.95.92-1 1.9 2.12-.41.27 2.14 1.48-1.57 1.48 1.57.27-2.14 2.12.41-1-1.9 1.95-.92-2.03-.92 1-1.89-2.08.45-.27-2.15-1.48 1.54-1.48-1.58L21.12 7 19 6.55l1 1.89z" class="cls-1"/>
        </g>
    </g>
</svg>
