<svg xmlns="http://www.w3.org/2000/svg" id="Layer_1" viewBox="0 0 14.7 22">
    <style>
        .st0{fill:none;stroke:#fff;stroke-miterlimit:10}.st1{fill:#fff}
    </style>
    <g id="Layer_2_1_">
        <g id="Row_2">
            <g id="Evasion_Detection">
                <path d="M4.6 22v-1c0-.6-.1-1.2-.2-1.7s-.2-1-.4-1.4l-.6-1.2c-.2-.3-.3-.5-.6-.9-.6-.9-.7-.9-1-1.4-.4-.4-.6-.7-.8-1.1-.1-.3-.2-.7-.3-1-.1-.3-.1-.7-.1-1 0-.4 0-.8.1-1.3.2-.5.3-.9.5-1.3.3-.5.5-.9.8-1.3.6-.9.7-1 1-1.4.2-.4.5-.7.7-1.1.1-.3.3-.7.4-1.1l.3-1.2c.1-.4.1-.7.2-1.1v-.4" class="st0"/>
                <path d="M8.1 4.8l-.8.6-2.9-3.9L.6 4.6 0 3.9 4.6 0z" class="st1"/>
                <path d="M9.9.6c0 .4 0 .8.1 1.3 0 .4.1.8.2 1.2.1.5.2.9.4 1.4.2.3.3.7.6 1 .2.4.4.7.8 1.2l.9 1.2c.3.4.5.9.7 1.3.4 1.2.5 2.4.1 3.6-.2.5-.4 1-.7 1.5-.3.5-.4.5-.9 1.3-.3.4-.6.8-.8 1.3l-.6 1.2c-.2.5-.3.9-.4 1.4-.1.3-.1.7-.1 1v.5" class="st0"/>
                <path d="M6.6 17.1l.8-.6 2.8 4 3.9-3.1.6.8L10 22z" class="st1"/>
                <circle cx="7.4" cy="10.7" r="2.2" class="st0"/>
            </g>
        </g>
    </g>
</svg>
