<svg xmlns="http://www.w3.org/2000/svg" id="Layer_1" viewBox="0 0 22.1 20">
    <style>
        .st0,.st1{fill:none;stroke:#fff}.st0{stroke-miterlimit:10}.st1{stroke-linecap:round;stroke-linejoin:round}.st2{fill:#fff}
    </style>
    <g id="Layer_2_1_">
        <g id="Action_icons">
            <g id="View_log">
                <path d="M15 11.5V2.7c0-.2-.2-.4-.4-.4H9.5M6 2.3H.9c-.2 0-.4.2-.4.4v16.4c0 .2.2.4.4.4h11.4M7.2 7.5h5.2" class="st0"/>
                <path d="M11 4.2h.8c0-.2-.1-.3-.3-.4-.2-.1-.4-.1-.6-.2-.6 0-1.1-.4-1.4-.9-.1-.2-.2-.4-.2-.5 0-.4-.1-.5-.4-.5-.2 0-.5-.2-.5-.5 0-.1-.1-.2-.1-.4-.2-.2-.4-.3-.6-.3-.2 0-.4.1-.4.3-.1.1-.1.3-.2.4-.1.3-.3.4-.5.5-.3 0-.4.1-.4.5 0 .2-.1.4-.1.5-.4.5-.9.9-1.5.9-.2.1-.4.1-.6.2-.2 0-.4.2-.3.4H11zM7.2 11.5h3.9" class="st0"/>
                <path d="M4.3 8.4l-.6-.6M4.3 8.4l1.1-1.1M4.3 12.1l-.6-.6M4.3 12.1L5.4 11" class="st1"/>
                <g id="View">
                    <path d="M9.6 15.7c1.1 1.3 2.4 2.2 3.9 2.8 1.4.5 2.9.5 4.2-.1 1.1-.5 2.1-1.1 3-2 .2-.2.4-.5.7-.7v-.1c-.9-1.1-2-2-3.3-2.6-1.3-.7-2.8-.8-4.2-.4-1.2.4-2.2 1.1-3.1 1.9l-1.2 1.2z" class="st0"/>
                    <path d="M9.6 15.7c.4-.4.7-.8 1.1-1.1.9-.9 2-1.5 3.1-1.9 1.4-.5 2.9-.3 4.2.4 1.3.6 2.4 1.6 3.3 2.7v.1c-.2.2-.4.5-.7.7-.9.9-1.9 1.5-3 2-1.1.4-2.6.4-4-.1-1.5-.6-2.9-1.6-4-2.8zm3.8-.1c0 1.2 1 2.2 2.2 2.2s2.2-1 2.2-2.2-1-2.2-2.2-2.2c-1.3 0-2.2 1-2.2 2.2z" class="st0"/>
                    <path d="M16.7 14.9c.3.5.3 1.1-.1 1.5-.5.6-1.3.7-1.9.3-.4-.3-.6-.8-.5-1.3.1-.7.6-1.2 1.3-1.2-.3.3-.3.7-.1 1 .2.2.5.4.7.3.3-.1.5-.3.6-.6z" class="st2"/>
                </g>
            </g>
        </g>
    </g>
</svg>
