<svg xmlns="http://www.w3.org/2000/svg" viewBox="0 0 32 32">
    <defs>
        <style>
            .cls-1{fill:#0052b4}.cls-2{fill:#f0f0f0}.cls-3{fill:#d80027}
        </style>
    </defs>
    <g id="Layer_2" data-name="Layer 2">
        <g id="au">
            <path d="M32 16a16 16 0 0 1-32 0L16 0a16 16 0 0 1 16 16z" class="cls-1"/>
            <path d="M16 16zM16 8.35V0A16 16 0 0 0 0 16h8.35v-4.7l4.7 4.7H16v-2.95l-4.7-4.7z" class="cls-2"/>
            <path d="M8.09 2.09a16 16 0 0 0-6 6V16h4.17V6.26H16V2.09z" class="cls-3"/>
            <path d="M16 14l-5.68-5.65h-2L16 16z" class="cls-3"/>
            <path d="M9.65 18.78l.88 1.84 1.98-.46-.89 1.83 1.6 1.27-1.99.44.01 2.04-1.59-1.27-1.59 1.27.01-2.04-1.99-.44 1.6-1.27-.89-1.83 1.98.46.88-1.84zM23.95 22.26l.44.92 1-.23-.45.91.8.64-.99.22v1.02l-.8-.64-.79.64v-1.02l-.99-.22.8-.64-.45-.91 1 .23.43-.92zM19.87 12.52l.44.92.99-.23-.44.92.8.63-1 .22V16l-.79-.64-.79.64v-1.02l-.99-.22.79-.63-.44-.92.99.23.44-.92zM23.95 6.96l.44.92 1-.24-.45.92.8.63-.99.23v1.02l-.8-.64-.79.64V9.42l-.99-.23.8-.63-.45-.92 1 .24.43-.92zM27.52 11.13l.44.92.99-.23-.44.91.8.64-1 .22.01 1.02-.8-.64-.79.64v-1.02l-.99-.22.8-.64-.45-.91.99.23.44-.92zM24.97 16l.35 1.06h1.11l-.9.66.35 1.06-.91-.65-.9.65.34-1.06-.9-.66h1.12l.34-1.06z" class="cls-2"/>
        </g>
    </g>
</svg>
