<svg xmlns="http://www.w3.org/2000/svg" viewBox="0 0 32 32">
    <defs>
        <style>
            .cls-1{fill:#ffda44}.cls-2{fill:#ff9811}.cls-3{fill:#6da544}.cls-4{fill:#a2001d}
        </style>
    </defs>
    <g id="Layer_2" data-name="Layer 2">
        <g id="lk">
            <path d="M32 16A16 16 0 1 1 16 0a16 16 0 0 1 16 16z" class="cls-1"/>
            <path d="M12.52 2.78H7l-.72.53L4.87 16l1.39 12.69.72.53h5.54z" class="cls-2"/>
            <path d="M0 16a16 16 0 0 0 6.26 12.69V3.31A16 16 0 0 0 0 16z" class="cls-3"/>
            <path d="M25.74 9.75v.4z" class="cls-1"/>
            <path d="M30.72 20.17h-3l-1.27 1.4v2.78h-2.8V23H25v-2.83h-6.22v1.74h-1.39V18.6a2.07 2.07 0 0 1-.69-1.6V8a2.09 2.09 0 0 1 2.08-2.09v12.87h2.79l.95-.79a3.3 3.3 0 0 1-.26-1.29v-2.09h-2.09v-4.18h4.18c0-.69 1-1.39 1-1.39s1.05.7 1.05 1.39v4.18h3.33a4.2 4.2 0 0 1-.55-2.09 4.15 4.15 0 0 1 1.37-3.09A16 16 0 0 0 25 2.78H14.61v26.44H25a16.05 16.05 0 0 0 6.26-8.45z" class="cls-4"/>
        </g>
    </g>
</svg>
