<svg xmlns="http://www.w3.org/2000/svg" id="Layer_1" viewBox="0 0 23 17.6">
    <style>
        .st0{fill:none;stroke:#ddd;stroke-miterlimit:10}
    </style>
    <g id="Layer_2_1_">
        <g id="Hermony_controler">
            <g id="Row_6">
                <g id="Users">
                    <path d="M11.5.7C9.9.7 8.7 2 8.6 3.6c.1 1 .2 2 .4 3 .3 1.4 1.7 2.2 3.1 1.8.9-.2 1.6-.9 1.8-1.8.2-1 .3-2 .4-3C14.3 2 13.1.7 11.5.7zM13.7 9.9c-1 1.2-2.8 1.4-4 .3l-.3-.3c-2 .1-3.5 1.7-3.5 3.7v2.9c0 .4.3.6.6.6h10c.4 0 .6-.3.6-.6v-2.9c0-1.9-1.4-3.5-3.4-3.7zM4.9 4C3.7 4 2.7 5 2.6 6.2c.1.8.2 1.6.4 2.3.3 1.1 1.4 1.7 2.4 1.5.7-.2 1.3-.7 1.5-1.5.1-.7.2-1.5.3-2.3C7.2 5 6.2 4 4.9 4zM5 12.2c-.7 0-1.3-.3-1.7-.8-1.6.1-2.8 1.4-2.8 2.9v2.3c0 .3.2.5.5.5h4M18.1 4c-1.2 0-2.2 1-2.2 2.2.1.8.2 1.6.3 2.3.3 1.1 1.4 1.7 2.4 1.5.7-.2 1.2-.8 1.4-1.5.1-.8.3-1.5.3-2.3 0-1.2-1-2.2-2.2-2.2zM18.1 17.1H22c.3 0 .5-.2.5-.5v-2.3c0-1.5-1.2-2.8-2.7-2.9-.4.5-1.1.8-1.7.8" class="st0"/>
                </g>
            </g>
        </g>
    </g>
</svg>
