<svg xmlns="http://www.w3.org/2000/svg" id="Layer_1" viewBox="0 0 22 21.8">
    <style>
        .st0,.st1{fill:none;stroke:#fff}.st0{stroke-miterlimit:10}.st1{stroke-linecap:round;stroke-linejoin:round}
    </style>
    <g id="Layer_2_1_">
        <g id="Hermony_controler">
            <g id="Row_7">
                <g id="My_Apps">
                    <g id="_hand_">
                        <path d="M.8 11.6h3c.2 0 .3.1.3.3V21c0 .2-.1.3-.3.3h-3c-.2 0-.3-.1-.3-.3v-9.1c0-.2.1-.3.3-.3zM15.6 14.3s1.6-.6 2.7-1 1.5-.3 1.9-.1c.5.2.9.6 1.1 1.1.3.6.3 1.1-.1 1.3s-6.6 3-9 4.1-3 .6-4.2 0c-.7-.3-1.4-.5-2.1-.5L4.2 19v-6c.9-.1 1.7-.1 2.6.1 1.3.3 1.7 1.1 2.8 1.1s1.6-.4 4.3-1c1.1.2 2 1 2.2 2.1l-5.3 2.1" class="st0"/>
                        <circle cx="2.2" cy="18.6" r=".6" class="st0"/>
                    </g>
                    <path d="M16.8 5.8v3.4c0 .2-.2.4-.4.4h-3.3M11.4 9.6H8.1c-.2 0-.4-.2-.4-.4V.9c0-.2.2-.4.4-.4h8.3c.2 0 .4.2.4.4V4M16.8 4c.2-.2.6-.4.9-.4.7 0 1.3.6 1.3 1.3 0 .7-.6 1.3-1.3 1.3-.3 0-.7-.1-.9-.4" class="st1"/>
                    <path d="M11.4 9.6c-.3-.2-.4-.6-.4-.9 0-.7.6-1.3 1.3-1.3.7 0 1.3.6 1.3 1.3 0 .3-.1.7-.4.9" class="st1"/>
                </g>
            </g>
        </g>
    </g>
</svg>
