<svg xmlns="http://www.w3.org/2000/svg" viewBox="0 0 32 32">
    <defs>
        <style>
            .cls-1{fill:#f0f0f0}.cls-2{fill:#d80027}.cls-3{fill:#0052b4}.cls-4{fill:#ffda44}
        </style>
    </defs>
    <g id="Layer_2" data-name="Layer 2">
        <g id="ph">
            <path d="M32 16A16 16 0 1 1 16 0a16 16 0 0 1 16 16z" class="cls-1"/>
            <path d="M16 0v16L4.69 27.31A16 16 0 0 0 32 16C32 7.16 16 0 16 0z" class="cls-2"/>
            <path d="M16 0A15.91 15.91 0 0 0 4.69 4.69L16 16h16A16 16 0 0 0 16 0z" class="cls-3"/>
            <path d="M11 16l-2-.92 1-1.89-2.12.4-.27-2.14L6.17 13 4.7 11.45l-.27 2.14-2.13-.4 1.05 1.89-2 .92 2 .92-1.05 1.89 2.13-.4.27 2.14L6.17 19l1.48 1.58.27-2.14 2.12.4L9 16.92zM4.27 6.26l.65.91L6 6.83l-.66.9.66.91-1.09-.35-.66.9V8.07l-1.06-.35 1.07-.34zM4.27 22.81l.65.91L6 23.38l-.66.9.65.91-1.06-.35-.66.9v-1.12l-1.06-.35 1.07-.34zM13.54 14.54l-.65.91-1.06-.34.66.9-.65.91 1.06-.36.66.9v-1.11l1.06-.35-1.07-.34z" class="cls-4"/>
        </g>
    </g>
</svg>
