<svg xmlns="http://www.w3.org/2000/svg" id="Layer_1" viewBox="0 0 23 22.9">
    <style>
        .st0{fill:none;stroke:#fff;stroke-linecap:round;stroke-linejoin:round}
    </style>
    <g id="Layer_2_1_">
        <g id="Hermony_controler">
            <g id="Row_7">
                <g id="Installed_Apps">
                    <path d="M11.5 6.9V11c0 .3-.2.5-.4.5h-4M4.9 11.5H1c-.3 0-.5-.2-.5-.5V1C.5.7.7.5.9.5H11c.3 0 .5.2.4.5v3.8M11.5 4.7c.6-.6 1.6-.6 2.2 0 .6.6.6 1.6 0 2.2-.6.6-1.6.6-2.2 0" class="st0"/>
                    <path d="M4.9 11.5c-.6-.6-.6-1.6 0-2.2.6-.6 1.6-.6 2.2 0 .6.6.6 1.6 0 2.2M11.5 15.6v-3.7c0-.3.2-.5.5-.5h3.9M18.1 11.4H22c.3 0 .5.2.5.5V22c0 .3-.2.5-.5.5H12c-.3 0-.5-.2-.5-.4v-3.8" class="st0"/>
                    <path d="M18.1 11.4c.6.6.6 1.6 0 2.2-.6.6-1.6.6-2.2 0-.6-.6-.6-1.6 0-2.2M7.2 11.5l3.8-.1c.3 0 .5.2.5.5v3.9M11.5 18.7V22c0 .2-.2.5-.4.5H1c-.3 0-.5-.2-.5-.4V11.9c0-.3.2-.5.5-.5h3.7" class="st0"/>
                    <path d="M11.5 18.1c-.6.6-1.6.6-2.2 0-.6-.6-.6-1.6 0-2.2.6-.6 1.6-.6 2.2 0" class="st0"/>
                </g>
            </g>
        </g>
    </g>
</svg>
