<svg xmlns="http://www.w3.org/2000/svg" viewBox="0 0 32 32">
    <defs>
        <style>
            .cls-1{fill:#f0f0f0}.cls-2{fill:#0052b4}.cls-3{fill:#496e2d}.cls-4{fill:#d80027}.cls-5{fill:#6da544}.cls-6{fill:#a2001d}.cls-7{fill:#ffda44}
        </style>
    </defs>
    <g id="Layer_2" data-name="Layer 2">
        <g id="io">
            <circle cx="16" cy="16" r="16" class="cls-1"/>
            <path d="M29.33 17.91c-1.33 0-1.33-1.21-2.66-1.21s-1.34 1.21-2.67 1.21-1.33-1.21-2.67-1.21-1.33 1.21-2.66 1.21S17.33 16.7 16 16.7s-1.33 1.21-2.67 1.21S12 16.7 10.67 16.7 9.33 17.91 8 17.91 6.67 16.7 5.33 16.7 4 17.91 2.67 17.91 1.33 16.71 0 16.7a16.84 16.84 0 0 0 .26 2.15c1.06.16 1.15 1.2 2.39 1.2S4 18.83 5.33 18.83 6.67 20.05 8 20.05s1.33-1.22 2.67-1.22 1.33 1.22 2.66 1.22 1.34-1.22 2.67-1.22 1.33 1.22 2.67 1.22 1.33-1.22 2.66-1.22 1.34 1.22 2.67 1.22 1.33-1.22 2.67-1.22 1.33 1.22 2.66 1.22 1.33-1 2.39-1.2A16.84 16.84 0 0 0 32 16.7c-1.33.01-1.34 1.21-2.67 1.21zM26.67 20.87c-1.34 0-1.34 1.22-2.67 1.22s-1.33-1.22-2.67-1.22-1.33 1.22-2.66 1.22-1.34-1.22-2.67-1.22-1.33 1.22-2.67 1.22-1.33-1.22-2.66-1.22S9.33 22.09 8 22.09s-1.33-1.22-2.67-1.22S4 22.09 2.67 22.09c-1 0-1.24-.66-1.85-1a16.67 16.67 0 0 0 1.42 3.09 1.88 1.88 0 0 0 .43 0C4 24.22 4 23 5.33 23S6.67 24.22 8 24.22 9.33 23 10.67 23s1.33 1.22 2.66 1.22S14.67 23 16 23s1.33 1.22 2.67 1.22S20 23 21.33 23s1.34 1.22 2.67 1.22S25.33 23 26.67 23s1.33 1.22 2.66 1.22a1.88 1.88 0 0 0 .43 0 16.67 16.67 0 0 0 1.42-3.09c-.61.35-.86 1-1.85 1-1.33-.04-1.33-1.26-2.66-1.26zM31.63 12.56c-1 .2-1.1 1.18-2.3 1.18s-1.33-1.22-2.66-1.22-1.34 1.22-2.67 1.22-1.33-1.22-2.67-1.22-1.33 1.22-2.66 1.22-1.34-1.22-2.67-1.22a1.91 1.91 0 0 0-1.41.68v2.14a1.87 1.87 0 0 1 1.41-.68c1.33 0 1.33 1.21 2.67 1.21s1.33-1.21 2.66-1.21 1.34 1.21 2.67 1.21 1.33-1.21 2.67-1.21 1.33 1.21 2.66 1.21 1.33-1 2.39-1.19h.22a14.7 14.7 0 0 0-.31-2.12zM30.46 9.14a1.65 1.65 0 0 1-1.13.43C28 9.57 28 8.35 26.67 8.35S25.33 9.57 24 9.57s-1.33-1.22-2.67-1.22S20 9.57 18.67 9.57 17.33 8.35 16 8.35a1.87 1.87 0 0 0-1.41.65v2.13a1.91 1.91 0 0 1 1.41-.65c1.33 0 1.33 1.22 2.67 1.22s1.33-1.22 2.66-1.22S22.67 11.7 24 11.7s1.33-1.22 2.67-1.22S28 11.7 29.33 11.7c1 0 1.22-.61 1.78-1-.19-.51-.41-1.04-.65-1.56zM26.78 4.18h-.11c-1.34 0-1.34 1.22-2.67 1.22s-1.33-1.22-2.67-1.22S20 5.39 18.67 5.39 17.33 4.17 16 4.17a1.88 1.88 0 0 0-1.41.69V7A1.87 1.87 0 0 1 16 6.31c1.33 0 1.33 1.22 2.67 1.22S20 6.31 21.33 6.31 22.67 7.53 24 7.53s1.33-1.22 2.67-1.22S28 7.53 29.33 7.53h.23a16.14 16.14 0 0 0-2.78-3.35zM16 0zM20.09.53a1.92 1.92 0 0 1-1.42.69C17.33 1.22 17.33 0 16 0a1.86 1.86 0 0 0-1.37.64v2.13A1.86 1.86 0 0 1 16 2.13c1.33 0 1.33 1.22 2.67 1.22S20 2.13 21.33 2.13 22.67 3.35 24 3.35a1.64 1.64 0 0 0 1.17-.46A15.74 15.74 0 0 0 20.09.53zM18.67 30.44c-1.34 0-1.34-1.22-2.67-1.22s-1.33 1.22-2.67 1.22-1.33-1.22-2.66-1.22c-1 0-1.26.71-1.92 1.05A16 16 0 0 0 14.68 32a1.75 1.75 0 0 1 2.64 0 16 16 0 0 0 5.93-1.68c-.66-.34-.9-1.05-1.92-1.05-1.33-.05-1.33 1.17-2.66 1.17zM24 26.26c-1.33 0-1.33-1.22-2.67-1.22s-1.33 1.22-2.66 1.22S17.33 25 16 25s-1.33 1.22-2.67 1.22S12 25 10.67 25 9.33 26.26 8 26.26 6.67 25 5.33 25c-1 0-1.23.63-1.8 1a15.32 15.32 0 0 0 1.15 1.3 1.75 1.75 0 0 1 .65-.12c1.34 0 1.34 1.22 2.67 1.22s1.33-1.22 2.67-1.22S12 28.4 13.33 28.4s1.34-1.22 2.67-1.22 1.33 1.22 2.67 1.22 1.33-1.22 2.66-1.22S22.67 28.4 24 28.4s1.33-1.22 2.67-1.22a1.75 1.75 0 0 1 .65.12 15.32 15.32 0 0 0 1.15-1.3c-.58-.36-.84-1-1.8-1-1.34 0-1.34 1.26-2.67 1.26z" class="cls-2"/>
            <path d="M16 16z" class="cls-1"/>
            <path d="M18.09 16z" class="cls-3"/>
            <path d="M16 8.35v4.7l-5.56-5.4 5.56.7zM8.35 16h4.7l-4.7-6.26-.7 4.87.7 1.39z" class="cls-2"/>
            <path d="M16 8.35V0A16 16 0 0 0 0 16h8.35v-4.7l4.7 4.7H16v-2.95l-4.7-4.7z" class="cls-1"/>
            <path d="M8.09 2.09a16 16 0 0 0-6 6V16h4.17V6.26H16V2.09z" class="cls-4"/>
            <path d="M16 14l-5.68-5.65h-2L16 16z" class="cls-4"/>
            <path d="M20.87 8.35h6.26L24 11.48l-3.13-3.13z" class="cls-5"/>
            <path d="M23.3 10.78h1.39v3.83H23.3zM23.3 20.87h1.39v3.83H23.3z" class="cls-6"/>
            <path d="M28.17 18.78a2.08 2.08 0 0 0-3.47-1.55V16h.69v-1.39h-.69v-.7h-1.4v.7h-.69V16h.69v1.23a2 2 0 0 0-1.39-.53 2.09 2.09 0 0 0-1.39 3.64v1.23h7v-1.23a2.07 2.07 0 0 0 .65-1.56z" class="cls-7"/>
            <path d="M26.09 18.09a.71.71 0 0 0-.47.17l-.92.83h-1.4l-.92-.83a.71.71 0 0 0-.47-.17.69.69 0 0 0-.46 1.21l.46.42v.45h4.18v-.45l.46-.42a.69.69 0 0 0-.46-1.21z" class="cls-4"/>
        </g>
    </g>
</svg>
