<svg xmlns="http://www.w3.org/2000/svg" viewBox="0 0 32 32">
    <defs>
        <style>
            .cls-1{fill:#0052b4}.cls-2{fill:#f0f0f0}.cls-3{fill:#ff9811}
        </style>
    </defs>
    <g id="Layer_2" data-name="Layer 2">
        <g id="mh">
            <path d="M16 32A16 16 0 0 0 30.17 8.56L16 16l7.44-14.17A16 16 0 0 0 4.69 27.31 15.91 15.91 0 0 0 16 32z" class="cls-1"/>
            <path d="M30.15 8.58a16.06 16.06 0 0 0-6.73-6.73L4.67 27.33z" class="cls-2"/>
            <path d="M4.67 27.33L30.15 8.58a16 16 0 0 0-2.86-3.88z" class="cls-3"/>
            <path d="M13.89 9.38l-2 .92 1 1.89-2.12-.4-.27 2.14-1.39-1.57-1.48 1.57-.26-2.14-2.13.4 1-1.89-1.91-.92 2-.92-1-1.89L7.37 7l.26-2.15 1.48 1.56 1.48-1.58.27 2.17L13 6.57l-1 1.89z" class="cls-2"/>
        </g>
    </g>
</svg>
