<svg xmlns="http://www.w3.org/2000/svg" viewBox="0 0 32 32">
    <defs>
        <style>
            .cls-1{fill:#a2001d}.cls-2{fill:#0052b4}.cls-3{fill:#f0f0f0}.cls-4{fill:#6da544}.cls-5{fill:#ffda44}
        </style>
    </defs>
    <g id="Layer_2" data-name="Layer 2">
        <g id="ht">
            <path d="M32 16a16 16 0 0 1-32 0C0 7.16 16 0 16 0s16 7.16 16 16z" class="cls-1"/>
            <path d="M0 16a16 16 0 0 1 32 0" class="cls-2"/>
            <path d="M21.57 20.17L16 19.48l-5.57.69v-8.34h11.14z" class="cls-3"/>
            <path d="M18.78 16.7A2.78 2.78 0 1 1 16 13.91a2.78 2.78 0 0 1 2.78 2.79z" class="cls-2"/>
            <path d="M17.39 16.7A1.39 1.39 0 1 1 16 15.3a1.39 1.39 0 0 1 1.39 1.4z" class="cls-1"/>
            <path d="M13.91 13.22h4.18L16 15.3z" class="cls-4"/>
            <path d="M15.3 14.61h1.39v4.17H15.3z" class="cls-5"/>
            <path d="M18.23 18.37h-4.46l-3.34 1.8h11.14z" class="cls-4"/>
        </g>
    </g>
</svg>
