<svg xmlns="http://www.w3.org/2000/svg" viewBox="0 0 32 32">
    <defs>
        <style>
            .cls-1{fill:#f0f0f0}.cls-2{fill:#338af3}.cls-3{fill:#ffda44}
        </style>
    </defs>
    <g id="Layer_2" data-name="Layer 2">
        <g id="ar">
            <circle cx="16" cy="16" r="16" class="cls-1"/>
            <path d="M16 0A16 16 0 0 0 1.59 9h28.82A16 16 0 0 0 16 0zM16 32a16 16 0 0 0 14.41-9H1.59A16 16 0 0 0 16 32z" class="cls-2"/>
            <path d="M20.78 16l-1.95.92 1.04 1.89-2.12-.4-.27 2.14L16 18.97l-1.48 1.58-.27-2.14-2.12.4 1.04-1.89-1.95-.92 1.95-.92-1.04-1.89 2.12.4.27-2.14L16 13.03l1.48-1.58.27 2.14 2.12-.4-1.04 1.89 1.95.92z" class="cls-3"/>
        </g>
    </g>
</svg>
