<svg xmlns="http://www.w3.org/2000/svg" viewBox="0 0 32 32">
    <defs>
        <style>
            .cls-1{fill:#0052b4}.cls-2{fill:#a2001d}.cls-3{fill:#ffda44}
        </style>
    </defs>
    <g id="Layer_2" data-name="Layer 2">
        <g id="mn">
            <path d="M16 32a15.85 15.85 0 0 0 5.57-1l.69-15-.69-15a16 16 0 0 0-11.14 0l-.69 15 .69 15A15.85 15.85 0 0 0 16 32z" class="cls-1"/>
            <path d="M0 16a16 16 0 0 0 10.43 15V1A16 16 0 0 0 0 16zM21.57 1v30a16 16 0 0 0 0-30z" class="cls-2"/>
            <path d="M7.65 16h1.39v5.57H7.65zM2.09 16h1.39v5.57H2.09zM7 18.09a1.4 1.4 0 1 1-1.43-1.39A1.39 1.39 0 0 1 7 18.09zM6.26 13.22a.7.7 0 1 1-.69-.7.69.69 0 0 1 .69.7zM4.17 20.17h2.78v1.39H4.17zM4.17 14.61h2.78V16H4.17zM5.57 8.35l.49 1.51h1.59l-1.29.94.49 1.52-1.28-.94-1.29.94.49-1.52-1.29-.94h1.59z" class="cls-3"/>
        </g>
    </g>
</svg>
